
CASCADE Topology V2, (c) Matra-Datavision
Locations 2
1
              1               0               0               0 
              0               1               0               0 
              0               0               1               2 
2  1 -1 0
Curve2ds 4
1 0 0 0 -1 
1 6.2831853071795862 0 0 -1 
1 0 0 1 0 
1 0 -2 1 0 
Curves 3
1 4.2071067811865479 0 -2 0 1 0 
2 3.5 0 -2 -0 1 0 1 0 0 0 0 -1 0.70710678118654757
2 3.5 2 -4 -0 1 0 1 0 0 0 0 -1 0.70710678118654757
Polygon3D 0
PolygonOnTriangulations 0
Surfaces 3
2 3.5 0 -2 0 -1 0 1 0 0 0 0 -1 0.70710678118654757
1 3.5000000000000004 0 -2 0 1 0 1 0 0 0 0 -1 
1 3.5000000000000004 2 -4 0 1 0 1 0 0 0 0 -1 
Triangulations 0

TShapes 13
Ve
1e-07
4.20710678118655 0 -2
0 0

0101101
*
Ve
1e-07
4.20710678118655 2 -2
0 0

0101101
*
Ed
 1e-07 1 1 0
1  1 0 0 2
3  1 2CN 1 0 0 2
6.28318530717959 0 6.28318530717959 -2
0

0101000
+13 0 -12 0 *
Ed
 1e-07 1 1 0
1  2 0 0 6.28318530717959
2  3 1 0 0 6.28318530717959
0 0 6.28318530717959 0
0

0101000
+13 0 -13 0 *
Ed
 1e-07 1 1 0
1  3 0 0 6.28318530717959
2  4 1 2 0 6.28318530717959
0 -2 6.28318530717959 -2
0

0101000
+12 2 -12 2 *
Wi

0101100
+11 0 -11 0 -10 0 +9 1 *
Fa
0  1e-07 1 0

0111000
+8 0 *
Wi

0101100
+10 0 *
Fa
0  1e-07 2 0

0111000
+6 0 *
Wi

0101100
+9 0 *
Fa
0  1e-07 3 0

0111000
+4 0 *
Sh

0101100
+7 0 +5 0 -3 1 *
So

1100000
-2 0 *

+1 0 