
CASCADE Topology V2, (c) Matra-Datavision
Locations 5
1
              1               0               0               0 
              0               1               0               0 
              0               0               1               9 
2  1 -1 0
1
              1               0               0               0 
              0               1               0               0 
              0               0               1               7 
1
              1               0               0               0 
              0               1               0               0 
              0               0               1               5 
2  4 -1 0
Curve2ds 266
1 3.449909460033115 0 0 -1 
8 0.5 6.5
1 0 0 0 -1 
8 0.5 6.5
1 6.2831853071795862 0 0 -1 
1 0 0 0 1 
1 0 -0.49999999999999989 1 0 
1 0 0 0 1 
1 0 -6.5 1 0 
1 0 0 0 -1 
7 0 0  7 26 5  1.1348386266624797e-07 9.7927673147935295  0.0061704969654040589 9.7816430300419199  0.012341324830221004 9.7705189325856416  0.018511829127488992 9.7593946731236265  0.024682864245486061 9.7482705809016075  0.030854061492050056 9.7371464749851757  0.03702574144336309 9.7260224679828848  0.1415071661258506 9.5377199701217847  0.2398572702062986 9.3607385141683803  0.33878657612891055 9.1838409609587934  0.43878131375365176 9.0070282035039817  0.54030935492186016 8.8304174432537632  0.64386949601421539 8.6542481478865945  0.84269782202995158 8.3259040101617305  0.937149648611727 8.1738474509035974  1.0341354491681873 8.0224009908195484  1.1343053937671776 7.8716060789180036  1.2383172491803149 7.721838256980063  1.3468678748777416 7.5738241359053058  1.4762249126159384 7.4091661132174824  1.4917115738790019 7.389632492538043  1.5073043954189491 7.3701488720363244  1.5230062534389772 7.3507177556690673  1.5388201253678415 7.3313418369831487  1.5547490898598562 7.3120239991155866  1.5707963267948966 7.2927673147935375 
 0 8 0.030581744341991658 6 0.51767909307311766 6 0.94264188679558647 6 1 8
7 0 0  7 26 5  2.8332758471464707 -0.49999994325806857  2.8315644187232998 -0.496914751517333  2.8298530191141258 -0.49382933758526171  2.8281415863948971 -0.4907442773161208  2.8264301630289288 -0.48765933539268708  2.8247187129945868 -0.48457488809525534  2.823007245426048 -0.48149096717436346  2.7940355513473882 -0.42929898948497119  2.7667952976120174 -0.38041368769010236  2.7395244915103478 -0.332256259672293  2.7121903679952859 -0.28536975568684886  2.6847767541776233 -0.24037406919232382  2.6572852488350658 -0.19800583719203893  2.6057060544605704 -0.12526941588718771  2.5816805908889435 -0.094129308779142495  2.5575893844055124 -0.066190318825400052  2.5334140873391555 -0.0421078780952297  2.5091882938443626 -0.022760365081250178  2.4850043200528331 -0.0092728209979388576  2.4578099931277984 -0.0021754359654619598  2.4545791269683264 -0.0014629464463304456  2.4513517154879052 -0.00088548459119113898  2.4481281372913677 -0.00044666227818167693  2.4449088069164366 -0.0001502146272191077  2.4416941748337195 1.1102230246251565e-16  2.4384847274467103 1.1102230246251565e-16 
 0 8 0.030581744341991658 6 0.51767909307311766 6 0.94264188679558647 6 1 8
7 0 0  7 26 5  0 -0.49999994325806857  -0.0017114284231709576 -0.496914751517333  -0.0034228280323449489 -0.49382933758526171  -0.0051342607515736383 -0.4907442773161208  -0.0068456841175419392 -0.48765933539268708  -0.0085571341518839716 -0.48457488809525534  -0.010268601720422765 -0.48149096717436346  -0.039240295799082503 -0.42929898948497119  -0.06648054953445337 -0.38041368769010236  -0.093751355636122913 -0.332256259672293  -0.12108547915118484 -0.28536975568684886  -0.14849909296884745 -0.24037406919232382  -0.17599059831140496 -0.19800583719203893  -0.22756979268590039 -0.12526941588718771  -0.25159525625752721 -0.094129308779142495  -0.27568646274095832 -0.066190318825400052  -0.29986175980731522 -0.0421078780952297  -0.32408755330210814 -0.022760365081250178  -0.34827152709363762 -0.0092728209979388576  -0.37546585401867238 -0.0021754359654619598  -0.37869672017814437 -0.0014629464463304456  -0.38192413165856554 -0.00088548459119113898  -0.38514770985510305 -0.00044666227818167693  -0.3883670402300341 -0.0001502146272191077  -0.39158167231275121 1.1102230246251565e-16  -0.39479111969976044 1.1102230246251565e-16 
 0 8 0.030581744341991658 6 0.51767909307311766 6 0.94264188679558647 6 1 8
1 0 0 1 0 
1 -2.8332758471464707 0 1 0 
1 0 0 0 -1 
1 6.2831853071795862 0 0 -1 
1 -2.8332758471464707 0 0 -1 
1 3.4499094600331155 0 0 -1 
1 -2.8332758471464707 0 0 -1 
1 3.4499094600331155 0 0 -1 
1 0 -9 1 0 
1 -2.8332758471464707 -9 1 0 
7 0 0  7 20 4  -1.8250120525920011e-08 0  0.10187121692619379 0.18365128548095019  0.20361496370486609 0.36707073966227016  0.3058517748363781 0.55042644800818419  0.40912392925584662 0.73373656052315039  0.51393912972842137 0.91687333224857703  0.62082883307218473 1.0995621220760567  0.82550544129857095 1.4391196244826765  0.92242667550768931 1.5958769506654038  1.0219708841393624 1.7520173010564142  1.1248382778739154 1.9075081098147171  1.2317371592974982 2.0619484681700926  1.3434173361500397 2.2145509927856302  1.4762247989422963 2.3836010581972311  1.4917114785016055 2.403134703079004  1.5073043185834578 2.4226183476729863  1.5230061954012324 2.4420494880138852  1.5388200863943766 2.4614254305453969  1.5547490702284041 2.4807432921202084  1.5707963267948966 2.4999999999999996 
 0 8 0.50472412304050918 6 0.94263142839932512 6 1 8
7 0 0  7 20 4  0 -6.4999999908749393  0.028254045335964827 -6.5509358545486878  0.056472417063286477 -6.6018066169819791  0.084717836414730879 -6.6520638505043239  0.11302949130936522 -6.701117170636075  0.14142564553010833 -6.7482896795870575  0.16990322383088285 -6.7927744039338123  0.22318848728934693 -6.8690055355450736  0.24793147813147842 -6.9015848908024466  0.27274592576593532 -6.9308546060804757  0.29765390253217755 -6.9561139865476944  0.32262042545287073 -6.9764156648910145  0.34754612969793486 -6.9905378518745831  0.37546583030377495 -6.9978245588047754  0.3786967004368656 -6.9985370500214694  0.38192411588430975 -6.9991145132614765  0.38514769804000321 -6.9995533366338494  0.38836703236479025 -6.9998497850052575  0.39158166838646291 -7  0.39479111969976133 -7 
 0 8 0.50472412304050918 6 0.94263142839932512 6 1 8
7 0 0  7 20 4  -2.8332758471464707 -6.4999999908749393  -2.805021801810506 -6.5509358545486878  -2.7768034300831843 -6.6018066169819791  -2.74855801073174 -6.6520638505043239  -2.7202463558371055 -6.701117170636075  -2.6918502016163623 -6.7482896795870575  -2.6633726233155879 -6.7927744039338123  -2.6100873598571237 -6.8690055355450736  -2.5853443690149924 -6.9015848908024466  -2.5605299213805353 -6.9308546060804757  -2.5356219446142934 -6.9561139865476944  -2.5106554216935999 -6.9764156648910145  -2.4857297174485358 -6.9905378518745831  -2.457810016842696 -6.9978245588047754  -2.4545791467096052 -6.9985370500214694  -2.4513517312621609 -6.9991145132614765  -2.4481281491064677 -6.9995533366338494  -2.4449088147816807 -6.9998497850052575  -2.4416941787600077 -7  -2.4384847274467094 -7 
 0 8 0.50472412304050918 6 0.94263142839932512 6 1 8
2 -18.11942557683248 -4.942531130273605 1 0 0 -1 6.5
1 6.2831853071795862 -7 -1 0 
1 3.4499094600331155 -7 -1 0 
8 4.5351876645324207 5.2220637076183429
1 -4.5351876645324207 -5 1 0 
7 0 0  7 26 5  1.1348386266624797e-07 9.7927673147935295  0.0061704965560003934 9.7816430307802698  0.012341325177723985 9.7705189319585504  0.018511829022798323 9.7593946733130021  0.02468286476129505 9.7482705799714555  0.030854061041953311 9.7371464757965978  0.03702574140070327 9.7260224680597691  0.14150716612567904 9.5377199701220921  0.239857270206109 9.3607385141687462  0.33878657612903229 9.1838409609585341  0.43878131375404006 9.0070282035032889  0.54030935492196541 8.8304174432536477  0.64386949601359522 8.6542481478876194  0.84269782203068222 8.3259040101605244  0.93714964861183137 8.1738474509036063  1.0341354491662011 8.0224009908225113  1.13430539376874 7.8716060789154483  1.2383172491804659 7.7218382569800692  1.3468678748774479 7.5738241359056797  1.4762249126159384 7.4091661132174824  1.4917115738790014 7.389632492538043  1.5073043954189485 7.3701488720363244  1.5230062534389766 7.3507177556690673  1.5388201253678413 7.3313418369831487  1.5547490898598568 7.3120239991155858  1.5707963267948966 7.2927673147935375 
 0 8 0.030581744546921988 6 0.51767909317465477 6 0.94264188680779148 6 1 8
7 0 0  7 26 5  2.8332758471464707 -6.500000056741932  2.8315644188367814 -6.5030852482780039  2.8298530190178961 -6.5061706625883842  2.8281415864237553 -6.5092557226317362  2.8264301628859951 -6.5123406648649453  2.8247187131193763 -6.5154251116798525  2.8230072454378767 -6.518509032804328  2.7940355513474344 -6.5707010105149442  2.766795297612068 -6.6195863123097975  2.7395244915103132 -6.6677437403277962  2.712190367995182 -6.7146302443133283  2.6847767541775984 -6.7596259308076725  2.6572852488352265 -6.8019941628077349  2.6057060544603807 -6.874730584113081  2.5816805908889586 -6.9058706912207644  2.5575893844059414 -6.933809681174159  2.5334140873387967 -6.9578921219052257  2.5091882938443404 -6.977239634918659  2.4850043200528948 -6.9907271790020458  2.4578099931277984 -6.9978245640345387  2.4545791269683264 -6.9985370535536697  2.4513517154879052 -6.9991145154088104  2.4481281372913677 -6.9995533377218209  2.4449088069164362 -6.9998497853727821  2.4416941748337182 -7.0000000000000009  2.4384847274467103 -7.0000000000000009 
 0 8 0.030581744546921988 6 0.51767909317465477 6 0.94264188680779148 6 1 8
7 0 0  7 26 5  0 -6.500000056741932  -0.0017114283096892891 -6.5030852482780039  -0.0034228281285746398 -6.5061706625883842  -0.0051342607227153891 -6.5092557226317362  -0.0068456842604756041 -6.5123406648649453  -0.0085571340270944596 -6.5154251116798525  -0.010268601708594005 -6.518509032804328  -0.039240295799036318 -6.5707010105149442  -0.066480549534402744 -6.6195863123097975  -0.093751355636157552 -6.6677437403277962  -0.12108547915128876 -6.7146302443133283  -0.14849909296887231 -6.7596259308076725  -0.1759905983112442 -6.8019941628077349  -0.22756979268609001 -6.874730584113081  -0.25159525625751211 -6.9058706912207644  -0.27568646274052933 -6.933809681174159  -0.29986175980767404 -6.9578921219052257  -0.32408755330213035 -6.977239634918659  -0.34827152709357589 -6.9907271790020458  -0.37546585401867238 -6.9978245640345387  -0.37869672017814437 -6.9985370535536697  -0.38192413165856554 -6.9991145154088104  -0.38514770985510305 -6.9995533377218209  -0.38836704023003454 -6.9998497853727821  -0.39158167231275254 -7.0000000000000009  -0.39479111969976044 -7.0000000000000009 
 0 8 0.030581744546921988 6 0.51767909317465477 6 0.94264188680779148 6 1 8
1 0 0 0 -1 
1 2.8332758471464712 0 0 -1 
8 0 1.5707963267948966
1 0 4 1 0 
8 0 1.5707963267948966
1 0 3.1415926535897931 0 1 
1 1.5707963267948966 0 0 1 
1 -12.11942557683248 -4.942531130273605 0 1 
7 0 0  7 20 4  -1.8250120525920011e-08 0  0.10187121692685309 0.18365128548214332  0.20361496370413865 0.36707073966090664  0.30585177483580123 0.55042644800724838  0.40912392925667218 0.73373656052462655  0.51393912972939926 0.91687333225015188  0.62082883307094783 1.0995621220740051  0.82550544129768899 1.4391196244812134  0.92242667550836865 1.5958769506664516  1.0219708841408575 1.7520173010591358  1.12483827787269 1.9075081098120534  1.2317371592963404 2.0619484681690281  1.343417336151135 2.2145509927870242  1.4762247989422963 2.3836010581972311  1.4917114785016057 2.403134703079004  1.5073043185834583 2.4226183476729863  1.5230061954012324 2.4420494880138848  1.538820086394376 2.461425430545396  1.5547490702284035 2.4807432921202079  1.5707963267948966 2.4999999999999996 
 0 8 0.50472412304537839 6 0.94263142839941605 6 1 8
7 0 0  7 20 4  0 -0.50000000912506026  0.028254045336149475 -0.44906414545095796  0.056472417063076798 -0.39819338301847612  0.084717836414583206 -0.34793614949585372  0.11302949130959379 -0.29888282936349092  0.14142564553035683 -0.25171032041265062  0.16990322383056089 -0.20722559606664784  0.22318848728911733 -0.13099446445525414  0.24793147813166269 -0.098415109197201811  0.2727459257663159 -0.069145393919184728  0.29765390253181484 -0.04388601345285803  0.32262042545266539 -0.023584335108881194  0.34754612969816506 -0.0094621481253570061  0.37546583030377495 -0.002175441195224503  0.3786967004368656 -0.0014629499785309141  0.3819241158843098 -0.00088548673852265145  0.38514769804000332 -0.00044666336615103286  0.38836703236479014 -0.00015021499474275415  0.39158166838646269 1.1102230246251565e-16  0.39479111969976133 1.1102230246251565e-16 
 0 8 0.50472412304537839 6 0.94263142839941605 6 1 8
7 0 0  7 20 4  -2.8332758471464707 -0.50000000912506026  -2.8050218018103212 -0.44906414545095796  -2.7768034300833939 -0.39819338301847612  -2.7485580107318874 -0.34793614949585372  -2.7202463558368768 -0.29888282936349092  -2.6918502016161141 -0.25171032041265062  -2.6633726233159098 -0.20722559606664784  -2.6100873598573533 -0.13099446445525414  -2.5853443690148081 -0.098415109197201811  -2.5605299213801547 -0.069145393919184728  -2.5356219446146557 -0.04388601345285803  -2.5106554216938055 -0.023584335108881194  -2.4857297174483057 -0.0094621481253570061  -2.457810016842696 -0.002175441195224503  -2.4545791467096052 -0.0014629499785309141  -2.4513517312621609 -0.00088548673852265145  -2.4481281491064673 -0.00044666336615103286  -2.4449088147816807 -0.00015021499474275415  -2.4416941787600082 1.1102230246251565e-16  -2.4384847274467094 1.1102230246251565e-16 
 0 8 0.50472412304537839 6 0.94263142839941605 6 1 8
8 0 1.5707963267948966
1 0 4 1 0 
8 0 1.5707963267948966
1 0 3.1415926535897931 0 1 
1 1.5707963267948966 0 0 1 
1 -12.11942557683248 -4.942531130273605 0 1 
1 0 3.1415926535897931 1 0 
1 0 -0.5 1 0 
1 0 3.1415926535897931 1 0 
1 0 -6.5 1 0 
1 1.5707963267948983 0 0 -1 
1 0 0 0 1 
1 0 -0.49999999999999989 1 -0 
1 1.5707963267948966 0 0 1 
1 -20.864833148365133 6.2091964913937998 -0.30345524333481205 -0.9528456933274192 
8 0 1.5707963267948966
1 1.2624795203515731 0 0 1 
8 0 1.5707963267948966
1 0 0 1 0 
1 1.5707963267948966 0 0 1 
1 3.4703203853231308 0.49048157161861372 0.86602540378443871 -0.49999999999999989 
1 1.5707963267948966 0 0 1 
1 11.88057442316752 -4.442531130273605 1 0 
1 0 1.5707963267948966 1 0 
2 27.88057442316752 -3.9425311302736019 0 -1 1 0 0.50000000000000133
1 1.5707963267948966 0 0 1 
1 28.38057442316752 -3.942531130273605 0 1 
1 0 1.5707963267948966 1 0 
2 27.88057442316752 -0.9425311302736068 1 1.7763568394002505e-15 -1.7763568394002505e-15 1 0.50000000000000067
1 1.5707963267948966 0 0 1 
1 27.88057442316752 -0.44253113027360502 -1 0 
1 0 4.7123889803846897 1 0 
2 13.722077165054518 1.0574688697264252 -7.105427357600863e-15 -1 -1 7.105427357600863e-15 1.5000000000000295
1 1.5707963267948966 0 0 1 
1 12.840399286615806 -0.15605662183602487 -0.80901699437494756 0.58778525229247314 
1 0 1.5707963267948966 1 0 
2 -3.1818290499520341 10.866739669343193 0.5877852522924677 0.80901699437495156 -0.80901699437495156 0.5877852522924677 0.50000000000000688
1 1.5707963267948966 0 0 1 
1 -3.4318290499520341 11.299752371235421 -0.86602540378443871 -0.5 
1 0 4.7123889803846897 1 0 
2 -12.047628807107996 8.0574688697264207 0.49999999999999239 -0.86602540378444293 -0.86602540378444304 -0.49999999999999245 1.5000000000000246
1 1.5707963267948966 0 0 1 
1 -12.047628807107991 6.557468869726395 -1 0 
1 0 1.5707963267948966 1 0 
2 -20.38841030170142 6.0574688697263932 0 1 -1 0 0.50000000000000155
1 -2.8332758471464707 0 1 0 
1 0 4.7123889803846897 1 0 
2 -10.61942557683248 -0.94253113027360413 -1 -8.8817841970012523e-16 -8.8817841970012523e-16 1 1.4999999999999991
1 1.5707963267948966 0 0 1 
1 -10.61942557683248 0.55746886972639498 1 0 
1 1.5707963267948966 0 0 1 
1 -10.61942557683248 0.55746886972639498 1 0 
1 0 4.7123889803846897 1 0 
2 -10.61942557683248 -0.94253113027360413 -1 -8.8817841970012523e-16 -8.8817841970012523e-16 1 1.4999999999999991
1 0 -5 1 0 
1 0 -5 1 0 
1 0 -5 1 0 
1 0 -5 1 0 
1 1.5707963267948966 0 0 1 
1 -20.864833148365133 6.2091964913937998 -0.30345524333481205 -0.9528456933274192 
1 0 1.5707963267948966 1 0 
2 -20.38841030170142 6.0574688697263932 0 1 -1 0 0.50000000000000155
1 1.5707963267948966 0 0 1 
1 -12.047628807107991 6.557468869726395 -1 0 
1 0 4.7123889803846897 1 0 
2 -12.047628807107996 8.0574688697264207 0.49999999999999239 -0.86602540378444293 -0.86602540378444304 -0.49999999999999245 1.5000000000000246
1 1.5707963267948966 0 0 1 
1 -3.4318290499520341 11.299752371235421 -0.86602540378443871 -0.5 
1 0 1.5707963267948966 1 0 
2 -3.1818290499520341 10.866739669343193 0.5877852522924677 0.80901699437495156 -0.80901699437495156 0.5877852522924677 0.50000000000000688
1 1.5707963267948966 0 0 1 
1 12.840399286615806 -0.15605662183602487 -0.80901699437494756 0.58778525229247314 
1 0 4.7123889803846897 1 0 
2 13.722077165054518 1.0574688697264252 -7.105427357600863e-15 -1 -1 7.105427357600863e-15 1.5000000000000295
1 1.5707963267948966 0 0 1 
1 27.88057442316752 -0.44253113027360502 -1 0 
1 0 1.5707963267948966 1 0 
2 27.88057442316752 -0.9425311302736068 1 1.7763568394002505e-15 -1.7763568394002505e-15 1 0.50000000000000067
1 1.5707963267948966 0 0 1 
1 28.38057442316752 -3.942531130273605 0 1 
1 0 1.5707963267948966 1 0 
2 27.88057442316752 -3.9425311302736019 0 -1 1 0 0.50000000000000133
1 1.5707963267948966 0 0 1 
1 11.88057442316752 -4.442531130273605 1 0 
1 1.5707963267948966 0 0 1 
1 3.4703203853231308 0.49048157161861372 0.86602540378443871 -0.49999999999999989 
1 2.0563144490904892 0 0 -1 
1 0 0 0 -1 
1 0.68687604308592254 0 0 -1 
1 0 0 0 -1 
1 0 0 1 0 
1 7.3684635116788915 -2 -1 0 
1 0 0 0 1 
1 0 -6.5000000000000009 1 -0 
8 0 1.5707963267948966
1 1.2624795203515731 0 0 1 
8 0 1.5707963267948966
1 0 0 1 0 
1 1.2624795203515731 0 0 -1 
8 3.1415926535897931 4.7123889803846897
1 1.5707963267948983 0 0 1 
8 3.1415926535897931 4.7123889803846897
1 -3.1415926535897931 0 1 0 
8 3.1415926535897931 4.7123889803846897
1 1.5707963267948983 0 0 1 
8 3.1415926535897931 4.7123889803846897
1 -3.1415926535897931 0 1 0 
1 0 0 0 1 
1 0 -0.49999999999999989 1 0 
1 0 0 0 1 
1 0 -6.5 1 0 
8 0 1.5707963267948966
1 0 8.3407814945934291 1 0 
8 0 1.5707963267948966
1 0 0 0 1 
1 0 0 1 0 
1 0 -0.5 1 0 
7 0 0  6 7 2  0 13.839745962155606  0.26179938779914608 13.83974596215559  0.52359858417439442 13.850762579837927  0.7853982766755162 13.872812318907124  1.0471976367167901 13.90357429942244  1.3089969389957397 13.938646091101342  1.5707963267948966 13.973720558371172 
 3.1415926535897931 7 4.7123889803846897 7
7 0 0  6 7 2  -1.1102230246251565e-16 -1.762479051592436e-15  0.26179938779915107 -1.8889937952735005e-15  0.52359858417440208 -0.011016617682408837  0.7853982766754356 -0.03306635675165457  1.047197636716698 -0.063828337267018698  1.3089969389957659 -0.098900128945692209  1.5707963267948968 -0.13397459621556254 
 3.1415926535897931 7 4.7123889803846897 7
1 0 0 0 1 
1 1.7763568394002505e-15 -0.49999999999999989 1 0 
7 0 0  6 7 2  0 -3.5388358909926865e-15  0.26179938779914907 -3.3070031707496369e-15  0.52359858417440797 0.011016617682424616  0.78539827667541817 0.033066356751633608  1.0471976367167235 0.063828337267018989  1.3089969389957543 0.098900128945687601  1.5707963267948966 0.13397459621555902 
 3.1415926535897931 7 4.7123889803846897 7
7 0 0  6 7 2  -2.2204460492503131e-16 9.9999999999999982  0.26179938779914186 10.000000000000023  0.52359858417447247 9.9889833823175262  0.78539827667527184 9.9669336432482414  1.0471976367167073 9.9361716627328232  1.3089969389957603 9.9010998710543543  1.5707963267948932 9.8660254037844428 
 3.1415926535897931 7 4.7123889803846897 7
1 0 0 0 1 
1 0 -0.49999999999999989 1 0 
8 0 1.5707963267948966
1 0 16 1 0 
8 0 1.5707963267948966
1 0 0 0 1 
1 0 0 1 0 
1 0 -0.5 1 0 
8 0 1.5707963267948966
1 1.5707963267948937 0 0 1 
8 0 1.5707963267948966
1 0 0 1 0 
1 0 0 0 1 
1 0 -0.49999999999999989 1 0 
8 0 1.5707963267948966
1 0 3 1 0 
8 0 1.5707963267948966
1 0 0 0 1 
1 0 0 1 0 
1 0 -0.5 1 0 
8 0 1.5707963267948966
1 1.5707963267948948 0 0 1 
8 0 1.5707963267948966
1 0 0 1 0 
1 0 0 0 1 
1 0 -0.49999999999999989 1 0 
8 0 1.5707963267948966
1 0 14.158497258113009 1 0 
8 0 1.5707963267948966
1 0 3.1415926535897931 0 1 
1 0 3.1415926535897931 1 0 
1 0 -0.5 1 0 
8 3.1415926535897931 4.7123889803846897
1 0.62831853071793975 0 0 1 
8 3.1415926535897931 4.7123889803846897
1 -3.1415926535897931 3.5527136788005009e-15 1 0 
1 0 0 0 1 
1 -3.5527136788005009e-15 -0.49999999999999989 1 0 
8 0 1.5707963267948966
1 0 19.441292111018548 1 0 
8 0 1.5707963267948966
1 0 0 0 1 
1 0 0 1 0 
1 0 -0.5 1 0 
8 0 1.5707963267948966
1 1.1519173063162491 0 0 1 
8 0 1.5707963267948966
1 0 0 1 0 
1 0 0 0 1 
1 0 -0.49999999999999989 1 -0 
8 0 1.5707963267948966
1 0 9.0826432143713696 1 0 
8 0 1.5707963267948966
1 -1.7763568394002047e-15 3.1415926535897931 0 1 
1 0 3.1415926535897931 1 0 
1 1.7763568394002047e-15 -0.5 1 0 
8 3.1415926535897931 4.7123889803846897
1 0.52359877559828383 0 0 1 
8 3.1415926535897931 4.7123889803846897
1 -3.1415926535897931 0 1 0 
1 0 0 0 1 
1 0 -0.49999999999999989 1 0 
7 0 0  6 7 2  1.1102230246251565e-16 13.839745962155609  0.26179938779916001 13.839745962155609  0.52359858417441607 13.850762579837655  0.78539827667545437 13.872812318907503  1.0471976367168414 13.903574299422207  1.3089969389957392 13.93864609110137  1.5707963267948968 13.973720558371173 
 3.1415926535897931 7 4.7123889803846897 7
7 0 0  6 7 2  0 -1.762479051592436e-15  0.2617993877991428 -1.9179819960022199e-15  0.52359858417442184 -0.011016617682407607  0.7853982766754134 -0.033066356751657686  1.0471976367167084 -0.063828337267016297  1.3089969389957639 -0.098900128945692334  1.5707963267948968 -0.13397459621556257 
 3.1415926535897931 7 4.7123889803846897 7
1 1.7721542475852254 0 0 -1 
1 0 0 1 0 
1 0 0 0 -1 
1 1.8791131332382169 0 0 -1 
1 0 0 1 0 
1 0 0 0 -1 
1 1.2624795203515744 0 0 -1 
1 0 0 1 0 
1 0 0 0 -1 
1 0 0 1 0 
8 0 1.5707963267948966
1 0 8.3407814945934291 1 0 
8 0 1.5707963267948966
1 0 0 0 1 
1 0 0 1 0 
1 0 -6.5 1 0 
8 3.1415926535897931 4.7123889803846897
1 0.52359877559828383 0 0 1 
8 3.1415926535897931 4.7123889803846897
1 -3.1415926535897931 0 1 0 
1 0 0 0 1 
1 0 -6.5 1 0 
8 0 1.5707963267948966
1 0 9.0826432143713696 1 0 
8 0 1.5707963267948966
1 -1.7763568394002047e-15 3.1415926535897931 0 1 
1 0 3.1415926535897931 1 0 
1 1.7763568394002047e-15 -6.5 1 0 
8 0 1.5707963267948966
1 1.1519173063162491 0 0 1 
8 0 1.5707963267948966
1 0 0 1 0 
1 0 0 0 1 
1 0 -6.5 1 -0 
8 0 1.5707963267948966
1 0 19.441292111018548 1 0 
8 0 1.5707963267948966
1 0 0 0 1 
1 0 0 1 0 
1 0 -6.5 1 0 
8 3.1415926535897931 4.7123889803846897
1 0.62831853071793975 0 0 1 
8 3.1415926535897931 4.7123889803846897
1 -3.1415926535897931 3.5527136788005009e-15 1 0 
1 0 0 0 1 
1 -3.5527136788005009e-15 -6.5000000000000009 1 0 
8 0 1.5707963267948966
1 0 14.158497258113009 1 0 
8 0 1.5707963267948966
1 0 3.1415926535897931 0 1 
1 0 3.1415926535897931 1 0 
1 0 -6.5 1 0 
8 0 1.5707963267948966
1 1.5707963267948948 0 0 1 
8 0 1.5707963267948966
1 0 0 1 0 
1 0 0 0 1 
1 0 -6.5 1 0 
8 0 1.5707963267948966
1 0 3 1 0 
8 0 1.5707963267948966
1 0 0 0 1 
1 0 0 1 0 
1 0 -6.5 1 0 
8 0 1.5707963267948966
1 1.5707963267948937 0 0 1 
8 0 1.5707963267948966
1 0 0 1 0 
1 0 0 0 1 
1 0 -6.5 1 0 
8 0 1.5707963267948966
1 0 16 1 0 
8 0 1.5707963267948966
1 0 0 0 1 
1 0 0 1 0 
1 0 -6.5 1 0 
7 0 0  6 7 2  2.2204460492503131e-16 -3.5527136788005009e-15  0.26179938779914486 -3.3547688510495973e-15  0.52359858417442395 0.011016617682424738  0.78539827667540241 0.033066356751632539  1.0471976367167282 0.06382833726701917  1.3089969389957565 0.098900128945687352  1.5707963267948968 0.13397459621555902 
 3.1415926535897931 7 4.7123889803846897 7
7 0 0  6 7 2  -1.1102230246251565e-16 9.9999999999999982  0.26179938779914314 10.000000000000023  0.52359858417453187 9.9889833823176115  0.785398276675079 9.9669336432477742  1.0471976367167899 9.9361716627330274  1.3089969389957536 9.901099871054349  1.5707963267948932 9.8660254037844428 
 3.1415926535897931 7 4.7123889803846897 7
1 0 0 0 1 
1 0 -6.5 1 0 
1 0 0 0 1 
1 1.7763568394002505e-15 -6.5 1 0 
1 0 0 0 -1 
1 0 0 0 -1 
1 1.5707963267948937 0 0 -1 
1 0 0 0 -1 
1 1.5707963267948948 0 0 -1 
1 0 0 0 -1 
1 0.62831853071793975 0 0 -1 
1 0 0 0 -1 
1 1.1519173063162491 0 0 -1 
1 0 0 0 -1 
1 0.5235987755982856 0 0 -1 
Curves 149
1 6.5 -8.2540024932674096e-16 0 0 0 1 
1 6.5 0 0.49999999999999989 0 1 0 
1 6.5 0 6.5 0 1 0 
1 6.5 4 0 0 0 1 
7 0 0  7 26 5  -6.193497006628224 1.9724590816762804 0.49999994325806857  -6.190121284028768 1.9830588084723824 0.49691475151731479  -6.1867244544828797 1.9936516167231357 0.49382933758531217  -6.1833064119939118 2.0042378392503237 0.49074427731604825  -6.179867256238305 2.0148171622705324 0.48765933539274287  -6.1764069317728501 2.0253897580044304 0.48457488809523669  -6.1729254721031568 2.0359555189475556 0.48149096717436346  -6.1136344814573826 2.2146941510889113 0.42929898948497119  -6.0525382674973693 2.3809765728796148 0.38041368769009809  -5.9861122810860872 2.5454735532795127 0.33225625967229661  -5.9143220939129497 2.7081731906108937 0.28536975568685302  -5.8371524378362425 2.8689476208887115 0.24037406919232041  -5.7546456247193731 3.0275590008575342 0.19800583719203893  -5.5904348159500987 3.3198555487056804 0.12526941588718768  -5.5101272649843267 3.4538613092735657 0.094129308779140164  -5.4258681002586853 3.5859682974569989 0.066190318825402758  -5.3376110607307075 3.7161182801499963 0.042107878095232441  -5.2455024274838777 3.843963717323855 0.022760365081246924  -5.1499754439892254 3.9688800158251807 0.0092728209979388351  -5.038752626524329 4.1062651942085671 0.002175435965461972  -5.0254769791921934 4.1225375623332479 0.0014629464463304168  -5.0121542538434536 4.1387424628195095 0.00088548459119107317  -4.9987864787611027 4.1548779137476739 0.00044666227818160927  -4.9853758764738156 4.1709417960874386 0.00015021462721907339  -4.9719248637559383 4.1869318536978719 -1.0393282023052427e-16  -4.9584360516274915 4.202845693327415 -1.1102230246251565e-16 
 0 8 0.030581744341991658 6 0.51767909307311766 6 0.94264188679558647 6 1 8
2 0 0 0 0 0 1 1 0 0 0 1 0 6.5
1 6.5 0 0 0 0 1 
2 0 0 0 0 0 1 1 0 0 0 1 0 6.5
7 0 0  7 20 4  6.5 0 6.4999999908749393  6.4999999469135519 0.18365128548095036 6.5509358545486833  6.4939464813047199 0.36707073966226966 6.6018066169819791  6.4818660916374284 0.55042644800818441 6.6520638505043266  6.4637192444006528 0.73373656052315073 6.701117170636075  6.4394443300271949 0.9168733322485767 6.7482896795870539  6.4090058322731958 1.0995621220760567 6.7927744039338123  6.3407274091658126 1.4391196244826765 6.8690055355450736  6.3044667315997254 1.5958769506654058 6.9015848908024484  6.2635979606899346 1.752017301056412 6.9308546060804712  6.2180475262553125 1.9075081098147191 6.956113986547698  6.1678443923724355 2.0619484681700917 6.9764156648910145  6.1132242232518914 2.2145509927856302 6.9905378518745831  6.0472215002365299 2.3836010581972311 6.9978245588047754  6.0395097832443474 2.403134703079004 6.9985370500214694  6.0317327345917819 2.4226183476729863 6.9991145132614765  6.0238916855000406 2.4420494880138852 6.9995533366338494  6.0159881106702064 2.4614254305453969 6.9998497850052575  6.0080236282832464 2.4807432921202084 7  6 2.4999999999999996 7 
 0 8 0.50472412304050918 6 0.94263142839932512 6 1 8
2 0 0 7 0 0 -1 1 0 0 0 -1 0 6.5
7 0 0  7 26 5  -6.193497006628224 1.9724590816762804 6.500000056741932  -6.1901212842545883 1.9830588077697648 6.5030852482780048  -6.1867244542898305 1.9936516173189787 6.5061706625883806  -6.1833064120568437 2.0042378390725655 6.509255722631746  -6.1798672559440719 2.0148171631523808 6.5123406648649347  -6.1764069320273078 2.0253897572340849 6.5154251116798578  -6.1729254721273659 2.0359555188745762 6.518509032804328  -6.1136344814574795 2.2146941510886218 6.5707010105149442  -6.0525382674975106 2.380976572879284 6.6195863123097931  -5.9861122810860286 2.5454735532797597 6.6677437403277979  -5.9143220939126531 2.7081731906115185 6.7146302443133283  -5.8371524378361261 2.868947620888803 6.7596259308076707  -5.7546456247198856 3.0275590008566229 6.8019941628077349  -5.5904348159494948 3.3198555487067551 6.874730584113081  -5.5101272649841366 3.4538613092736283 6.9058706912208123  -5.4258681002605949 3.5859682974542082 6.9338096811740453  -5.3376110607291647 3.7161182801524331 6.9578921219053322  -5.2455024274838253 3.8439637173237489 6.9772396349186199  -5.1499754439894776 3.9688800158248689 6.9907271790020458  -5.038752626524329 4.1062651942085671 6.9978245640345387  -5.0254769791921943 4.1225375623332479 6.9985370535536697  -5.0121542538434536 4.1387424628195095 6.9991145154088104  -4.9987864787611027 4.1548779137476739 6.9995533377218209  -4.9853758764738156 4.1709417960874386 6.9998497853727821  -4.9719248637559375 4.1869318536978728 7.0000000000000009  -4.9584360516274915 4.202845693327415 7.0000000000000009 
 0 8 0.030581744546921988 6 0.51767909317465477 6 0.94264188680779148 6 1 8
1 -6.1934970066282258 1.9724590816762788 0 0 0 1 
2 6 4 0.49999999999999989 0 1 0 1 0 -0 -0 0 -1 0.5
1 6 0 -1.1102230246251565e-16 0 1 0 
7 0 0  7 20 4  6.5 0 0.50000000912506026  6.4999999469135243 0.18365128548214332 0.44906414545095685  6.4939464813046852 0.36707073966090664 0.3981933830184769  6.4818660916376487 0.55042644800724838 0.34793614949585444  6.4637192444005596 0.73373656052462655 0.2988828293634907  6.4394443300267872 0.91687333225015188 0.25171032041265018  6.4090058322736088 1.0995621220740051 0.20722559606664784  6.3407274091661066 1.4391196244812134 0.13099446445525414  6.3044667315996099 1.5958769506664519 0.098415109197228415  6.2635979606891246 1.7520173010591362 0.069145393919124665  6.2180475262558854 1.9075081098120525 0.043886013452911272  6.1678443923730208 2.0619484681690285 0.023584335108862212  6.1132242232513478 2.2145509927870242 0.0094621481253570148  6.0472215002365299 2.3836010581972311 0.0021754411952244995  6.0395097832443474 2.403134703079004 0.0014629499785309551  6.0317327345917819 2.4226183476729863 0.00088548673852272897  6.0238916855000406 2.4420494880138848 0.00044666336615111212  6.0159881106702064 2.461425430545396 0.00015021499474279857  6.0080236282832464 2.4807432921202079 -1.1102230246251565e-16  6 2.4999999999999996 -1.1102230246251565e-16 
 0 8 0.50472412304537839 6 0.94263142839941605 6 1 8
2 6 4 6.5 -0 -1 -0 1 0 -0 0 -0 1 0.5
1 6 0 7 0 1 0 
2 7.5 4.0000000000000009 0.5 -0 -0 -1 -1 -8.8817841970012523e-16 0 -8.8817841970012523e-16 1 0 0.99999999999999911
2 7.5 4.0000000000000009 6.5 -0 -0 -1 -1 -8.8817841970012523e-16 0 -8.8817841970012523e-16 1 0 0.99999999999999911
1 7.5 5 0 0 0 1 
1 -3.2218304181963626 11.303455243334811 0.49999999999999989 -0.30345524333481205 -0.9528456933274192 0 
1 -2.7454075715326529 11.151727621667405 -1.1102230246251565e-16 -0.30345524333481205 -0.9528456933274192 0 
2 -2.7454075715326507 11.151727621667405 0.5 -0.30345524333481211 -0.9528456933274192 0 -0.9528456933274192 0.30345524333481211 0 -0 0 -1 0.5
1 21.589745962155611 5.4330127018922187 -1.1102230246251565e-16 0.86602540378443871 -0.49999999999999989 0 
1 30 0.49999999999999983 -1.1102230246251565e-16 1 0 0 
2 46 1.0000000000000031 0 0 0 1 0 -1 0 1 0 -0 0.50000000000000133
1 46.5 1.0000000000000002 -1.1102230246251565e-16 0 1 0 
2 46 3.9999999999999982 0 0 0 1 1 1.7763568394002505e-15 -0 -1.7763568394002505e-15 1 0 0.50000000000000067
1 46 4.5 -1.1102230246251565e-16 -1 0 0 
2 31.841502741886998 6.0000000000000302 0 -0 -0 -1 -7.1054273576007936e-15 -1 0 -1 7.1054273576007936e-15 0 1.5000000000000295
1 30.959824863448286 4.7864745084375802 -1.1102230246251565e-16 -0.80901699437494756 0.58778525229247314 0 
2 14.937596526880446 15.809270799616797 0 0 0 1 0.5877852522924687 0.80901699437495067 -0 -0.80901699437495067 0.5877852522924687 0 0.50000000000000688
1 14.687596526880446 16.242283501509025 -1.1102230246251565e-16 -0.86602540378443871 -0.5 0 
2 6.0717967697244841 13.000000000000025 0 -0 -0 -1 0.49999999999999234 -0.86602540378444315 0 -0.86602540378444315 -0.49999999999999234 0 1.5000000000000246
1 6.0717967697244886 11.5 -1.1102230246251565e-16 -1 0 0 
2 -2.2689847248689397 10.999999999999998 0 0 0 1 -1.3322676295501855e-15 1 0 -1 -1.3322676295501855e-15 0 0.50000000000000155
2 7.5 4.0000000000000009 0 -0 -0 -1 -1 -8.8817841970012523e-16 0 -8.8817841970012523e-16 1 0 1.4999999999999991
1 7.5 5.5 -1.1102230246251565e-16 1 0 0 
1 7.5 5.5 7 1 0 0 
2 7.5 4.0000000000000009 7 -0 -0 -1 -1 -8.8817841970012523e-16 0 -8.8817841970012523e-16 1 0 1.4999999999999991
2 3.6592000578183144 6.5467743917796994 2 0 0 1 -0.4878933410424412 -0.87290325223729359 0 0.87290325223729359 -0.4878933410424412 0 1.0000000000000009
1 4.6120457511457342 6.2433191484448862 2 0.30345524333481189 0.9528456933274192 0 
2 4.4404851904592775 9 2 -0 0 1 0.95284569332741942 -0.30345524333481116 0 0.30345524333481116 0.95284569332741942 0 1.0000000000000007
1 4.4404851904592784 10 2 -1 0 0 
2 -0.80695417460682117 9 2 0 0 1 -5.5511151231257827e-16 1 0 -1 -5.5511151231257827e-16 0 1
1 -1.7597998679342408 9.3034552433348114 2 -0.30345524333481183 -0.9528456933274192 0 
2 -1.3220655610308314 7.3825566474180357 2 0 0 1 -0.95284569332741909 0.30345524333481239 0 -0.30345524333481239 -0.95284569332741909 0 0.99999999999999989
1 -2.7454075715326529 11.151727621667405 7.0000000000000009 -0.30345524333481205 -0.9528456933274192 0 
2 -2.2689847248689397 10.999999999999998 7 0 0 1 -1.3322676295501855e-15 1 0 -1 -1.3322676295501855e-15 0 0.50000000000000155
1 6.0717967697244886 11.5 7 -1 0 0 
2 6.0717967697244841 13.000000000000025 7 -0 -0 -1 0.49999999999999234 -0.86602540378444315 0 -0.86602540378444315 -0.49999999999999234 0 1.5000000000000246
1 14.687596526880446 16.242283501509025 7 -0.86602540378443871 -0.5 0 
2 14.937596526880446 15.809270799616797 7 0 0 1 0.5877852522924687 0.80901699437495067 -0 -0.80901699437495067 0.5877852522924687 0 0.50000000000000688
1 30.959824863448286 4.7864745084375802 7.0000000000000009 -0.80901699437494756 0.58778525229247314 0 
2 31.841502741886998 6.0000000000000302 7 -0 -0 -1 -7.1054273576007936e-15 -1 0 -1 7.1054273576007936e-15 0 1.5000000000000295
1 46 4.5 7 -1 0 0 
2 46 3.9999999999999982 7 0 0 1 1 1.7763568394002505e-15 -0 -1.7763568394002505e-15 1 0 0.50000000000000067
1 46.5 1.0000000000000002 7 0 1 0 
2 46 1.0000000000000031 7 0 0 1 0 -1 0 1 0 -0 0.50000000000000133
1 30 0.49999999999999983 7 1 0 0 
1 21.589745962155611 5.4330127018922187 7 0.86602540378443871 -0.49999999999999989 0 
1 -1.1457901528933863 6.3982157610956314 2 0 0 1 
1 3.1713067167758728 5.6738711395424053 2 0 0 1 
2 1.0697024978014888e-15 6.1979148199930924e-15 2 0 0 -1 -0.17627540813744438 0.9843408863224048 0 0.9843408863224048 0.17627540813744438 0 6.4999999999999938
1 -3.2218304181963626 11.303455243334811 6.5000000000000009 -0.30345524333481205 -0.9528456933274192 0 
2 -2.7454075715326507 11.151727621667405 6.5 0.30345524333481211 0.9528456933274192 -0 -0.9528456933274192 0.30345524333481211 0 0 0 1 0.5
1 -3.2218304181963608 11.303455243334811 0 0 0 1 
2 7.5000000000000009 5.5 0.5 1 -8.2694607974275766e-16 0 8.2694607974275766e-16 1 0 -0 0 1 0.5
2 7.5000000000000009 5.5 6.5 -1 8.2694607974275766e-16 0 8.2694607974275766e-16 1 0 0 0 -1 0.5
1 7.5 5 0.49999999999999989 1 0 0 
1 7.5 5 6.5 1 0 0 
1 21.339745962155611 5 0 0 0 1 
2 -2.2689847248689405 11.5 0.49999999999999989 -1 0 0 0 1 -0 -0 0 -1 0.5
2 -2.2689847248689397 10.999999999999998 0.5 0 0 1 -1.3322676295501855e-15 1 0 -1 -1.3322676295501855e-15 0 1.0000000000000016
8 3.1415926535897931 4.7123889803846897
3 21.47372055837117 5.5 0.49999999999999989 0.96592582628906831 -0.25881904510252068 0 0.25881904510252068 0.96592582628906831 0 -0 0 1 0.51763809020504148 0.5
1 21.339745962155611 4.9999999999999991 0.49999999999999989 0.86602540378443871 -0.49999999999999989 0 
8 3.1415926535897931 4.7123889803846897
3 30.133974596215559 0.49999999999999989 0.49999999999999989 0.96592582628906831 -0.25881904510252068 0 0.25881904510252068 0.96592582628906831 0 -0 0 1 0.51763809020504148 0.5
1 30 -1.1102230246251565e-16 0.49999999999999989 1 0 0 
2 46 0.49999999999999989 0.49999999999999989 1 0 0 0 -1 -0 0 0 -1 0.5
2 46 1.0000000000000031 0.5 0 0 1 0 -1 0 1 0 -0 1.0000000000000013
2 46.5 1.0000000000000016 0.5 2.9478122039827746e-15 1 -0 1 -2.9478122039827746e-15 0 0 -0 -1 0.5
1 47 1.0000000000000002 0.49999999999999989 0 1 0 
2 46.5 4 0.49999999999999989 0 1 0 1 0 -0 -0 0 -1 0.5
2 46 3.9999999999999982 0.5 0 0 1 1 1.7763568394002505e-15 -0 -1.7763568394002505e-15 1 0 1.0000000000000007
2 46 4.4999999999999991 0.5 -1 6.1232339957367574e-17 0 6.1232339957367574e-17 1 -0 -0 0 -1 0.5
1 46 5 0.49999999999999989 -1 0 0 
2 31.841502741886991 4.5 0.49999999999999989 -1 0 0 0 1 -0 -0 0 -1 0.5
2 31.841502741886998 6.0000000000000302 0.5 -0 -0 -1 -7.1054273576007936e-15 -1 0 -1 7.1054273576007936e-15 0 1.0000000000000295
2 30.959824863448286 4.7864745084375748 0.5 -0.80901699437495433 0.58778525229246359 0 -0.58778525229246359 -0.80901699437495433 0 0 0 1 0.5
1 31.253717489594521 5.1909830056250543 0.49999999999999989 -0.80901699437494756 0.58778525229247314 0 
2 15.231489153026681 16.213779296804283 0.49999999999999989 -0.80901699437494756 0.58778525229247314 0 0.58778525229247314 0.80901699437494756 0 0 0 -1 0.5
2 14.937596526880446 15.809270799616797 0.5 0 0 1 0.5877852522924687 0.80901699437495067 -0 -0.80901699437495067 0.5877852522924687 0 1.0000000000000069
2 14.687596526880444 16.242283501509025 0.5 -0.86602540378444015 -0.4999999999999975 0 -0.4999999999999975 0.86602540378444015 0 -0 0 -1 0.5
1 14.437596526880446 16.675296203401246 0.49999999999999989 -0.86602540378443871 -0.5 0 
2 6.8217967697244886 11.70096189432334 0.49999999999999989 -0.86602540378443871 -0.5 0 -0.5 0.86602540378443871 0 -0 0 -1 0.5
2 6.0717967697244841 13.000000000000025 0.5 -0 -0 -1 0.49999999999999234 -0.86602540378444315 0 -0.86602540378444315 -0.49999999999999234 0 1.0000000000000246
2 6.071796769724493 11.5 0.5 -1 -6.1617377866696188e-15 0 6.1617377866696188e-15 -1 0 0 0 1 0.5
1 6.0717967697244886 12 0.49999999999999989 -1 0 0 
8 3.1415926535897931 4.7123889803846897
3 21.47372055837117 5.5 6.5 -0.96592582628906831 0.25881904510252068 -0 0.25881904510252068 0.96592582628906831 0 0 0 -1 0.51763809020504148 0.5
1 4.6120457511457342 6.2433191484448862 2 0 0 1 
2 3.6592000578183144 6.5467743917796994 2 0 0 1 -0.4878933410424412 -0.87290325223729359 0 0.87290325223729359 -0.4878933410424412 0 1.0000000000000009
1 5.3933308837866978 8.6965447566651886 2 0 0 1 
1 4.6120457511457342 6.2433191484448862 2 0.30345524333481189 0.9528456933274192 0 
1 4.4404851904592784 10 2 0 0 1 
2 4.4404851904592775 9 2 -0 0 1 0.95284569332741942 -0.30345524333481116 0 0.30345524333481116 0.95284569332741942 0 1.0000000000000007
1 -0.80695417460682173 10 2 0 0 1 
1 4.4404851904592784 10 2 -1 0 0 
1 -1.7597998679342406 9.3034552433348114 2 0 0 1 
2 -0.80695417460682117 9 2 0 0 1 -5.5511151231257827e-16 1 0 -1 -5.5511151231257827e-16 0 1
1 -2.2749112543582504 7.6860118907528481 2 0 0 1 
1 -1.7597998679342408 9.3034552433348114 2 -0.30345524333481183 -0.9528456933274192 0 
2 -1.3220655610308314 7.3825566474180357 2 0 0 1 -0.95284569332741909 0.30345524333481239 0 -0.30345524333481239 -0.95284569332741909 0 0.99999999999999989
2 -2.2689847248689405 11.5 6.5 1 -0 -0 0 1 0 0 -0 1 0.5
2 -2.2689847248689397 10.999999999999998 6.5 0 0 1 -1.3322676295501855e-15 1 0 -1 -1.3322676295501855e-15 0 1.0000000000000016
2 6.071796769724493 11.5 6.5 1 6.1617377866696188e-15 -0 6.1617377866696188e-15 -1 0 0 -0 -1 0.5
1 6.0717967697244886 12 6.5 -1 0 0 
2 6.8217967697244886 11.70096189432334 6.5 0.86602540378443871 0.5 -0 -0.5 0.86602540378443871 0 0 0 1 0.5
2 6.0717967697244841 13.000000000000025 6.5 -0 -0 -1 0.49999999999999234 -0.86602540378444315 0 -0.86602540378444315 -0.49999999999999234 0 1.0000000000000246
2 14.687596526880444 16.242283501509025 6.5 0.86602540378444015 0.4999999999999975 -0 -0.4999999999999975 0.86602540378444015 0 0 0 1 0.5
1 14.437596526880446 16.675296203401246 6.5 -0.86602540378443871 -0.5 0 
2 15.231489153026681 16.213779296804283 6.5000000000000009 0.80901699437494756 -0.58778525229247314 -0 0.58778525229247314 0.80901699437494756 0 0 -0 1 0.5
2 14.937596526880446 15.809270799616797 6.5 0 0 1 0.5877852522924687 0.80901699437495067 -0 -0.80901699437495067 0.5877852522924687 0 1.0000000000000069
2 30.959824863448286 4.7864745084375748 6.5 0.80901699437495433 -0.58778525229246359 0 -0.58778525229246359 -0.80901699437495433 0 0 -0 -1 0.5
1 31.253717489594521 5.1909830056250543 6.5000000000000009 -0.80901699437494756 0.58778525229247314 0 
2 31.841502741886991 4.5 6.5 1 -0 -0 0 1 0 0 -0 1 0.5
2 31.841502741886998 6.0000000000000302 6.5 -0 -0 -1 -7.1054273576007936e-15 -1 0 -1 7.1054273576007936e-15 0 1.0000000000000295
2 46 4.4999999999999991 6.5 1 -6.1232339957367574e-17 0 6.1232339957367574e-17 1 0 -0 0 1 0.5
1 46 5 6.5 -1 0 0 
2 46.5 4 6.5 -0 -1 -0 1 0 -0 0 -0 1 0.5
2 46 3.9999999999999982 6.5 0 0 1 1 1.7763568394002505e-15 -0 -1.7763568394002505e-15 1 0 1.0000000000000007
2 46.5 1.0000000000000016 6.5 -2.9478122039827746e-15 -1 0 1 -2.9478122039827746e-15 0 0 0 1 0.5
1 47 1.0000000000000002 6.5 0 1 0 
2 46 0.49999999999999989 6.5 -1 -0 -0 0 -1 0 -0 0 1 0.5
2 46 1.0000000000000031 6.5 0 0 1 0 -1 0 1 0 -0 1.0000000000000013
8 3.1415926535897931 4.7123889803846897
3 30.133974596215559 0.49999999999999989 6.5 -0.96592582628906831 0.25881904510252068 -0 0.25881904510252068 0.96592582628906831 0 0 0 -1 0.51763809020504148 0.5
1 30 -1.1102230246251565e-16 6.5 1 0 0 
1 21.339745962155611 4.9999999999999991 6.5 0.86602540378443871 -0.49999999999999989 0 
1 -2.268984724868941 12 0 0 0 1 
1 30 0 0 0 0 1 
1 46 8.8817841970012523e-16 0 0 0 1 
1 47 1.0000000000000002 0 0 0 1 
1 47 4 0 0 0 1 
1 46 5 0 0 0 1 
1 31.841502741886991 5 0 0 0 1 
1 31.253717489594518 5.1909830056250517 0 0 0 1 
1 15.525381779172919 16.618287793991755 0 0 0 1 
1 14.437596526880446 16.675296203401246 0 0 0 1 
1 6.5717967697244886 12.133974596215561 0 0 0 1 
1 6.0717967697244886 12 0 0 0 1 
Polygon3D 0
PolygonOnTriangulations 0
Surfaces 66
1 6.5 0 0 -1 0 0 0 1 0 0 0 -1 
2 -4.8237516398946134e-16 6.5208479058934256e-16 0 -0 -0 -1 -0.9528456933274192 0.30345524333481205 0 -0.30345524333481205 -0.9528456933274192 0 6.5000000000000009
2 0 0 0 -0 -0 -1 1 0 0 0 1 0 6.5
2 6 0 0.49999999999999989 0 1 0 1 0 -0 -0 0 -1 0.5
2 6 0 6.5 0 1 0 1 0 -0 0 -0 1 0.5
2 7.4999999999999991 4.0000000000000009 0 0 0 -1 -1 -8.8817841970012602e-16 -0 -8.8817841970012602e-16 1 0 0.99999999999999911
2 -2.7454075715326529 11.151727621667405 0.49999999999999989 -0.30345524333481205 -0.9528456933274192 0 -0.9528456933274192 0.30345524333481205 0 -0 0 -1 0.5
1 18.11942557683248 4.942531130273605 0 0 0 1 1 0 0 0 1 0 
2 1.0697024978014888e-15 6.1979148199930924e-15 2 0 0 -1 -0.17627540813744438 0.9843408863224048 0 0.9843408863224048 0.17627540813744438 0 6.4999999999999938
2 -2.7454075715326529 11.151727621667405 6.5000000000000009 -0.30345524333481205 -0.9528456933274192 0 -0.9528456933274192 0.30345524333481205 0 0 -0 1 0.5
1 -3.2218304181963604 11.303455243334811 0 0.9528456933274192 -0.30345524333481205 0 -0.30345524333481205 -0.9528456933274192 0 0 0 -1 
5 7.5 4.0000000000000009 0.5 0 0 1 -1 -8.8817841970012523e-16 0 -8.8817841970012523e-16 1 -0 1.4999999999999991 0.5
1 18.11942557683248 4.942531130273605 0 0 0 1 1 0 0 0 1 0 
5 7.5 4.0000000000000009 6.5 -0 -0 -1 -1 -8.8817841970012523e-16 0 -8.8817841970012523e-16 1 0 1.4999999999999991 0.5
1 7.5 5 0 0 1 0 1 0 0 0 0 -1 
5 -2.2689847248689397 10.999999999999998 0.5 -0 -0 -1 -1.3322676295501855e-15 1 0 -1 -1.3322676295501855e-15 0 0.50000000000000155 0.5
1 18.11942557683248 4.942531130273605 0 0 0 1 1 0 0 0 1 0 
2 21.589745962155611 5.4330127018922187 0.49999999999999989 0.86602540378443871 -0.49999999999999989 0 -0.49999999999999989 -0.86602540378443871 0 0 -0 -1 0.5
2 30 0.49999999999999989 0.49999999999999989 1 0 0 0 -1 -0 0 0 -1 0.5
5 46 1.0000000000000031 0.5 -0 -0 -1 0 -1 0 1 -0 -0 0.50000000000000133 0.5
2 46.5 1.0000000000000002 0.49999999999999989 0 1 0 1 0 -0 -0 0 -1 0.5
5 46 3.9999999999999982 0.5 -0 -0 -1 1 1.7763568394002505e-15 -0 -1.7763568394002505e-15 1 -0 0.50000000000000067 0.5
2 46 4.5 0.49999999999999989 -1 0 0 0 1 -0 -0 0 -1 0.5
5 31.841502741886998 6.0000000000000302 0.5 0 0 1 -7.1054273576007936e-15 -1 0 -1 7.1054273576007936e-15 -0 1.5000000000000295 0.5
2 30.959824863448286 4.7864745084375802 0.49999999999999989 -0.80901699437494756 0.58778525229247314 0 0.58778525229247314 0.80901699437494756 0 0 0 -1 0.5
5 14.937596526880446 15.809270799616797 0.5 -0 -0 -1 0.5877852522924687 0.80901699437495067 -0 -0.80901699437495067 0.5877852522924687 -0 0.50000000000000688 0.5
2 14.687596526880446 16.242283501509025 0.49999999999999989 -0.86602540378443871 -0.5 0 -0.5 0.86602540378443871 0 -0 0 -1 0.5
5 6.0717967697244841 13.000000000000025 0.5 0 0 1 0.49999999999999234 -0.86602540378444315 0 -0.86602540378444315 -0.49999999999999234 0 1.5000000000000246 0.5
2 6.0717967697244886 11.5 0.49999999999999989 -1 0 0 0 1 -0 -0 0 -1 0.5
2 7.5 5.5 0.49999999999999989 1 0 0 0 -1 -0 0 0 -1 0.5
1 -4.207508100121302e-16 5.7616148020900052e-16 0 0 0 1 1 0 0 0 1 0 
2 7.5 5.5 6.5 1 0 0 0 -1 -0 -0 -0 1 0.5
2 3.6592000578183144 6.5467743917796994 2 -0 -0 -1 -0.4878933410424412 -0.87290325223729359 0 0.87290325223729359 -0.4878933410424412 0 1.0000000000000009
2 4.4404851904592775 9 2 -0 -0 -1 0.95284569332741942 -0.30345524333481116 0 0.30345524333481116 0.95284569332741942 0 1.0000000000000007
2 -0.80695417460682117 9 2 -0 -0 -1 -5.5511151231257827e-16 1 0 -1 -5.5511151231257827e-16 0 1
2 -1.3220655610308314 7.3825566474180357 2 -0 -0 -1 -0.95284569332741909 0.30345524333481239 0 -0.30345524333481239 -0.95284569332741909 0 0.99999999999999989
5 -2.2689847248689397 10.999999999999998 6.5 0 0 1 -1.3322676295501855e-15 1 0 -1 -1.3322676295501855e-15 0 0.50000000000000155 0.5
2 6.0717967697244886 11.5 6.5 -1 0 0 0 1 -0 0 -0 1 0.5
5 6.0717967697244841 13.000000000000025 6.5 -0 -0 -1 0.49999999999999234 -0.86602540378444315 0 -0.86602540378444315 -0.49999999999999234 0 1.5000000000000246 0.5
2 14.687596526880446 16.242283501509025 6.5 -0.86602540378443871 -0.5 0 -0.5 0.86602540378443871 0 0 -0 1 0.5
5 14.937596526880446 15.809270799616797 6.5 0 0 1 0.5877852522924687 0.80901699437495067 -0 -0.80901699437495067 0.5877852522924687 0 0.50000000000000688 0.5
2 30.959824863448286 4.7864745084375802 6.5000000000000009 -0.80901699437494756 0.58778525229247314 0 0.58778525229247314 0.80901699437494756 0 -0 -0 1 0.5
5 31.841502741886998 6.0000000000000302 6.5 -0 -0 -1 -7.1054273576007936e-15 -1 0 -1 7.1054273576007936e-15 0 1.5000000000000295 0.5
2 46 4.5 6.5 -1 0 0 0 1 -0 0 -0 1 0.5
5 46 3.9999999999999982 6.5 0 0 1 1 1.7763568394002505e-15 -0 -1.7763568394002505e-15 1 0 0.50000000000000067 0.5
2 46.5 1.0000000000000002 6.5 0 1 0 1 0 -0 0 -0 1 0.5
5 46 1.0000000000000031 6.5 0 0 1 0 -1 0 1 0 -0 0.50000000000000133 0.5
2 30 0.49999999999999989 6.5 1 0 0 0 -1 -0 -0 -0 1 0.5
2 21.589745962155611 5.4330127018922187 6.5 0.86602540378443871 -0.49999999999999989 0 -0.49999999999999989 -0.86602540378443871 0 -0 0 1 0.5
2 -2.2689847248689405 10.999999999999998 0 -0 -0 -1 -4.4408920985006183e-16 1 0 -1 -4.4408920985006183e-16 0 1.0000000000000016
1 21.339745962155611 5 0 0.49999999999999989 0.86602540378443871 0 0.86602540378443871 -0.49999999999999989 0 0 0 -1 
1 30 0 0 0 1 0 1 0 0 0 0 -1 
2 46 1.0000000000000031 0 -0 -0 -1 0 -1 0 1 0 0 1.0000000000000013
1 47 1.0000000000000002 0 -1 0 0 0 1 0 0 0 -1 
2 46 3.9999999999999982 0 -0 -0 -1 1 1.7763568394002505e-15 0 -1.7763568394002505e-15 1 0 1.0000000000000007
1 46 5 0 0 -1 0 -1 0 0 -0 -0 -1 
2 31.841502741886998 6.0000000000000302 0 0 0 -1 -7.1054273576007873e-15 -1 -0 -1 7.1054273576007873e-15 0 1.0000000000000295
1 31.253717489594518 5.1909830056250525 0 -0.58778525229247314 -0.80901699437494756 0 -0.80901699437494756 0.58778525229247314 0 0 0 -1 
2 14.937596526880446 15.809270799616799 0 -0 -0 -1 0.58778525229246958 0.80901699437495012 0 -0.80901699437495012 0.58778525229246958 0 1.0000000000000069
1 14.437596526880446 16.675296203401246 0 0.5 -0.86602540378443871 0 -0.86602540378443871 -0.5 0 0 0 -1 
2 6.0717967697244841 13.000000000000025 0 0 0 -1 0.49999999999999234 -0.86602540378444315 0 -0.86602540378444315 -0.49999999999999234 -0 1.0000000000000246
1 6.0717967697244886 12 0 0 -1 0 -1 0 0 -0 -0 -1 
1 4.6120457511457342 6.2433191484448862 2 -0.9528456933274192 0.30345524333481189 0 0.30345524333481189 0.9528456933274192 0 0 0 -1 
1 4.4404851904592784 10 2 0 -1 0 -1 0 0 -0 -0 -1 
1 -1.7597998679342408 9.3034552433348114 2 0.9528456933274192 -0.30345524333481183 0 -0.30345524333481183 -0.9528456933274192 0 0 0 -1 
1 1.6545622634438999 8.0442946267993971 1.9999999999999973 0 0 1 1 0 0 0 1 0 
Triangulations 0

TShapes 375
Ve
1.0912506026296e-07
6.5 -7.27090576285779e-16 0.5
0 0

0101101
*
Ve
1.09125060707049e-07
6.5 -7.27090576285779e-16 6.5
0 0

0101101
*
Ed
 1.00000000937284e-07 1 1 0
1  1 0 0.5 6.5
2  1 2 0 0.5 6.5
3.44990946003312 -0.5 3.44990946003312 -6.5
4 G1 1 0 2 0
3  2 3C0 3 0 0.5 6.5
6.28318530717959 -0.5 6.28318530717959 -6.5
0

0101000
+375 0 -374 0 *
Ve
1e-07
6.5 4 0.5
0 0

0101101
*
Ed
 1e-07 1 1 0
1  2 0 -8.25400249326741e-16 4
2  4 4 0 -8.25400249326741e-16 4
0 -8.25400249326741e-16 0 4
2  5 1 0 -8.25400249326741e-16 4
-8.25400249326741e-16 -0.5 4 -0.5
4 G1 4 0 1 0
0

0101000
+375 0 -372 0 *
Ve
1e-07
6.5 4 6.5
0 0

0101101
*
Ed
 1e-07 1 1 0
1  3 0 -8.25400249326741e-16 4
2  6 5 0 -8.25400249326741e-16 4
0 -8.25400249326741e-16 0 4
2  7 1 0 -8.25400249326741e-16 4
-8.25400249326741e-16 -6.5 4 -6.5
4 G1 5 0 1 0
0

0101000
+374 0 -370 0 *
Ed
 1e-07 1 1 0
1  4 0 0.5 6.5
2  8 6 0 0.5 6.5
0 -0.5 0 -6.5
4 C1 1 0 6 0
0

0101000
+372 0 -370 0 *
Wi

0101100
+373 0 -371 0 +369 0 -368 0 *
Fa
0  1e-07 1 0

0111000
+367 0 *
Ve
1.56741931320215e-07
-6.19349700662823 1.97245908167628 0.5
0 0

0101101
*
Ve
1.00000200746015e-07
-4.95843605162759 4.20284569332724 -5.55111512312578e-17
0 0

0101101
*
Ed
 1e-07 1 1 0
1  5 0 0 1
2  9 7 0 0 1
1.13483862666248e-07 9.79276731479353 1.5707963267949 7.29276731479354
2  10 3 0 0 1
2.83327584714647 -0.499999943258069 2.43848472744671 1.11022302462516e-16
2  11 2 0 0 1
0 -0.499999943258069 -0.39479111969976 1.11022302462516e-16
0

0101000
+365 0 -364 0 *
Ve
1e-07
6.5 0 0
0 0

0101101
*
Ed
 1e-07 1 1 0
1  6 0 2.43848472744674 6.28318530717959
2  12 3 0 2.43848472744674 6.28318530717959
2.43848472744674 0 6.28318530717959 0
2  13 2 0 2.43848472744674 6.28318530717959
-0.39479111969973 0 3.44990946003312 0
0

0101000
+364 0 -362 0 *
Ed
 1e-07 1 1 0
1  7 0 0 0.5
3  14 15CN 3 0 0 0.5
6.28318530717959 0 6.28318530717959 -0.5
3  16 17C0 2 0 0 0.5
3.44990946003312 0 3.44990946003312 -0.5
0

0101000
+362 0 -375 0 *
Ve
1e-07
6.5 0 9
0 0

0101101
*
Ed
 1e-07 1 1 0
1  7 0 6.5 9
3  14 15CN 3 0 6.5 9
6.28318530717959 -6.5 6.28318530717959 -9
3  18 19C0 2 0 6.5 9
3.44990946003312 -6.5 3.44990946003312 -9
0

0101000
+374 0 -359 0 *
Ed
 1e-07 1 1 0
1  8 0 0 6.28318530717959
2  20 3 2 0 6.28318530717959
0 -9 6.28318530717959 -9
2  21 2 2 0 6.28318530717959
-2.83327584714647 -9 3.44990946003312 -9
0

0101000
+359 2 -359 2 *
Ve
1.00000003233018e-07
6 2.5 7
0 0

0101101
*
Ed
 1e-07 1 1 0
1  9 0 0 1
2  22 5 0 0 1
-1.825012052592e-08 0 1.5707963267949 2.5
2  23 3 0 0 1
0 -6.49999999087494 0.394791119699761 -7
2  24 2 0 0 1
-2.83327584714647 -6.49999999087494 -2.43848472744671 -7
0

0101000
+374 0 -356 0 *
Ve
1.32973365660962e-05
3.17130671677587 5.67387113954241 7
0 0

0101101
*
Ed
 1e-07 1 1 0
1  10 0 5.22206370761834 5.88839418747982
2  25 8 3 5.22206370761834 5.88839418747982
-14.9481188600566 0.731340009268799 -12.1194255768325 -2.4425311302736
2  26 3 0 5.22206370761834 5.88839418747982
1.06112159956124 -7 0.394791119699762 -7
2  27 2 0 5.22206370761834 5.88839418747982
-1.77215424758523 -7 -2.43848472744671 -7
0

0101000
+354 0 -356 0 *
Ve
1.32973195374085e-05
-1.14579015289339 6.39821576109563 7
0 0

0101101
*
Ed
 1.00000000915513e-07 1 1 0
1  10 0 4.53518766453242 5.22206370761834
2  25 8 3 4.53518766453242 5.22206370761834
-19.2652157297259 1.45568463082203 -14.9481188600566 0.731340009268799
2  26 3 0 4.53518766453242 5.22206370761834
1.74799764264717 -7 1.06112159956124 -7
2  27 2 0 4.53518766453242 5.22206370761834
-1.08527820449931 -7 -1.77215424758523 -7
2  28 9 0 4.53518766453242 5.22206370761834
0 -5 0.686876043085922 -5
0

0101000
+352 0 -354 0 *
Ve
1.00000002808667e-07
-4.95843605162749 4.20284569332741 7
0 0

0101101
*
Ed
 1e-07 1 1 0
1  10 0 3.84470057973288 4.53518766453242
2  25 8 3 3.84470057973288 4.53518766453242
-23.07786162846 -0.739685436946194 -19.2652157297259 1.45568463082203
2  26 3 0 3.84470057973288 4.53518766453242
2.43848472744671 -7 1.74799764264717 -7
2  27 2 0 3.84470057973288 4.53518766453242
-0.39479111969976 -7 -1.08527820449931 -7
0

0101000
+350 0 -352 0 *
Ve
1.56741931153681e-07
-6.19349700662823 1.97245908167628 6.5
0 0

0101101
*
Ed
 1e-07 1 1 0
1  11 0 0 1
2  29 10 0 0 1
1.13483862666248e-07 9.79276731479353 1.5707963267949 7.29276731479354
2  30 3 0 0 1
2.83327584714647 -6.50000005674193 2.43848472744671 -7
2  31 2 0 0 1
0 -6.50000005674193 -0.39479111969976 -7
0

0101000
+348 0 -350 0 *
Ed
 1.00000002979041e-07 1 1 0
1  12 0 0.5 6.5
2  32 2 0 0.5 6.5
0 -0.5 0 -6.5
4 G1 11 0 2 0
2  33 3 0 0.5 6.5
2.83327584714647 -0.5 2.83327584714647 -6.5
0

0101000
+365 0 -348 0 *
Wi

0101100
-363 0 -361 0 -360 0 -373 0 -358 0 +357 1 +358 0 -355 0 +353 0 +351 0 
+349 0 +347 0 +346 0 *
Fa
0  1e-07 2 0

0111000
+345 0 *
Ve
1e-07
6 4 -1.11022302462516e-16
0 0

0101101
*
Ed
 1e-07 1 1 0
1  13 0 0 1.5707963267949
2  34 4 0 0 1.5707963267949
0 4 1.5707963267949 4
2  35 12 0 0 1.5707963267949
0 3.14159265358979 0 4.71238898038469
4 G1 4 0 12 0
0

0101000
+372 0 -343 0 *
Ve
1.00000137527922e-07
6.00000000000003 2.49999999999986 -5.55111512312578e-17
0 0

0101101
*
Ed
 1e-07 1 1 0
1  14 0 2.49999999999986 4
2  36 4 0 2.49999999999986 4
1.5707963267949 2.49999999999986 1.5707963267949 4
2  37 13 0 2.49999999999986 4
-12.1194255768325 -2.44253113027374 -12.1194255768325 -0.942531130273605
4 G1 4 0 13 0
0

0101000
+341 0 -343 0 *
Ed
 1e-07 1 1 0
1  15 0 0 1
2  38 4 0 0 1
-1.825012052592e-08 0 1.5707963267949 2.5
2  39 3 0 0 1
0 -0.50000000912506 0.394791119699761 1.11022302462516e-16
2  40 2 0 0 1
-2.83327584714647 -0.50000000912506 -2.43848472744671 1.11022302462516e-16
0

0101000
+375 0 -341 0 *
Wi

0101100
-371 0 -342 0 +340 0 +339 0 *
Fa
0  1e-07 4 0

0111000
+338 0 *
Ve
1e-07
6 4 7
0 0

0101101
*
Ed
 1e-07 1 1 0
1  16 0 0 1.5707963267949
2  41 5 0 0 1.5707963267949
0 4 1.5707963267949 4
2  42 14 0 0 1.5707963267949
0 3.14159265358979 0 4.71238898038469
4 G1 5 0 14 0
0

0101000
+370 0 -336 0 *
Ed
 1e-07 1 1 0
1  17 0 2.5 4
2  43 5 0 2.5 4
1.5707963267949 2.5 1.5707963267949 4
2  44 8 3 2.5 4
-12.1194255768325 -2.44253113027361 -12.1194255768325 -0.942531130273605
4 G1 5 0 8 3
0

0101000
+356 0 -336 0 *
Wi

0101100
-369 0 -335 0 +334 0 +355 0 *
Fa
0  1e-07 5 0

0111000
+333 0 *
Ve
1e-07
7.5 5 0.5
0 0

0101101
*
Ed
 1e-07 1 1 0
1  18 0 0 1.5707963267949
2  45 12 0 0 1.5707963267949
0 3.14159265358979 1.5707963267949 3.14159265358979
2  46 6 0 0 1.5707963267949
0 -0.5 1.5707963267949 -0.5
4 G1 12 0 6 0
0

0101000
+372 0 -331 0 *
Ve
1e-07
7.5 5 6.5
0 0

0101101
*
Ed
 1e-07 1 1 0
1  19 0 0 1.5707963267949
2  47 14 0 0 1.5707963267949
0 3.14159265358979 1.5707963267949 3.14159265358979
2  48 6 0 0 1.5707963267949
0 -6.5 1.5707963267949 -6.5
4 G1 14 0 6 0
0

0101000
+370 0 -329 0 *
Ed
 1e-07 1 1 0
1  20 0 0.5 6.5
2  49 6 0 0.5 6.5
1.5707963267949 -0.5 1.5707963267949 -6.5
4 C1 6 0 15 0
0

0101000
+331 0 -329 0 *
Wi

0101100
+368 0 -330 0 +328 0 -327 0 *
Fa
0  1e-07 6 0

0111000
+326 0 *
Ve
1.00000000222045e-07
-3.22183041819636 11.3034552433348 0.5
0 0

0101101
*
Ed
 1e-07 1 1 0
1  21 0 0 9.79276731479353
2  50 7 0 0 9.79276731479353
0 0 0 9.79276731479353
2  51 11 0 0 9.79276731479353
0 -0.5 9.79276731479353 -0.5
4 G1 7 0 11 0
0

0101000
+324 0 -365 0 *
Ve
1e-07
-2.74540757153265 11.1517276216674 0
0 0

0101101
*
Ed
 1e-07 1 1 0
1  22 0 0 7.29276731479374
2  52 7 0 0 7.29276731479374
1.5707963267949 0 1.5707963267949 7.29276731479374
2  53 13 0 0 7.29276731479374
-20.8648331483651 6.2091964913938 -23.07786162846 -0.73968543694638
4 G1 7 0 13 0
0

0101000
+322 0 -364 0 *
Ed
 1e-07 1 1 0
1  23 0 0 1.5707963267949
2  54 16 0 0 1.5707963267949
1.26247952035157 0 1.26247952035157 1.5707963267949
2  55 7 0 0 1.5707963267949
0 0 1.5707963267949 0
4 G1 16 0 7 0
0

0101000
+324 0 -322 0 *
Wi

0101100
-323 0 -363 0 +321 0 +320 0 *
Fa
0  1e-07 7 0

0111000
+319 0 *
Ve
5.33191519505031e-07
21.4737205583712 5.5 -1.11022302462516e-16
0 0

0101101
*
Ve
5.33191256262401e-07
30.1339745962156 0.5 -1.11022302462516e-16
0 0

0101101
*
Ed
 1e-07 1 1 0
1  24 0 -0.133974596215563 9.86602540378444
2  56 18 0 -0.133974596215563 9.86602540378444
1.5707963267949 -0.133974596215563 1.5707963267949 9.86602540378444
2  57 13 0 -0.133974596215563 9.86602540378444
3.35429498153869 0.557468869726395 12.0145490193831 -4.44253113027361
4 G1 18 0 13 0
0

0101000
+317 0 -316 0 *
Ve
1e-07
46 0.5 -1.11022302462516e-16
0 0

0101101
*
Ed
 1e-07 1 1 0
1  25 0 0.13397459621556 16
2  58 19 0 0.13397459621556 16
1.5707963267949 0.13397459621556 1.5707963267949 16
2  59 13 0 0.13397459621556 16
12.0145490193831 -4.44253113027361 27.8805744231675 -4.44253113027361
4 G1 19 0 13 0
0

0101000
+316 0 -314 0 *
Ve
1e-07
46.5 1 0
0 0

0101101
*
Ed
 1e-07 1 1 0
1  26 0 0 1.57079632679489
2  60 20 0 0 1.57079632679489
0 1.5707963267949 1.57079632679489 1.5707963267949
2  61 13 0 0 1.57079632679489
27.8805744231675 -4.4425311302736 28.3805744231675 -3.9425311302736
4 G1 20 0 13 0
0

0101000
+314 0 -312 0 *
Ve
1e-07
46.5 4 -1.11022302462516e-16
0 0

0101101
*
Ed
 1e-07 1 1 0
1  27 0 0 3
2  62 21 0 0 3
1.5707963267949 0 1.5707963267949 3
2  63 13 0 0 3
28.3805744231675 -3.94253113027361 28.3805744231675 -0.942531130273605
4 G1 21 0 13 0
0

0101000
+312 0 -310 0 *
Ve
1e-07
46 4.5 0
0 0

0101101
*
Ed
 1e-07 1 1 0
1  28 0 0 1.57079632679489
2  64 22 0 0 1.57079632679489
0 1.5707963267949 1.57079632679489 1.5707963267949
2  65 13 0 0 1.57079632679489
28.3805744231675 -0.942531130273606 27.8805744231675 -0.442531130273606
4 G1 22 0 13 0
0

0101000
+310 0 -308 0 *
Ve
1e-07
31.841502741887 4.5 -1.11022302462516e-16
0 0

0101101
*
Ed
 1e-07 1 1 0
1  29 0 0 14.158497258113
2  66 23 0 0 14.158497258113
1.5707963267949 0 1.5707963267949 14.158497258113
2  67 13 0 0 14.158497258113
27.8805744231675 -0.442531130273605 13.7220771650545 -0.442531130273605
4 G1 23 0 13 0
0

0101000
+308 0 -306 0 *
Ve
1e-07
30.9598248634483 4.78647450843757 0
0 0

0101101
*
Ed
 1e-07 1 1 0
1  30 0 0 0.62831853071794
2  68 24 0 0 0.62831853071794
0 4.71238898038469 0.62831853071794 4.71238898038469
2  69 13 0 0 0.62831853071794
13.7220771650545 -0.442531130273604 12.8403992866158 -0.15605662183603
4 G1 24 0 13 0
0

0101000
+306 0 -304 0 *
Ve
1e-07
15.2314891530267 16.2137792968043 -1.11022302462516e-16
0 0

0101101
*
Ed
 1e-07 1 1 0
1  31 0 3.5527136788005e-15 19.4412921110185
2  70 25 0 3.5527136788005e-15 19.4412921110185
1.5707963267949 3.5527136788005e-15 1.5707963267949 19.4412921110185
2  71 13 0 3.5527136788005e-15 19.4412921110185
12.8403992866158 -0.156056621836023 -2.8879364238058 11.2712481665307
4 G1 25 0 13 0
0

0101000
+304 0 -302 0 *
Ve
1e-07
14.6875965268804 16.242283501509 0
0 0

0101101
*
Ed
 1e-07 1 1 0
1  32 0 0 1.15191730631625
2  72 26 0 0 1.15191730631625
0 1.5707963267949 1.15191730631625 1.5707963267949
2  73 13 0 0 1.15191730631625
-2.8879364238058 11.2712481665307 -3.43182904995204 11.2997523712354
4 G1 26 0 13 0
0

0101000
+302 0 -300 0 *
Ve
1e-07
6.82179676972449 11.7009618943233 -1.11022302462516e-16
0 0

0101101
*
Ed
 1e-07 1 1 0
1  33 0 0 9.08264321437137
2  74 27 0 0 9.08264321437137
1.5707963267949 0 1.5707963267949 9.08264321437137
2  75 13 0 0 9.08264321437137
-3.43182904995203 11.2997523712354 -11.297628807108 6.75843076404974
4 G1 27 0 13 0
0

0101000
+300 0 -298 0 *
Ve
1e-07
6.07179676972449 11.5 0
0 0

0101101
*
Ed
 1e-07 1 1 0
1  34 0 -1.7763568394002e-15 0.523598775598284
2  76 28 0 -1.7763568394002e-15 0.523598775598284
-1.7763568394002e-15 4.71238898038469 0.523598775598284 4.71238898038469
2  77 13 0 -1.7763568394002e-15 0.523598775598284
-11.297628807108 6.75843076404974 -12.047628807108 6.5574688697264
4 G1 28 0 13 0
0

0101000
+298 0 -296 0 *
Ve
1e-07
-2.26898472486894 11.5 -1.11022302462516e-16
0 0

0101101
*
Ed
 1e-07 1 1 0
1  35 0 0 8.34078149459343
2  78 29 0 0 8.34078149459343
1.5707963267949 0 1.5707963267949 8.34078149459343
2  79 13 0 0 8.34078149459343
-12.047628807108 6.55746886972639 -20.3884103017014 6.55746886972639
4 G1 29 0 13 0
0

0101000
+296 0 -294 0 *
Ed
 1e-07 1 1 0
1  36 0 0 1.26247952035157
2  80 16 0 0 1.26247952035157
0 1.5707963267949 1.26247952035157 1.5707963267949
2  81 13 0 0 1.26247952035157
-20.3884103017014 6.55746886972639 -20.8648331483651 6.2091964913938
4 G1 16 0 13 0
0

0101000
+294 0 -322 0 *
Ed
 1e-07 1 1 0
1  6 0 0 0.394791119699741
2  12 3 0 0 0.394791119699741
0 0 0.394791119699741 0
2  82 2 0 0 0.394791119699741
-2.83327584714647 0 -2.43848472744673 0
0

0101000
+362 0 -341 0 *
Ve
1e-07
7.5 5.5 0
0 0

0101101
*
Ed
 1e-07 1 1 0
1  37 0 0 1.5707963267949
2  83 12 0 0 1.5707963267949
0 4.71238898038469 1.5707963267949 4.71238898038469
2  84 13 0 0 1.5707963267949
-12.1194255768325 -0.942531130273605 -10.6194255768325 0.557468869726395
4 G1 12 0 13 0
0

0101000
+343 0 -290 0 *
Ed
 1e-07 1 1 0
1  38 0 0 13.9737205583712
2  85 30 0 0 13.9737205583712
1.5707963267949 0 1.5707963267949 13.9737205583712
2  86 13 0 0 13.9737205583712
-10.6194255768325 0.557468869726395 3.35429498153869 0.557468869726395
4 G1 30 0 13 0
0

0101000
+290 0 -317 0 *
Wi

0101100
+315 0 +313 0 +311 0 +309 0 +307 0 +305 0 +303 0 +301 0 +299 0 +297 0 
+295 0 +293 0 +292 0 +321 0 +361 0 +291 0 +340 0 +289 0 +288 0 *
Fa
0  0 17 0

0111000
+287 0 *
Wi

0101100
-291 0 +360 0 +339 0 *
Fa
0  0 2 0

0111000
+285 0 *
Wi

0101100
+357 0 *
Fa
0  1e-07 31 0

0111000
+283 0 *
Ve
1e-07
7.5 5.5 7
0 0

0101101
*
Ve
5.33191529455189e-07
21.4737205583712 5.5 7
0 0

0101101
*
Ed
 1e-07 1 1 0
1  39 0 0 13.9737205583712
2  87 32 0 0 13.9737205583712
1.5707963267949 0 1.5707963267949 13.9737205583712
2  88 8 3 0 13.9737205583712
-10.6194255768325 0.557468869726395 3.35429498153869 0.557468869726395
4 G1 32 0 8 3
0

0101000
+281 0 -280 0 *
Ed
 1e-07 1 1 0
1  40 0 0 1.5707963267949
2  89 14 0 0 1.5707963267949
0 4.71238898038469 1.5707963267949 4.71238898038469
2  90 8 3 0 1.5707963267949
-12.1194255768325 -0.942531130273605 -10.6194255768325 0.557468869726395
4 G1 14 0 8 3
0

0101000
+336 0 -281 0 *
Ve
1e-07
4.61204575114573 6.24331914844489 7
0 0

0101101
*
Ed
 1e-07 1 1 0
1  41 0 0 1.77215424758523
2  91 33 5 0 1.77215424758523
0 -5 1.77215424758523 -5
0

0101000
+354 5 -277 5 *
Ve
1e-07
5.3933308837867 8.69654475666519 7
0 0

0101101
*
Ed
 1e-07 1 1 0
1  42 0 0 2.57463052559269
0

0101000
+277 5 -275 5 *
Ve
1e-07
4.44048519045928 10 7
0 0

0101101
*
Ed
 1e-07 1 1 0
1  43 0 0 1.87911313323822
2  92 34 5 0 1.87911313323822
0 -5 1.87911313323822 -5
0

0101000
+275 5 -273 5 *
Ve
1e-07
-0.806954174606822 10 7
0 0

0101101
*
Ed
 1e-07 1 1 0
1  44 0 0 5.2474393650661
0

0101000
+273 5 -271 5 *
Ve
1.00000000111022e-07
-1.75979986793424 9.30345524333481 7
0 0

0101101
*
Ed
 1e-07 1 1 0
1  45 0 0 1.26247952035157
2  93 35 5 0 1.26247952035157
0 -5 1.26247952035157 -5
0

0101000
+271 5 -269 5 *
Ve
1e-07
-2.27491125435825 7.68601189075285 7
0 0

0101101
*
Ed
 1e-07 1 1 0
1  46 0 0 1.69748718382062
0

0101000
+269 5 -267 5 *
Ed
 1e-07 1 1 0
1  47 0 0 2.05631444909049
2  94 36 5 0 2.05631444909049
0 -5 2.05631444909049 -5
0

0101000
+267 5 -352 5 *
Ve
1e-07
-2.74540757153265 11.1517276216674 7
0 0

0101101
*
Ed
 1e-07 1 1 0
1  48 0 0 7.29276731479354
2  95 10 0 0 7.29276731479354
1.5707963267949 0 1.5707963267949 7.29276731479354
2  96 8 3 0 7.29276731479354
-20.8648331483651 6.2091964913938 -23.07786162846 -0.739685436946194
4 G1 10 0 8 3
0

0101000
+264 0 -350 0 *
Ve
1e-07
-2.26898472486894 11.5 7
0 0

0101101
*
Ed
 1e-07 1 1 0
1  49 0 0 1.26247952035157
2  97 37 0 0 1.26247952035157
0 1.5707963267949 1.26247952035157 1.5707963267949
2  98 8 3 0 1.26247952035157
-20.3884103017014 6.55746886972639 -20.8648331483651 6.2091964913938
4 G1 37 0 8 3
0

0101000
+262 0 -264 0 *
Ve
1e-07
6.07179676972449 11.5 7
0 0

0101101
*
Ed
 1e-07 1 1 0
1  50 0 0 8.34078149459343
2  99 38 0 0 8.34078149459343
1.5707963267949 0 1.5707963267949 8.34078149459343
2  100 8 3 0 8.34078149459343
-12.047628807108 6.55746886972639 -20.3884103017014 6.55746886972639
4 G1 38 0 8 3
0

0101000
+260 0 -262 0 *
Ve
1e-07
6.82179676972449 11.7009618943233 7
0 0

0101101
*
Ed
 1e-07 1 1 0
1  51 0 -1.7763568394002e-15 0.523598775598284
2  101 39 0 -1.7763568394002e-15 0.523598775598284
-1.7763568394002e-15 4.71238898038469 0.523598775598284 4.71238898038469
2  102 8 3 -1.7763568394002e-15 0.523598775598284
-11.297628807108 6.75843076404974 -12.047628807108 6.5574688697264
4 G1 39 0 8 3
0

0101000
+258 0 -260 0 *
Ve
1e-07
14.6875965268804 16.242283501509 7
0 0

0101101
*
Ed
 1e-07 1 1 0
1  52 0 0 9.08264321437137
2  103 40 0 0 9.08264321437137
1.5707963267949 0 1.5707963267949 9.08264321437137
2  104 8 3 0 9.08264321437137
-3.43182904995203 11.2997523712354 -11.297628807108 6.75843076404974
4 G1 40 0 8 3
0

0101000
+256 0 -258 0 *
Ve
1e-07
15.2314891530267 16.2137792968043 7
0 0

0101101
*
Ed
 1e-07 1 1 0
1  53 0 0 1.15191730631625
2  105 41 0 0 1.15191730631625
0 1.5707963267949 1.15191730631625 1.5707963267949
2  106 8 3 0 1.15191730631625
-2.8879364238058 11.2712481665307 -3.43182904995204 11.2997523712354
4 G1 41 0 8 3
0

0101000
+254 0 -256 0 *
Ve
1e-07
30.9598248634483 4.78647450843757 7
0 0

0101101
*
Ed
 1e-07 1 1 0
1  54 0 3.5527136788005e-15 19.4412921110185
2  107 42 0 3.5527136788005e-15 19.4412921110185
1.5707963267949 3.5527136788005e-15 1.5707963267949 19.4412921110185
2  108 8 3 3.5527136788005e-15 19.4412921110185
12.8403992866158 -0.156056621836023 -2.8879364238058 11.2712481665307
4 G1 42 0 8 3
0

0101000
+252 0 -254 0 *
Ve
1e-07
31.841502741887 4.5 7
0 0

0101101
*
Ed
 1e-07 1 1 0
1  55 0 0 0.62831853071794
2  109 43 0 0 0.62831853071794
0 4.71238898038469 0.62831853071794 4.71238898038469
2  110 8 3 0 0.62831853071794
13.7220771650545 -0.442531130273604 12.8403992866158 -0.15605662183603
4 G1 43 0 8 3
0

0101000
+250 0 -252 0 *
Ve
1e-07
46 4.5 7
0 0

0101101
*
Ed
 1e-07 1 1 0
1  56 0 0 14.158497258113
2  111 44 0 0 14.158497258113
1.5707963267949 0 1.5707963267949 14.158497258113
2  112 8 3 0 14.158497258113
27.8805744231675 -0.442531130273605 13.7220771650545 -0.442531130273605
4 G1 44 0 8 3
0

0101000
+248 0 -250 0 *
Ve
1e-07
46.5 4 7
0 0

0101101
*
Ed
 1e-07 1 1 0
1  57 0 0 1.57079632679489
2  113 45 0 0 1.57079632679489
0 1.5707963267949 1.57079632679489 1.5707963267949
2  114 8 3 0 1.57079632679489
28.3805744231675 -0.942531130273606 27.8805744231675 -0.442531130273606
4 G1 45 0 8 3
0

0101000
+246 0 -248 0 *
Ve
1e-07
46.5 1 7
0 0

0101101
*
Ed
 1e-07 1 1 0
1  58 0 0 3
2  115 46 0 0 3
1.5707963267949 0 1.5707963267949 3
2  116 8 3 0 3
28.3805744231675 -3.94253113027361 28.3805744231675 -0.942531130273605
4 G1 46 0 8 3
0

0101000
+244 0 -246 0 *
Ve
1e-07
46 0.5 7
0 0

0101101
*
Ed
 1e-07 1 1 0
1  59 0 0 1.57079632679489
2  117 47 0 0 1.57079632679489
0 1.5707963267949 1.57079632679489 1.5707963267949
2  118 8 3 0 1.57079632679489
27.8805744231675 -4.4425311302736 28.3805744231675 -3.9425311302736
4 G1 47 0 8 3
0

0101000
+242 0 -244 0 *
Ve
5.33191203318859e-07
30.1339745962156 0.5 7
0 0

0101101
*
Ed
 1e-07 1 1 0
1  60 0 0.13397459621556 16
2  119 48 0 0.13397459621556 16
1.5707963267949 0.13397459621556 1.5707963267949 16
2  120 8 3 0.13397459621556 16
12.0145490193831 -4.44253113027361 27.8805744231675 -4.44253113027361
4 G1 48 0 8 3
0

0101000
+240 0 -242 0 *
Ed
 1e-07 1 1 0
1  61 0 -0.133974596215563 9.86602540378444
2  121 49 0 -0.133974596215563 9.86602540378444
1.5707963267949 -0.133974596215563 1.5707963267949 9.86602540378444
2  122 8 3 -0.133974596215563 9.86602540378444
3.35429498153869 0.557468869726395 12.0145490193831 -4.44253113027361
4 G1 49 0 8 3
0

0101000
+280 0 -240 0 *
Wi

0101100
+279 0 +278 0 +334 0 +353 0 -276 4 -274 4 -272 4 -270 4 -268 4 -266 4 
-265 4 +349 0 +263 0 +261 0 +259 0 +257 0 +255 0 +253 0 +251 0 +249 0 
+247 0 +245 0 +243 0 +241 0 +239 0 +238 0 *
Fa
0  1e-07 8 3

0111000
+237 0 *
Ve
1e-07
-1.14579015289339 6.39821576109563 2
0 0

0101101
*
Ed
 1e-07 1 1 0
1  62 0 0 5
2  123 36 0 0 5
2.05631444909049 0 2.05631444909049 -5
2  124 9 0 0 5
0 0 0 -5
4 G1 36 0 9 0
0

0101000
+235 0 -352 0 *
Ve
1.00000000222045e-07
3.17130671677587 5.67387113954241 2
0 0

0101101
*
Ed
 1.00000000222045e-07 1 1 0
1  63 0 0 5
2  125 9 0 0 5
0.686876043085923 0 0.686876043085923 -5
2  126 33 0 0 5
0 0 0 -5
4 G1 9 0 33 0
0

0101000
+233 0 -354 0 *
Ed
 1e-07 1 1 0
1  64 0 0 0.686876043085923
2  127 9 0 0 0.686876043085923
0 0 0.686876043085923 0
2  128 2 0 0 0.686876043085923
7.36846351167889 -2 6.68158746859297 -2
0

0101000
+235 0 -233 0 *
Wi

0101100
+234 0 -232 0 -231 0 +351 0 *
Fa
0  1e-07 9 0

0111000
+230 0 *
Ve
1.00000000222045e-07
-3.22183041819636 11.3034552433348 6.5
0 0

0101101
*
Ed
 1e-07 1 1 0
1  65 0 0 9.79276731479353
2  129 10 0 0 9.79276731479353
0 0 0 9.79276731479353
2  130 11 0 0 9.79276731479353
0 -6.5 9.79276731479353 -6.5
4 G1 10 0 11 0
0

0101000
+228 0 -348 0 *
Ed
 1e-07 1 1 0
1  66 0 0 1.5707963267949
2  131 37 0 0 1.5707963267949
1.26247952035157 0 1.26247952035157 1.5707963267949
2  132 10 0 0 1.5707963267949
0 0 1.5707963267949 0
4 G1 37 0 10 0
0

0101000
+228 0 -264 0 *
Wi

0101100
-227 0 -347 0 +263 0 +226 0 *
Fa
0  1e-07 10 0

0111000
+225 0 *
Ed
 1.00000000222045e-07 1 1 0
1  67 0 0.5 6.5
2  133 50 0 0.5 6.5
1.26247952035157 -0.5 1.26247952035157 -6.5
4 C1 50 0 11 0
0

0101000
+324 0 -228 0 *
Wi

0101100
+223 0 -323 0 +227 0 -346 0 *
Fa
0  1e-07 11 0

0111000
+222 0 *
Ed
 1e-07 1 1 0
1  68 0 3.14159265358979 4.71238898038469
2  134 12 0 3.14159265358979 4.71238898038469
1.5707963267949 3.14159265358979 1.5707963267949 4.71238898038469
2  135 30 0 3.14159265358979 4.71238898038469
0 0 1.5707963267949 0
4 G1 12 0 30 0
0

0101000
+331 0 -290 0 *
Wi

0101100
-342 0 +330 0 -289 0 +220 0 *
Fa
0  0 12 0

0111000
+219 0 *
Ed
 1e-07 1 1 0
1  69 0 3.14159265358979 4.71238898038469
2  136 14 0 3.14159265358979 4.71238898038469
1.5707963267949 3.14159265358979 1.5707963267949 4.71238898038469
2  137 32 0 3.14159265358979 4.71238898038469
0 0 1.5707963267949 0
4 G1 14 0 32 0
0

0101000
+329 0 -281 0 *
Wi

0101100
-335 0 +328 0 -278 0 +217 0 *
Fa
0  0 14 0

0111000
+216 0 *
Ve
5.33191519505031e-07
21.3397459621556 5 0.5
0 0

0101101
*
Ed
 1e-07 1 1 0
1  70 0 0 13.8397459621556
2  138 30 0 0 13.8397459621556
0 0 0 13.8397459621556
2  139 15 0 0 13.8397459621556
0 -0.5 13.8397459621556 -0.5
4 G1 30 0 15 0
0

0101000
+331 0 -214 0 *
Ve
5.33191529455189e-07
21.3397459621556 5 6.5
0 0

0101101
*
Ed
 1e-07 1 1 0
1  71 0 0 13.8397459621556
2  140 32 0 0 13.8397459621556
0 0 0 13.8397459621556
2  141 15 0 0 13.8397459621556
0 -6.5 13.8397459621556 -6.5
4 G1 32 0 15 0
0

0101000
+329 0 -212 0 *
Ed
 1e-07 1 1 0
1  72 0 0.5 6.5
0

0101000
+214 0 -212 0 *
Wi

0101100
+327 0 -213 0 +211 0 -210 0 *
Fa
0  1e-07 15 0

0111000
+209 0 *
Ve
1e-07
-2.26898472486894 12 0.5
0 0

0101101
*
Ed
 1e-07 1 1 0
1  73 0 0 1.5707963267949
2  142 29 0 0 1.5707963267949
0 8.34078149459343 1.5707963267949 8.34078149459343
2  143 16 0 0 1.5707963267949
0 0 0 1.5707963267949
4 G1 29 0 16 0
0

0101000
+207 0 -294 0 *
Ed
 1e-07 1 1 0
1  74 0 0 1.26247952035157
2  144 16 0 0 1.26247952035157
0 0 1.26247952035157 0
2  145 50 0 0 1.26247952035157
0 -0.5 1.26247952035157 -0.5
4 G1 16 0 50 0
0

0101000
+207 0 -324 0 *
Wi

0101100
-206 0 +205 0 -292 0 +320 0 *
Fa
0  0 16 0

0111000
+204 0 *
Ed
 1.89488441143797e-07 1 1 0
1  75 0 3.14159265358979 4.71238898038469
2  146 30 0 3.14159265358979 4.71238898038469
0 13.8397459621556 1.5707963267949 13.9737205583712
2  147 18 0 3.14159265358979 4.71238898038469
-1.11022302462516e-16 -1.76247905159244e-15 1.5707963267949 -0.133974596215563
0

0101000
+214 0 -317 0 *
Ve
5.33191256262401e-07
30 -1.11022302462516e-16 0.5
0 0

0101101
*
Ed
 1e-07 1 1 0
1  76 0 -1.77635683940025e-15 10
2  148 18 0 -1.77635683940025e-15 10
0 -1.77635683940025e-15 0 10
2  149 51 0 -1.77635683940025e-15 10
0 -0.5 10 -0.5
4 G1 18 0 51 0
0

0101000
+214 0 -201 0 *
Ed
 1.89488342459767e-07 1 1 0
1  77 0 3.14159265358979 4.71238898038469
2  150 19 0 3.14159265358979 4.71238898038469
0 -3.53883589099269e-15 1.5707963267949 0.133974596215559
2  151 18 0 3.14159265358979 4.71238898038469
-2.22044604925031e-16 10 1.57079632679489 9.86602540378444
0

0101000
+201 0 -316 0 *
Wi

0101100
+202 0 -200 0 +315 0 -199 0 *
Fa
0  0 18 0

0111000
+198 0 *
Ve
1.00000000888178e-07
46 -1.11022302462516e-16 0.5
0 0

0101101
*
Ed
 1e-07 1 1 0
1  78 0 0 16
2  152 19 0 0 16
0 0 0 16
2  153 52 0 0 16
0 -0.5 16 -0.5
4 G1 19 0 52 0
0

0101000
+201 0 -196 0 *
Ed
 1e-07 1 1 0
1  79 0 0 1.5707963267949
2  154 19 0 0 1.5707963267949
0 16 1.5707963267949 16
2  155 20 0 0 1.5707963267949
0 0 0 1.5707963267949
4 G1 19 0 20 0
0

0101000
+196 0 -314 0 *
Wi

0101100
+199 0 -195 0 +313 0 -194 0 *
Fa
0  0 19 0

0111000
+193 0 *
Ve
1e-07
47 1 0.5
0 0

0101101
*
Ed
 1e-07 1 1 0
1  80 0 0 1.57079632679489
2  156 20 0 0 1.57079632679489
0 0 1.57079632679489 0
2  157 53 0 0 1.57079632679489
0 -0.5 1.57079632679489 -0.5
4 G1 20 0 53 0
0

0101000
+196 0 -191 0 *
Ed
 1e-07 1 1 0
1  81 0 0 1.5707963267949
2  158 20 0 0 1.5707963267949
1.57079632679489 0 1.57079632679489 1.5707963267949
2  159 21 0 0 1.5707963267949
0 0 1.5707963267949 0
4 G1 20 0 21 0
0

0101000
+191 0 -312 0 *
Wi

0101100
-194 0 +190 0 -311 0 +189 0 *
Fa
0  0 20 0

0111000
+188 0 *
Ve
1e-07
47 4 0.5
0 0

0101101
*
Ed
 1e-07 1 1 0
1  82 0 0 3
2  160 21 0 0 3
0 0 0 3
2  161 54 0 0 3
0 -0.5 3 -0.5
4 G1 21 0 54 0
0

0101000
+191 0 -186 0 *
Ed
 1e-07 1 1 0
1  83 0 0 1.5707963267949
2  162 21 0 0 1.5707963267949
0 3 1.5707963267949 3
2  163 22 0 0 1.5707963267949
0 0 0 1.5707963267949
4 G1 21 0 22 0
0

0101000
+186 0 -310 0 *
Wi

0101100
+189 0 -185 0 +309 0 -184 0 *
Fa
0  0 21 0

0111000
+183 0 *
Ve
1.00000000444089e-07
46 5 0.5
0 0

0101101
*
Ed
 1e-07 1 1 0
1  84 0 0 1.57079632679489
2  164 22 0 0 1.57079632679489
0 0 1.57079632679489 0
2  165 55 0 0 1.57079632679489
0 -0.5 1.57079632679489 -0.5
4 G1 22 0 55 0
0

0101000
+186 0 -181 0 *
Ed
 1e-07 1 1 0
1  85 0 0 1.5707963267949
2  166 22 0 0 1.5707963267949
1.57079632679489 0 1.57079632679489 1.5707963267949
2  167 23 0 0 1.5707963267949
0 0 1.5707963267949 0
4 G1 22 0 23 0
0

0101000
+181 0 -308 0 *
Wi

0101100
-184 0 +180 0 -307 0 +179 0 *
Fa
0  0 22 0

0111000
+178 0 *
Ve
1.00000000444089e-07
31.841502741887 5 0.5
0 0

0101101
*
Ed
 1e-07 1 1 0
1  86 0 0 14.158497258113
2  168 23 0 0 14.158497258113
0 0 0 14.158497258113
2  169 56 0 0 14.158497258113
0 -0.5 14.158497258113 -0.5
4 G1 23 0 56 0
0

0101000
+181 0 -176 0 *
Ed
 1e-07 1 1 0
1  87 0 0 1.5707963267949
2  170 23 0 0 1.5707963267949
0 14.158497258113 1.5707963267949 14.158497258113
2  171 24 0 0 1.5707963267949
0 3.14159265358979 0 4.71238898038469
4 G1 23 0 24 0
0

0101000
+176 0 -306 0 *
Wi

0101100
+179 0 -175 0 +305 0 -174 0 *
Fa
0  0 23 0

0111000
+173 0 *
Ve
1.00000000444089e-07
31.2537174895945 5.19098300562505 0.5
0 0

0101101
*
Ed
 1e-07 1 1 0
1  88 0 0 0.62831853071794
2  172 24 0 0 0.62831853071794
0 3.14159265358979 0.62831853071794 3.14159265358979
2  173 57 0 0 0.62831853071794
0 -0.5 0.62831853071794 -0.5
4 G1 24 0 57 0
0

0101000
+176 0 -171 0 *
Ed
 1e-07 1 1 0
1  89 0 3.14159265358979 4.71238898038469
2  174 24 0 3.14159265358979 4.71238898038469
0.62831853071794 3.14159265358979 0.62831853071794 4.71238898038469
2  175 25 0 3.14159265358979 4.71238898038469
0 3.5527136788005e-15 1.5707963267949 3.5527136788005e-15
4 G1 24 0 25 0
0

0101000
+171 0 -304 0 *
Wi

0101100
-174 0 +170 0 -303 0 +169 0 *
Fa
0  0 24 0

0111000
+168 0 *
Ve
1e-07
15.5253817791729 16.6182877939918 0.5
0 0

0101101
*
Ed
 1e-07 1 1 0
1  90 0 3.5527136788005e-15 19.4412921110185
2  176 25 0 3.5527136788005e-15 19.4412921110185
0 3.5527136788005e-15 0 19.4412921110185
2  177 58 0 3.5527136788005e-15 19.4412921110185
0 -0.5 19.4412921110185 -0.5
4 G1 25 0 58 0
0

0101000
+171 0 -166 0 *
Ed
 1e-07 1 1 0
1  91 0 0 1.5707963267949
2  178 25 0 0 1.5707963267949
0 19.4412921110185 1.5707963267949 19.4412921110185
2  179 26 0 0 1.5707963267949
0 0 0 1.5707963267949
4 G1 25 0 26 0
0

0101000
+166 0 -302 0 *
Wi

0101100
+169 0 -165 0 +301 0 -164 0 *
Fa
0  0 25 0

0111000
+163 0 *
Ve
1e-07
14.4375965268804 16.6752962034012 0.5
0 0

0101101
*
Ed
 1e-07 1 1 0
1  92 0 0 1.15191730631625
2  180 26 0 0 1.15191730631625
0 0 1.15191730631625 0
2  181 59 0 0 1.15191730631625
0 -0.5 1.15191730631625 -0.5
4 G1 26 0 59 0
0

0101000
+166 0 -161 0 *
Ed
 1e-07 1 1 0
1  93 0 0 1.5707963267949
2  182 26 0 0 1.5707963267949
1.15191730631625 0 1.15191730631625 1.5707963267949
2  183 27 0 0 1.5707963267949
0 0 1.5707963267949 0
4 G1 26 0 27 0
0

0101000
+161 0 -300 0 *
Wi

0101100
-164 0 +160 0 -299 0 +159 0 *
Fa
0  0 26 0

0111000
+158 0 *
Ve
1e-07
6.57179676972449 12.1339745962156 0.5
0 0

0101101
*
Ed
 1e-07 1 1 0
1  94 0 0 9.08264321437137
2  184 27 0 0 9.08264321437137
0 0 0 9.08264321437137
2  185 60 0 0 9.08264321437137
0 -0.5 9.08264321437137 -0.5
4 G1 27 0 60 0
0

0101000
+161 0 -156 0 *
Ed
 1e-07 1 1 0
1  95 0 0 1.5707963267949
2  186 27 0 0 1.5707963267949
0 9.08264321437137 1.5707963267949 9.08264321437137
2  187 28 0 0 1.5707963267949
-1.7763568394002e-15 3.14159265358979 -1.7763568394002e-15 4.71238898038469
4 G1 27 0 28 0
0

0101000
+156 0 -298 0 *
Wi

0101100
+159 0 -155 0 +297 0 -154 0 *
Fa
0  0 27 0

0111000
+153 0 *
Ve
1e-07
6.07179676972449 12 0.5
0 0

0101101
*
Ed
 1e-07 1 1 0
1  96 0 -1.7763568394002e-15 0.523598775598284
2  188 28 0 -1.7763568394002e-15 0.523598775598284
-1.7763568394002e-15 3.14159265358979 0.523598775598284 3.14159265358979
2  189 61 0 -1.7763568394002e-15 0.523598775598284
0 -0.5 0.523598775598286 -0.5
4 G1 28 0 61 0
0

0101000
+156 0 -151 0 *
Ed
 1e-07 1 1 0
1  97 0 3.14159265358979 4.71238898038469
2  190 28 0 3.14159265358979 4.71238898038469
0.523598775598284 3.14159265358979 0.523598775598284 4.71238898038469
2  191 29 0 3.14159265358979 4.71238898038469
0 0 1.5707963267949 0
4 G1 28 0 29 0
0

0101000
+151 0 -296 0 *
Wi

0101100
-154 0 +150 0 -295 0 +149 0 *
Fa
0  0 28 0

0111000
+148 0 *
Ed
 1e-07 1 1 0
1  98 0 0 8.34078149459343
2  192 29 0 0 8.34078149459343
0 0 0 8.34078149459343
2  193 62 0 0 8.34078149459343
0 -0.5 8.34078149459343 -0.5
4 G1 29 0 62 0
0

0101000
+151 0 -207 0 *
Wi

0101100
+149 0 -146 0 +293 0 -206 0 *
Fa
0  0 29 0

0111000
+145 0 *
Wi

0101100
+220 0 -213 0 +288 0 -202 0 *
Fa
0  0 30 0

0111000
+143 0 *
Ed
 1.89488445057156e-07 1 1 0
1  99 0 3.14159265358979 4.71238898038469
2  194 32 0 3.14159265358979 4.71238898038469
1.11022302462516e-16 13.8397459621556 1.5707963267949 13.9737205583712
2  195 49 0 3.14159265358979 4.71238898038469
0 -1.76247905159244e-15 1.5707963267949 -0.133974596215563
0

0101000
+212 0 -280 0 *
Wi

0101100
+217 0 -211 0 +279 0 -141 0 *
Fa
0  0 32 0

0111000
+140 0 *
Ve
1e-07
4.61204575114573 6.24331914844489 2
0 0

0101101
*
Ed
 1e-07 1 1 0
1  100 0 0 5
2  196 33 0 0 5
1.77215424758523 0 1.77215424758523 -5
4 C1 33 0 63 0
0

0101000
+138 0 -277 0 *
Ed
 1e-07 1 1 0
1  101 0 0 1.77215424758523
2  197 33 0 0 1.77215424758523
0 0 1.77215424758523 0
0

0101000
+233 0 -138 0 *
Wi

0101100
+232 0 -137 0 -136 0 +276 4 *
Fa
0  1e-07 33 0

0111000
+135 0 *
Ve
1e-07
5.3933308837867 8.69654475666519 2
0 0

0101101
*
Ed
 1e-07 1 1 0
1  102 0 0 5
2  198 34 0 0 5
0 0 0 -5
4 C1 63 0 34 0
0

0101000
+133 0 -275 0 *
Ed
 1e-07 1 1 0
1  103 0 0 2.57463052559269
0

0101000
+138 0 -133 0 *
Wi

0101100
+137 0 -132 0 -131 0 +274 4 *
Fa
0  1e-07 63 0

0111000
+130 0 *
Ve
1e-07
4.44048519045928 10 2
0 0

0101101
*
Ed
 1e-07 1 1 0
1  104 0 0 5
2  199 34 0 0 5
1.87911313323822 0 1.87911313323822 -5
4 C1 64 0 34 0
0

0101000
+128 0 -273 0 *
Ed
 1e-07 1 1 0
1  105 0 0 1.87911313323822
2  200 34 0 0 1.87911313323822
0 0 1.87911313323822 0
0

0101000
+133 0 -128 0 *
Wi

0101100
+132 0 -127 0 -126 0 +272 4 *
Fa
0  1e-07 34 0

0111000
+125 0 *
Ve
1e-07
-0.806954174606822 10 2
0 0

0101101
*
Ed
 1e-07 1 1 0
1  106 0 0 5
2  201 35 0 0 5
0 0 0 -5
4 C1 64 0 35 0
0

0101000
+123 0 -271 0 *
Ed
 1e-07 1 1 0
1  107 0 0 5.2474393650661
0

0101000
+128 0 -123 0 *
Wi

0101100
+127 0 -122 0 -121 0 +270 4 *
Fa
0  1e-07 64 0

0111000
+120 0 *
Ve
1.00000000111022e-07
-1.75979986793424 9.30345524333481 2
0 0

0101101
*
Ed
 1.00000000111022e-07 1 1 0
1  108 0 0 5
2  202 35 0 0 5
1.26247952035157 0 1.26247952035157 -5
4 C1 35 0 65 0
0

0101000
+118 0 -269 0 *
Ed
 1e-07 1 1 0
1  109 0 0 1.26247952035157
2  203 35 0 0 1.26247952035157
0 0 1.26247952035157 0
0

0101000
+123 0 -118 0 *
Wi

0101100
+122 0 -117 0 -116 0 +268 4 *
Fa
0  1e-07 35 0

0111000
+115 0 *
Ve
1e-07
-2.27491125435825 7.68601189075285 2
0 0

0101101
*
Ed
 1e-07 1 1 0
1  110 0 0 5
2  204 36 0 0 5
0 0 0 -5
4 C1 65 0 36 0
0

0101000
+113 0 -267 0 *
Ed
 1e-07 1 1 0
1  111 0 0 1.69748718382062
0

0101000
+118 0 -113 0 *
Wi

0101100
+117 0 -112 0 -111 0 +266 4 *
Fa
0  1e-07 65 0

0111000
+110 0 *
Ed
 1e-07 1 1 0
1  112 0 0 2.05631444909049
2  205 36 0 0 2.05631444909049
0 0 2.05631444909049 0
0

0101000
+113 0 -235 0 *
Wi

0101100
+112 0 -234 0 -108 0 +265 4 *
Fa
0  1e-07 36 0

0111000
+107 0 *
Ve
1e-07
-2.26898472486894 12 6.5
0 0

0101101
*
Ed
 1e-07 1 1 0
1  113 0 0 1.5707963267949
2  206 38 0 0 1.5707963267949
0 8.34078149459343 1.5707963267949 8.34078149459343
2  207 37 0 0 1.5707963267949
0 0 0 1.5707963267949
4 G1 38 0 37 0
0

0101000
+105 0 -262 0 *
Ed
 1e-07 1 1 0
1  114 0 0 1.26247952035157
2  208 37 0 0 1.26247952035157
0 0 1.26247952035157 0
2  209 50 0 0 1.26247952035157
0 -6.5 1.26247952035157 -6.5
4 G1 37 0 50 0
0

0101000
+105 0 -228 0 *
Wi

0101100
-104 0 +103 0 -261 0 +226 0 *
Fa
0  0 37 0

0111000
+102 0 *
Ve
1e-07
6.07179676972449 12 6.5
0 0

0101101
*
Ed
 1e-07 1 1 0
1  115 0 3.14159265358979 4.71238898038469
2  210 39 0 3.14159265358979 4.71238898038469
0.523598775598284 3.14159265358979 0.523598775598284 4.71238898038469
2  211 38 0 3.14159265358979 4.71238898038469
0 0 1.5707963267949 0
4 G1 39 0 38 0
0

0101000
+100 0 -260 0 *
Ed
 1e-07 1 1 0
1  116 0 0 8.34078149459343
2  212 38 0 0 8.34078149459343
0 0 0 8.34078149459343
2  213 62 0 0 8.34078149459343
0 -6.5 8.34078149459343 -6.5
4 G1 38 0 62 0
0

0101000
+100 0 -105 0 *
Wi

0101100
+99 0 -98 0 +259 0 -104 0 *
Fa
0  0 38 0

0111000
+97 0 *
Ve
1e-07
6.57179676972449 12.1339745962156 6.5
0 0

0101101
*
Ed
 1e-07 1 1 0
1  117 0 0 1.5707963267949
2  214 40 0 0 1.5707963267949
0 9.08264321437137 1.5707963267949 9.08264321437137
2  215 39 0 0 1.5707963267949
-1.7763568394002e-15 3.14159265358979 -1.7763568394002e-15 4.71238898038469
4 G1 40 0 39 0
0

0101000
+95 0 -258 0 *
Ed
 1e-07 1 1 0
1  118 0 -1.7763568394002e-15 0.523598775598284
2  216 39 0 -1.7763568394002e-15 0.523598775598284
-1.7763568394002e-15 3.14159265358979 0.523598775598284 3.14159265358979
2  217 61 0 -1.7763568394002e-15 0.523598775598284
0 -6.5 0.523598775598286 -6.5
4 G1 39 0 61 0
0

0101000
+95 0 -100 0 *
Wi

0101100
-94 0 +93 0 -257 0 +99 0 *
Fa
0  0 39 0

0111000
+92 0 *
Ve
1e-07
14.4375965268804 16.6752962034012 6.5
0 0

0101101
*
Ed
 1e-07 1 1 0
1  119 0 0 1.5707963267949
2  218 41 0 0 1.5707963267949
1.15191730631625 0 1.15191730631625 1.5707963267949
2  219 40 0 0 1.5707963267949
0 0 1.5707963267949 0
4 G1 41 0 40 0
0

0101000
+90 0 -256 0 *
Ed
 1e-07 1 1 0
1  120 0 0 9.08264321437137
2  220 40 0 0 9.08264321437137
0 0 0 9.08264321437137
2  221 60 0 0 9.08264321437137
0 -6.5 9.08264321437137 -6.5
4 G1 40 0 60 0
0

0101000
+90 0 -95 0 *
Wi

0101100
+89 0 -88 0 +255 0 -94 0 *
Fa
0  0 40 0

0111000
+87 0 *
Ve
1e-07
15.5253817791729 16.6182877939918 6.5
0 0

0101101
*
Ed
 1e-07 1 1 0
1  121 0 0 1.5707963267949
2  222 42 0 0 1.5707963267949
0 19.4412921110185 1.5707963267949 19.4412921110185
2  223 41 0 0 1.5707963267949
0 0 0 1.5707963267949
4 G1 42 0 41 0
0

0101000
+85 0 -254 0 *
Ed
 1e-07 1 1 0
1  122 0 0 1.15191730631625
2  224 41 0 0 1.15191730631625
0 0 1.15191730631625 0
2  225 59 0 0 1.15191730631625
0 -6.5 1.15191730631625 -6.5
4 G1 41 0 59 0
0

0101000
+85 0 -90 0 *
Wi

0101100
-84 0 +83 0 -253 0 +89 0 *
Fa
0  0 41 0

0111000
+82 0 *
Ve
1.00000000444089e-07
31.2537174895945 5.19098300562505 6.5
0 0

0101101
*
Ed
 1e-07 1 1 0
1  123 0 3.14159265358979 4.71238898038469
2  226 43 0 3.14159265358979 4.71238898038469
0.62831853071794 3.14159265358979 0.62831853071794 4.71238898038469
2  227 42 0 3.14159265358979 4.71238898038469
0 3.5527136788005e-15 1.5707963267949 3.5527136788005e-15
4 G1 43 0 42 0
0

0101000
+80 0 -252 0 *
Ed
 1e-07 1 1 0
1  124 0 3.5527136788005e-15 19.4412921110185
2  228 42 0 3.5527136788005e-15 19.4412921110185
0 3.5527136788005e-15 0 19.4412921110185
2  229 58 0 3.5527136788005e-15 19.4412921110185
0 -6.5 19.4412921110185 -6.5
4 G1 42 0 58 0
0

0101000
+80 0 -85 0 *
Wi

0101100
+79 0 -78 0 +251 0 -84 0 *
Fa
0  0 42 0

0111000
+77 0 *
Ve
1.00000000444089e-07
31.841502741887 5 6.5
0 0

0101101
*
Ed
 1e-07 1 1 0
1  125 0 0 1.5707963267949
2  230 44 0 0 1.5707963267949
0 14.158497258113 1.5707963267949 14.158497258113
2  231 43 0 0 1.5707963267949
0 3.14159265358979 0 4.71238898038469
4 G1 44 0 43 0
0

0101000
+75 0 -250 0 *
Ed
 1e-07 1 1 0
1  126 0 0 0.62831853071794
2  232 43 0 0 0.62831853071794
0 3.14159265358979 0.62831853071794 3.14159265358979
2  233 57 0 0 0.62831853071794
0 -6.5 0.62831853071794 -6.5
4 G1 43 0 57 0
0

0101000
+75 0 -80 0 *
Wi

0101100
-74 0 +73 0 -249 0 +79 0 *
Fa
0  0 43 0

0111000
+72 0 *
Ve
1.00000000444089e-07
46 5 6.5
0 0

0101101
*
Ed
 1e-07 1 1 0
1  127 0 0 1.5707963267949
2  234 45 0 0 1.5707963267949
1.57079632679489 0 1.57079632679489 1.5707963267949
2  235 44 0 0 1.5707963267949
0 0 1.5707963267949 0
4 G1 45 0 44 0
0

0101000
+70 0 -248 0 *
Ed
 1e-07 1 1 0
1  128 0 0 14.158497258113
2  236 44 0 0 14.158497258113
0 0 0 14.158497258113
2  237 56 0 0 14.158497258113
0 -6.5 14.158497258113 -6.5
4 G1 44 0 56 0
0

0101000
+70 0 -75 0 *
Wi

0101100
+69 0 -68 0 +247 0 -74 0 *
Fa
0  0 44 0

0111000
+67 0 *
Ve
1e-07
47 4 6.5
0 0

0101101
*
Ed
 1e-07 1 1 0
1  129 0 0 1.5707963267949
2  238 46 0 0 1.5707963267949
0 3 1.5707963267949 3
2  239 45 0 0 1.5707963267949
0 0 0 1.5707963267949
4 G1 46 0 45 0
0

0101000
+65 0 -246 0 *
Ed
 1e-07 1 1 0
1  130 0 0 1.57079632679489
2  240 45 0 0 1.57079632679489
0 0 1.57079632679489 0
2  241 55 0 0 1.57079632679489
0 -6.5 1.57079632679489 -6.5
4 G1 45 0 55 0
0

0101000
+65 0 -70 0 *
Wi

0101100
-64 0 +63 0 -245 0 +69 0 *
Fa
0  0 45 0

0111000
+62 0 *
Ve
1e-07
47 1 6.5
0 0

0101101
*
Ed
 1e-07 1 1 0
1  131 0 0 1.5707963267949
2  242 47 0 0 1.5707963267949
1.57079632679489 0 1.57079632679489 1.5707963267949
2  243 46 0 0 1.5707963267949
0 0 1.5707963267949 0
4 G1 47 0 46 0
0

0101000
+60 0 -244 0 *
Ed
 1e-07 1 1 0
1  132 0 0 3
2  244 46 0 0 3
0 0 0 3
2  245 54 0 0 3
0 -6.5 3 -6.5
4 G1 46 0 54 0
0

0101000
+60 0 -65 0 *
Wi

0101100
+59 0 -58 0 +243 0 -64 0 *
Fa
0  0 46 0

0111000
+57 0 *
Ve
1.00000000888178e-07
46 -1.11022302462516e-16 6.5
0 0

0101101
*
Ed
 1e-07 1 1 0
1  133 0 0 1.5707963267949
2  246 48 0 0 1.5707963267949
0 16 1.5707963267949 16
2  247 47 0 0 1.5707963267949
0 0 0 1.5707963267949
4 G1 48 0 47 0
0

0101000
+55 0 -242 0 *
Ed
 1e-07 1 1 0
1  134 0 0 1.57079632679489
2  248 47 0 0 1.57079632679489
0 0 1.57079632679489 0
2  249 53 0 0 1.57079632679489
0 -6.5 1.57079632679489 -6.5
4 G1 47 0 53 0
0

0101000
+55 0 -60 0 *
Wi

0101100
-54 0 +53 0 -241 0 +59 0 *
Fa
0  0 47 0

0111000
+52 0 *
Ve
5.33191203318859e-07
30 -1.11022302462516e-16 6.5
0 0

0101101
*
Ed
 1.89488342407671e-07 1 1 0
1  135 0 3.14159265358979 4.71238898038469
2  250 48 0 3.14159265358979 4.71238898038469
2.22044604925031e-16 -3.5527136788005e-15 1.5707963267949 0.133974596215559
2  251 49 0 3.14159265358979 4.71238898038469
-1.11022302462516e-16 10 1.57079632679489 9.86602540378444
0

0101000
+50 0 -240 0 *
Ed
 1e-07 1 1 0
1  136 0 0 16
2  252 48 0 0 16
0 0 0 16
2  253 52 0 0 16
0 -6.5 16 -6.5
4 G1 48 0 52 0
0

0101000
+50 0 -55 0 *
Wi

0101100
+49 0 -48 0 +239 0 -54 0 *
Fa
0  0 48 0

0111000
+47 0 *
Ed
 1e-07 1 1 0
1  137 0 -1.77635683940025e-15 10
2  254 49 0 -1.77635683940025e-15 10
0 -1.77635683940025e-15 0 10
2  255 51 0 -1.77635683940025e-15 10
0 -6.5 10 -6.5
4 G1 49 0 51 0
0

0101000
+212 0 -50 0 *
Wi

0101100
+141 0 -45 0 +238 0 -49 0 *
Fa
0  0 49 0

0111000
+44 0 *
Wi

0101100
+121 0 +116 0 +111 0 +108 0 +231 0 +136 0 +131 0 +126 0 *
Fa
0  1e-07 66 0

0111000
+42 0 *
Ed
 1e-07 1 1 0
1  138 0 0.5 6.5
2  256 50 0 0.5 6.5
0 -0.5 0 -6.5
4 C1 62 0 50 0
0

0101000
+207 0 -105 0 *
Wi

0101100
+40 0 -205 0 +103 0 -223 0 *
Fa
0  1e-07 50 0

0111000
+39 0 *
Ed
 1e-07 1 1 0
1  139 0 0.5 6.5
0

0101000
+201 0 -50 0 *
Wi

0101100
+210 0 -200 0 +45 0 -37 0 *
Fa
0  1e-07 51 0

0111000
+36 0 *
Ed
 1.00000000888178e-07 1 1 0
1  140 0 0.5 6.5
2  257 53 0 0.5 6.5
0 -0.5 0 -6.5
4 C1 52 0 53 0
0

0101000
+196 0 -55 0 *
Wi

0101100
+37 0 -195 0 +48 0 -34 0 *
Fa
0  1e-07 52 0

0111000
+33 0 *
Ed
 1e-07 1 1 0
1  141 0 0.5 6.5
2  258 53 0 0.5 6.5
1.57079632679489 -0.5 1.57079632679489 -6.5
4 C1 53 0 54 0
0

0101000
+191 0 -60 0 *
Wi

0101100
+34 0 -190 0 +53 0 -31 0 *
Fa
0  1e-07 53 0

0111000
+30 0 *
Ed
 1e-07 1 1 0
1  142 0 0.5 6.5
2  259 55 0 0.5 6.5
0 -0.5 0 -6.5
4 C1 54 0 55 0
0

0101000
+186 0 -65 0 *
Wi

0101100
+31 0 -185 0 +58 0 -28 0 *
Fa
0  1e-07 54 0

0111000
+27 0 *
Ed
 1.00000000444089e-07 1 1 0
1  143 0 0.5 6.5
2  260 55 0 0.5 6.5
1.57079632679489 -0.5 1.57079632679489 -6.5
4 C1 55 0 56 0
0

0101000
+181 0 -70 0 *
Wi

0101100
+28 0 -180 0 +63 0 -25 0 *
Fa
0  1e-07 55 0

0111000
+24 0 *
Ed
 1.00000000444089e-07 1 1 0
1  144 0 0.5 6.5
2  261 57 0 0.5 6.5
0 -0.5 0 -6.5
4 C1 56 0 57 0
0

0101000
+176 0 -75 0 *
Wi

0101100
+25 0 -175 0 +68 0 -22 0 *
Fa
0  1e-07 56 0

0111000
+21 0 *
Ed
 1.00000000444089e-07 1 1 0
1  145 0 0.5 6.5
2  262 57 0 0.5 6.5
0.62831853071794 -0.5 0.62831853071794 -6.5
4 C1 57 0 58 0
0

0101000
+171 0 -80 0 *
Wi

0101100
+22 0 -170 0 +73 0 -19 0 *
Fa
0  1e-07 57 0

0111000
+18 0 *
Ed
 1e-07 1 1 0
1  146 0 0.5 6.5
2  263 59 0 0.5 6.5
0 -0.5 0 -6.5
4 C1 58 0 59 0
0

0101000
+166 0 -85 0 *
Wi

0101100
+19 0 -165 0 +78 0 -16 0 *
Fa
0  1e-07 58 0

0111000
+15 0 *
Ed
 1e-07 1 1 0
1  147 0 0.5 6.5
2  264 59 0 0.5 6.5
1.15191730631625 -0.5 1.15191730631625 -6.5
4 C1 59 0 60 0
0

0101000
+161 0 -90 0 *
Wi

0101100
+16 0 -160 0 +83 0 -13 0 *
Fa
0  1e-07 59 0

0111000
+12 0 *
Ed
 1e-07 1 1 0
1  148 0 0.5 6.5
2  265 61 0 0.5 6.5
0 -0.5 0 -6.5
4 C1 60 0 61 0
0

0101000
+156 0 -95 0 *
Wi

0101100
+13 0 -155 0 +88 0 -10 0 *
Fa
0  1e-07 60 0

0111000
+9 0 *
Ed
 1e-07 1 1 0
1  149 0 0.5 6.5
2  266 61 0 0.5 6.5
0.523598775598286 -0.5 0.523598775598286 -6.5
4 C1 61 0 62 0
0

0101000
+151 0 -100 0 *
Wi

0101100
+10 0 -150 0 +93 0 -7 0 *
Fa
0  1e-07 61 0

0111000
+6 0 *
Wi

0101100
+7 0 -146 0 +98 0 -40 0 *
Fa
0  1e-07 62 0

0111000
+4 0 *
Sh

0101100
-366 0 -344 0 +337 0 -332 0 -325 0 +318 0 -286 0 -284 0 +282 1 +236 0 
+229 0 -224 0 -221 0 -218 0 +215 0 -208 0 -203 0 +197 0 +192 0 -187 0 
+182 0 -177 0 +172 0 -167 0 +162 0 -157 0 +152 0 -147 0 +144 0 +142 0 
-139 0 +134 0 +129 0 +124 0 +119 0 +114 0 +109 0 +106 0 +101 0 -96 0 
+91 0 -86 0 +81 0 -76 0 +71 0 -66 0 +61 0 -56 0 +51 0 -46 0 
-43 0 +41 0 -38 0 -35 0 -32 0 -29 0 -26 0 -23 0 -20 0 -17 0 
-14 0 -11 0 -8 0 -5 0 -3 0 *
So

0100000
+2 0 *

+1 0 