
CASCADE Topology V2, (c) Matra-Datavision
Locations 2
1
              1               0               0               0 
              0               1               0               0 
              0               0               1               5 
2  1 -1 0
Curve2ds 20
1 1.8791131332382169 0 0 -1 
1 0 0 0 -1 
1 1.2624795203515744 0 0 -1 
1 0 0 1 0 
1 0 -5 1 0 
1 0 0 0 -1 
1 2.0563144490904892 0 0 -1 
1 0 0 0 -1 
1 0 0 1 0 
1 0 -5 1 0 
1 0.68687604308592254 0 0 -1 
1 0 0 0 -1 
1 0 0 1 0 
1 0 -5 1 0 
1 1.7721542475852254 0 0 -1 
1 0 0 1 0 
1 0 -5 1 0 
1 0 0 0 -1 
1 0 0 1 0 
1 0 -5 1 0 
Curves 24
1 4.4404851904592784 10 2 0 0 1 
1 -0.80695417460682173 10 2 0 0 1 
1 4.4404851904592784 10 2 -1 0 0 
1 4.4404851904592784 10 2 -1 0 0 
1 -1.7597998679342406 9.3034552433348114 2 0 0 1 
2 -0.80695417460682117 9 2 0 0 1 -5.5511151231257827e-16 1 0 -1 -5.5511151231257827e-16 0 1
2 -0.80695417460682117 9 2 0 0 1 -5.5511151231257827e-16 1 0 -1 -5.5511151231257827e-16 0 1
1 -2.2749112543582504 7.6860118907528481 2 0 0 1 
1 -1.7597998679342408 9.3034552433348114 2 -0.30345524333481183 -0.9528456933274192 0 
1 -1.7597998679342408 9.3034552433348114 2 -0.30345524333481183 -0.9528456933274192 0 
1 -1.1457901528933863 6.3982157610956314 2 0 0 1 
2 -1.3220655610308314 7.3825566474180357 2 0 0 1 -0.95284569332741909 0.30345524333481239 0 -0.30345524333481239 -0.95284569332741909 0 0.99999999999999989
2 -1.3220655610308314 7.3825566474180357 2 0 0 1 -0.95284569332741909 0.30345524333481239 0 -0.30345524333481239 -0.95284569332741909 0 0.99999999999999989
1 3.1713067167758728 5.6738711395424053 2 0 0 1 
2 1.0697024978014888e-15 6.1979148199930924e-15 2 0 0 -1 -0.17627540813744438 0.9843408863224048 0 0.9843408863224048 0.17627540813744438 0 6.4999999999999938
2 1.0697024978014888e-15 6.1979148199930924e-15 2 0 0 -1 -0.17627540813744438 0.9843408863224048 0 0.9843408863224048 0.17627540813744438 0 6.4999999999999938
1 4.6120457511457342 6.2433191484448862 2 0 0 1 
2 3.6592000578183144 6.5467743917796994 2 0 0 1 -0.4878933410424412 -0.87290325223729359 0 0.87290325223729359 -0.4878933410424412 0 1.0000000000000009
2 3.6592000578183144 6.5467743917796994 2 0 0 1 -0.4878933410424412 -0.87290325223729359 0 0.87290325223729359 -0.4878933410424412 0 1.0000000000000009
1 5.3933308837866978 8.6965447566651886 2 0 0 1 
1 4.6120457511457342 6.2433191484448862 2 0.30345524333481189 0.9528456933274192 0 
1 4.6120457511457342 6.2433191484448862 2 0.30345524333481189 0.9528456933274192 0 
2 4.4404851904592775 9 2 -0 0 1 0.95284569332741942 -0.30345524333481116 0 0.30345524333481116 0.95284569332741942 0 1.0000000000000007
2 4.4404851904592775 9 2 -0 0 1 0.95284569332741942 -0.30345524333481116 0 0.30345524333481116 0.95284569332741942 0 1.0000000000000007
Polygon3D 0
PolygonOnTriangulations 0
Surfaces 10
1 4.4404851904592784 10 2 0 -1 0 -1 0 0 -0 -0 -1 
2 4.4404851904592775 9 2 -0 -0 -1 0.95284569332741942 -0.30345524333481116 0 0.30345524333481116 0.95284569332741942 0 1.0000000000000007
2 -0.80695417460682117 9 2 -0 -0 -1 -5.5511151231257827e-16 1 0 -1 -5.5511151231257827e-16 0 1
1 -1.7597998679342408 9.3034552433348114 2 0.9528456933274192 -0.30345524333481183 0 -0.30345524333481183 -0.9528456933274192 0 0 0 -1 
2 -1.3220655610308314 7.3825566474180357 2 -0 -0 -1 -0.95284569332741909 0.30345524333481239 0 -0.30345524333481239 -0.95284569332741909 0 0.99999999999999989
2 1.0697024978014888e-15 6.1979148199930924e-15 2 0 0 -1 -0.17627540813744438 0.9843408863224048 0 0.9843408863224048 0.17627540813744438 0 6.4999999999999938
2 3.6592000578183144 6.5467743917796994 2 -0 -0 -1 -0.4878933410424412 -0.87290325223729359 0 0.87290325223729359 -0.4878933410424412 0 1.0000000000000009
1 4.6120457511457342 6.2433191484448862 2 -0.9528456933274192 0.30345524333481189 0 0.30345524333481189 0.9528456933274192 0 0 0 -1 
1 1.6545622634438999 8.0442946267993971 1.9999999999999973 0 0 1 1 0 0 0 1 0 
1 1.6545622634438999 8.0442946267993971 1.9999999999999973 0 0 1 1 0 0 0 1 0 
Triangulations 0

TShapes 62
Ve
1e-07
4.44048519045928 10 2
0 0

0101101
*
Ve
1e-07
4.44048519045928 10 7
0 0

0101101
*
Ed
 1e-07 1 1 0
1  1 0 0 5
2  1 2 0 0 5
1.87911313323822 0 1.87911313323822 -5
4 C1 1 0 2 0
0

0101000
+62 0 -61 0 *
Ve
1e-07
-0.806954174606822 10 2
0 0

0101101
*
Ve
1e-07
-0.806954174606822 10 7
0 0

0101101
*
Ed
 1e-07 1 1 0
1  2 0 0 5
2  2 3 0 0 5
0 0 0 -5
4 C1 1 0 3 0
0

0101000
+59 0 -58 0 *
Ed
 1e-07 1 1 0
1  3 0 0 5.2474393650661
0

0101000
+62 0 -59 0 *
Ed
 1e-07 1 1 0
1  4 0 0 5.2474393650661
0

0101000
+61 2 -58 2 *
Wi

0101100
+60 0 -57 0 -56 0 +55 1 *
Fa
0  1e-07 1 0

0111000
+54 0 *
Ve
1.00000000111022e-07
-1.75979986793424 9.30345524333481 2
0 0

0101101
*
Ve
1.00000000111022e-07
-1.75979986793424 9.30345524333481 7
0 0

0101101
*
Ed
 1.00000000111022e-07 1 1 0
1  5 0 0 5
2  3 3 0 0 5
1.26247952035157 0 1.26247952035157 -5
4 C1 3 0 4 0
0

0101000
+52 0 -51 0 *
Ed
 1e-07 1 1 0
1  6 0 0 1.26247952035157
2  4 3 0 0 1.26247952035157
0 0 1.26247952035157 0
0

0101000
+59 0 -52 0 *
Ed
 1e-07 1 1 0
1  7 0 0 1.26247952035157
2  5 3 2 0 1.26247952035157
0 -5 1.26247952035157 -5
0

0101000
+58 2 -51 2 *
Wi

0101100
+57 0 -50 0 -49 0 +48 1 *
Fa
0  1e-07 3 0

0111000
+47 0 *
Ve
1e-07
-2.27491125435825 7.68601189075285 2
0 0

0101101
*
Ve
1e-07
-2.27491125435825 7.68601189075285 7
0 0

0101101
*
Ed
 1e-07 1 1 0
1  8 0 0 5
2  6 5 0 0 5
0 0 0 -5
4 C1 4 0 5 0
0

0101000
+45 0 -44 0 *
Ed
 1e-07 1 1 0
1  9 0 0 1.69748718382062
0

0101000
+52 0 -45 0 *
Ed
 1e-07 1 1 0
1  10 0 0 1.69748718382062
0

0101000
+51 2 -44 2 *
Wi

0101100
+50 0 -43 0 -42 0 +41 1 *
Fa
0  1e-07 4 0

0111000
+40 0 *
Ve
1e-07
-1.14579015289339 6.39821576109563 2
0 0

0101101
*
Ve
1e-07
-1.14579015289339 6.39821576109563 7
0 0

0101101
*
Ed
 1e-07 1 1 0
1  11 0 0 5
2  7 5 0 0 5
2.05631444909049 0 2.05631444909049 -5
2  8 6 0 0 5
0 0 0 -5
4 G1 5 0 6 0
0

0101000
+38 0 -37 0 *
Ed
 1e-07 1 1 0
1  12 0 0 2.05631444909049
2  9 5 0 0 2.05631444909049
0 0 2.05631444909049 0
0

0101000
+45 0 -38 0 *
Ed
 1e-07 1 1 0
1  13 0 0 2.05631444909049
2  10 5 2 0 2.05631444909049
0 -5 2.05631444909049 -5
0

0101000
+44 2 -37 2 *
Wi

0101100
+43 0 -36 0 -35 0 +34 1 *
Fa
0  1e-07 5 0

0111000
+33 0 *
Ve
1.00000000222045e-07
3.17130671677587 5.67387113954241 2
0 0

0101101
*
Ve
1.00000000222045e-07
3.17130671677587 5.67387113954241 7
0 0

0101101
*
Ed
 1.00000000222045e-07 1 1 0
1  14 0 0 5
2  11 6 0 0 5
0.686876043085923 0 0.686876043085923 -5
2  12 7 0 0 5
0 0 0 -5
4 G1 6 0 7 0
0

0101000
+31 0 -30 0 *
Ed
 1e-07 1 1 0
1  15 0 0 0.686876043085923
2  13 6 0 0 0.686876043085923
0 0 0.686876043085923 0
0

0101000
+38 0 -31 0 *
Ed
 1e-07 1 1 0
1  16 0 0 0.686876043085923
2  14 6 2 0 0.686876043085923
0 -5 0.686876043085923 -5
0

0101000
+37 2 -30 2 *
Wi

0101100
+36 0 -29 0 -28 0 +27 1 *
Fa
0  1e-07 6 0

0111000
+26 0 *
Ve
1e-07
4.61204575114573 6.24331914844489 2
0 0

0101101
*
Ve
1e-07
4.61204575114573 6.24331914844489 7
0 0

0101101
*
Ed
 1e-07 1 1 0
1  17 0 0 5
2  15 7 0 0 5
1.77215424758523 0 1.77215424758523 -5
4 C1 7 0 8 0
0

0101000
+24 0 -23 0 *
Ed
 1e-07 1 1 0
1  18 0 0 1.77215424758523
2  16 7 0 0 1.77215424758523
0 0 1.77215424758523 0
0

0101000
+31 0 -24 0 *
Ed
 1e-07 1 1 0
1  19 0 0 1.77215424758523
2  17 7 2 0 1.77215424758523
0 -5 1.77215424758523 -5
0

0101000
+30 2 -23 2 *
Wi

0101100
+29 0 -22 0 -21 0 +20 1 *
Fa
0  1e-07 7 0

0111000
+19 0 *
Ve
1e-07
5.3933308837867 8.69654475666519 2
0 0

0101101
*
Ve
1e-07
5.3933308837867 8.69654475666519 7
0 0

0101101
*
Ed
 1e-07 1 1 0
1  20 0 0 5
2  18 2 0 0 5
0 0 0 -5
4 C1 8 0 2 0
0

0101000
+17 0 -16 0 *
Ed
 1e-07 1 1 0
1  21 0 0 2.57463052559269
0

0101000
+24 0 -17 0 *
Ed
 1e-07 1 1 0
1  22 0 0 2.57463052559269
0

0101000
+23 2 -16 2 *
Wi

0101100
+22 0 -15 0 -14 0 +13 1 *
Fa
0  1e-07 8 0

0111000
+12 0 *
Ed
 1e-07 1 1 0
1  23 0 0 1.87911313323822
2  19 2 0 0 1.87911313323822
0 0 1.87911313323822 0
0

0101000
+17 0 -62 0 *
Ed
 1e-07 1 1 0
1  24 0 0 1.87911313323822
2  20 2 2 0 1.87911313323822
0 -5 1.87911313323822 -5
0

0101000
+16 2 -61 2 *
Wi

0101100
+15 0 -60 0 -10 0 +9 1 *
Fa
0  1e-07 2 0

0111000
+8 0 *
Wi

0101100
+56 0 +49 0 +42 0 +35 0 +28 0 +21 0 +14 0 +10 0 *
Fa
0  1e-07 9 0

0111000
+6 0 *
Wi

0101100
+55 0 +48 0 +41 0 +34 0 +27 0 +20 0 +13 0 +9 0 *
Fa
0  1e-07 10 0

0111000
+4 0 *
Sh

0101100
+53 0 +46 0 +39 0 +32 0 +25 0 +18 0 +11 0 +7 0 +5 0 -3 1 
*
So

1100000
-2 0 *

+1 0 