
CASCADE Topology V2, (c) Matra-Datavision
Locations 4
1
              1               0               0               0 
              0               1               0               0 
              0               0               1             126 
2  1 -1 0
1
              1               0               0               0 
              0               1               0               0 
              0               0               1              36 
2  3 -1 0
Curve2ds 8
1 0 0 0 -1 
1 6.2831853071795862 0 0 -1 
1 0 0 1 0 
1 0 -126 1 0 
1 0 0 0 -1 
1 6.2831853071795862 0 0 -1 
1 0 0 1 0 
1 0 -36 1 0 
Curves 6
1 4 0 77 1 0 0 
2 4 0 80 1 -0 0 0 0 -1 0 1 0 3
2 130 0 -46 1 -0 0 0 0 -1 0 1 0 3
1 3 -40 80 0 1 0 
2 0 -40 80 -0 1 0 1 0 0 0 0 -1 3
2 0 -4 44 -0 1 0 1 0 0 0 0 -1 3
Polygon3D 0
PolygonOnTriangulations 0
Surfaces 6
2 4 0 80 -1 0 0 0 0 -1 0 1 0 3
1 4 2.1939535322012053e-16 80 1 0 0 0 0 -1 0 1 0 
1 130 2.1939535322012053e-16 -46 1 0 0 0 0 -1 0 1 0 
2 0 -40 80 0 -1 0 1 0 0 0 0 -1 3
1 -1.7093001656742791e-16 -40 80 0 1 0 1 0 0 0 0 -1 
1 -1.7093001656742791e-16 -4 44 0 1 0 1 0 0 0 0 -1 
Triangulations 0

TShapes 27
Ve
1e-07
4 0 77
0 0

0101101
*
Ve
1e-07
130 0 77
0 0

0101101
*
Ed
 1e-07 1 1 0
1  1 0 0 126
3  1 2CN 1 0 0 126
6.28318530717959 0 6.28318530717959 -126
0

0101000
+27 0 -26 0 *
Ed
 1e-07 1 1 0
1  2 0 0 6.28318530717959
2  3 1 0 0 6.28318530717959
0 0 6.28318530717959 0
0

0101000
+27 0 -27 0 *
Ed
 1e-07 1 1 0
1  3 0 0 6.28318530717959
2  4 1 2 0 6.28318530717959
0 -126 6.28318530717959 -126
0

0101000
+26 2 -26 2 *
Wi

0101100
+25 0 -25 0 -24 0 +23 1 *
Fa
0  1e-07 1 0

0111000
+22 0 *
Wi

0101100
+24 0 *
Fa
0  1e-07 2 0

0111000
+20 0 *
Wi

0101100
+23 0 *
Fa
0  1e-07 3 0

0111000
+18 0 *
Sh

0101100
+21 0 +19 0 -17 1 *
So

0100000
-16 0 *
Ve
1e-07
3 -40 80
0 0

0101101
*
Ve
1e-07
3 -4 80
0 0

0101101
*
Ed
 1e-07 1 1 0
1  4 0 0 36
3  5 6CN 4 0 0 36
6.28318530717959 0 6.28318530717959 -36
0

0101000
+14 0 -13 0 *
Ed
 1e-07 1 1 0
1  5 0 0 6.28318530717959
2  7 4 0 0 6.28318530717959
0 0 6.28318530717959 0
0

0101000
+14 0 -14 0 *
Ed
 1e-07 1 1 0
1  6 0 0 6.28318530717959
2  8 4 4 0 6.28318530717959
0 -36 6.28318530717959 -36
0

0101000
+13 4 -13 4 *
Wi

0101100
+12 0 -12 0 -11 0 +10 3 *
Fa
0  1e-07 4 0

0111000
+9 0 *
Wi

0101100
+11 0 *
Fa
0  1e-07 5 0

0111000
+7 0 *
Wi

0101100
+10 0 *
Fa
0  1e-07 6 0

0111000
+5 0 *
Sh

0101100
+8 0 +6 0 -4 3 *
So

0100000
-3 0 *
Co

1100000
+15 0 +2 0 *

+1 0 