
CASCADE Topology V2, (c) Matra-Datavision
Locations 2
1
1.11022302462516e-16               1               0               8 
             -1 1.11022302462516e-16               0               0 
              0               0               1               0 
2  1 -1 0
Curve2ds 4
1 0 3.1415926535897931 1 0 
1 0 9.4247779607693793 1 0 
1 0 3.1415926535897931 0 1 
1 1.5707963267948966 3.1415926535897931 0 1 
Curves 2
2 4 -4 80 0 0 -1 -1 0 0 0 1 0 1
2 0 -4 80 -0 1 0 1 0 0 0 0 -1 3
Polygon3D 0
PolygonOnTriangulations 0
Surfaces 2
5 4 -4 80 -0 -0 1 -1 0 0 0 1 0 4 3
1 -1.7093001656742791e-16 -4 80 0 1 0 1 0 0 0 0 -1 
Triangulations 0

TShapes 9
Ve
1e-07
3 -4 80
0 0

0101101
*
Ed
 1e-07 1 1 0
1  1 0 0 1.5707963267949
3  1 2CN 1 0 0 1.5707963267949
0 9.42477796076938 1.5707963267949 9.42477796076938
0

0101000
+9 0 -9 1 *
Ed
 1e-07 1 1 0
1  2 0 0 6.28318530717959
2  3 1 0 0 6.28318530717959
0 3.14159265358979 0 9.42477796076938
2  4 1 2 0 6.28318530717959
1.5707963267949 3.14159265358979 1.5707963267949 9.42477796076938
0

0101000
+9 0 -9 0 *
Wi

0101100
+8 0 -8 0 -7 0 +7 1 *
Fa
0  1e-07 1 0

0101000
+6 0 *
Wi

0101100
+7 0 *
Fa
0  1e-07 2 0

0101000
+4 0 *
Sh

0101100
+5 0 +3 0 -3 1 *
So

1100000
-2 0 *

+1 0 