
CASCADE Topology V2, (c) Matra-Datavision
Locations 6
1
              1               0               0               0 
              0               1               0               0 
              0               0               1              75 
2  1 -1 0
1
              1               0               0               0 
              0               1               0               0 
              0               0               1              70 
2  3 -1 0
1
              1               0               0               0 
              0               1               0               0 
              0               0               1              70 
2  5 -1 0
Curve2ds 92
2 0 0 -1 0 0 1 32.5
1 0 0 1 0 
1 0 5 1 0 
2 0 0 -1 0 0 1 32.5
1 6.2831853071795862 0 0 1 
1 0 0 0 1 
2 0 0 -1 0 0 1 47.5
1 0 0 1 0 
1 0 7 1 0 
2 0 0 1 0 -0 1 47.5
1 6.2831853071795862 0 0 1 
1 0 0 0 1 
2 0 0 1 0 -0 1 32.5
1 0 0 1 0 
1 6.2831853071795862 0 0 1 
1 0 0 0 1 
1 0 42.5 1 0 
1 0 2.1862853408003074e-16 1 0 
7 0 0  6 42 9  3.4727193118795219 42.50003921939269  3.4881811456954894 41.462637243168956  3.5070559108393642 40.453108458980864  3.5293816148868076 39.48007954445405  3.5551695931137095 38.553853000082789  3.5844077490898827 37.687129038893623  3.6300826265093011 36.581152730736221  3.6436486296587955 36.277893127098288  3.6577561045244984 35.987777698900679  3.6723973945428021 35.712042308612354  3.6875635103907265 35.451993886037457  3.715747465413624 35.015281461894027  3.7285785955076221 34.832386486083493  3.7417232358149737 34.661185322011882  3.7551657935402356 34.502492686006576  3.7688898120586676 34.357087724197221  3.8056422250602377 34.011930577699381  3.8291368490530977 33.835026096769745  3.8531945119425672 33.699323101790341  3.877640961345806 33.607723896876131  3.902299400667721 33.561809033867753  3.9440343938900368 33.56180903386776  3.96107222491008 33.58368575163594  3.9780404483310403 33.627411487687048  3.9948755316303437 33.692608859454957  4.0115144368169524 33.778554668089271  4.0501096295929946 34.027394099394876  4.0718291739377195 34.206661385112504  4.0929754875880109 34.41963352693999  4.1134741337083769 34.663663002774584  4.1332547126354529 34.935770716454769  4.1676372824930823 35.472967616431824  4.1825220704255788 35.729752903314164  4.1968985410970827 36.001653158042821  4.2107582622087083 36.287427691748462  4.2240940422517426 36.585902847329088  4.2695611675407603 37.68675097001821  4.2988029555474094 38.553528297840842  4.3245940270841885 39.479819372680943  4.3469223543677469 40.452927462527249  4.3657991322905509 41.462546263980641  4.3812623220949609 42.50003921939269 
 0 7 0.2238566949374933 5 0.31309857079746534 5 0.38425358738647042 5 0.50005046547145771 5 0.5799807931288522 5 0.68837731411537517 5 0.77614896821532864 5 1 7
7 0 0  6 42 9  3.5441019987157185 -28.565713714198314  3.6184697817154263 -28.565712289893781  3.6943389569942289 -28.610920704005416  3.7719767565849023 -28.696782471805221  3.8516685231207877 -28.815906602798197  3.9337290139651548 -28.957928507610355  4.0523650590142379 -29.170825538706307  4.0866292644717097 -29.233146553076569  4.121356786892064 -29.296283613681112  4.1565625258218608 -29.359347238609335  4.1922639340413763 -29.421403133868992  4.2573603555033479 -29.529405249525368  4.2865690066656112 -29.576070799760945  4.3160967763297107 -29.620967134368684  4.3459346277294415 -29.663573037709693  4.3760756244718531 -29.703385302368151  4.4560504036638333 -29.799415346949175  4.5064421884800101 -29.850335342871208  4.5574617512935189 -29.89037778423771  4.6089134942385943 -29.917731459793281  4.6606166558437589 -29.931442627228108  4.748125512600228 -29.931442627228108  4.7838499953501747 -29.924909757211626  4.8194920013460338 -29.911852275901694  4.8549815273202075 -29.892492149987529  4.8902458908646835 -29.867262757206859  4.972618007116405 -29.795406484346604  5.0194280474077972 -29.744396490502208  5.0656022719659006 -29.685128320981107  5.1110961613722798 -29.61931343007009  5.155853159712791 -29.548854595413825  5.2353860172136599 -29.416405693562478  5.270472072636136 -29.355302714254506  5.3050791012101106 -29.293268758912259  5.339223813735881 -29.23119129123128  5.3729205461529732 -29.169915458877096  5.4910132125130904 -28.957990320801205  5.5730814217360489 -28.815948518352968  5.6527804333041187 -28.696805763027417  5.7304254133702033 -28.610928621506215  5.8063016570685617 -28.565712289768879  5.8806759620536608 -28.565713714198321 
 0 7 0.2238566949374933 5 0.31309857079746534 5 0.38425358738647042 5 0.50005046547145771 5 0.5799807931288522 5 0.68837731411537517 5 0.77614896821532864 5 1 7
7 0 0  5 6 2  4.2082811258021176 42.500035271335022  4.2535031881591516 38.633403974963365  4.2987252505161964 34.646198337200239  4.3439473128732207 30.554891061661476  4.3891693752302521 26.376987023894291  4.4343914375872862 22.130578947368434 
 1.0666884722123244 6 1.292798783997493 6
3 48.074017006186516 0 -1 0 -0 -1 102.91666666666664 32.5
7 0 0  7 32 6  4.4161265944583192 23.841105263157893  4.4234907698696411 23.153319656810549  4.4327793821117538 22.478118114466628  4.444015804438731 21.818573542704147  4.4572447182928512 21.178733399770529  4.4725255709009302 20.56398628838544  4.489924149485411 19.981607698293125  4.5253670480910921 19.003946010412641  4.5427726982533025 18.591090822856547  4.5616940308326885 18.211588365475503  4.5820727062789164 17.874034694593046  4.603824358012198 17.587039587478248  4.626839087799766 17.359333513035015  4.6729424473192687 17.054906463217812  4.6956711132858988 16.967553742696676  4.7187791924187037 16.944819915684263  4.7418667937327026 16.989102935703258  4.7645348407199597 17.098483096984733  4.7863956015944966 17.266700013573494  4.8285219823429282 17.706872466587924  4.8487586022932572 17.982882300142315  4.8677441529010101 18.30313653130948  4.8854440555340952 18.660656231441035  4.9018402477360201 19.049134742735099  4.9169285781220333 19.462824549381534  4.9466567905711258 20.397686625467223  4.9609261677623673 20.927611863069924  4.9735708882399399 21.480280730844449  4.9846334117135322 22.051131580825913  4.9941508686612979 22.63664201753436  5.002151454926083 23.234038586521166  5.008651366311061 23.841105263157907 
 0 8 0.23844549708708812 6 0.43165110033147402 6 0.60748325396418346 6 0.78956671881967688 6 1 8
7 0 0  7 32 6  8.8817841970012523e-16 -31.084116509384259  0.072487814052335287 -31.153989962139601  0.145689574459205 -31.240156298363384  0.2199761903923127 -31.340981339235267  0.29570706947873571 -31.454254119497531  0.37325984884603952 -31.577008241251615  0.45303391011017574 -31.705181990643911  0.60232592974274979 -31.937285248135431  0.67138233494238075 -32.041922418042489  0.74256789250124822 -32.143824523193622  0.81584318974123016 -32.238884739934008  0.89122529393566219 -32.322631019855827  0.96879127451041958 -32.390586381558009  1.1214116947937316 -32.482547271844702  1.1955113989517665 -32.509621960130801  1.2702251152072725 -32.516877775149716  1.3448996652393932 -32.502997590246189  1.4188990727967901 -32.468988442210104  1.4915211300299196 -32.417972598924926  1.6347498290571212 -32.288509212909432  1.7053814015176776 -32.20898040960725  1.7739771144155638 -32.119490365384159  1.8406829865174037 -32.023643811856694  1.9056101712728704 -31.924719651941722  1.968844692324041 -31.825544685677876  2.1016472165473878 -31.616273223625445  2.1709595017731429 -31.506421106404229  2.2386931769684004 -31.402194894405998  2.3051178236127723 -31.306130800482062  2.3704838272198714 -31.220169725000186  2.4350348741762553 -31.145789571975079  2.4990154750601725 -31.084116509384266 
 0 8 0.23844549708708812 6 0.43165110033147402 6 0.60748325396418346 6 0.78956671881967688 6 1 8
7 0 0  5 6 2  4.9903865231820932 22.130578947368406  5.0356085855391273 26.376987023894262  5.0808306478961613 30.554891061661433  5.1260527102532079 34.646198337200246  5.1712747726102277 38.633403974963343  5.2164968349672618 42.500035271335001 
 4.9903865231820932 6 5.2164968349672618 6
3 -30.046260628866577 -0 1 0 -0 1 102.91666666666664 32.5
7 0 0  5 6 2  4.993679265597982 42.500037289346075  5.0389013326753327 38.63340563971488  5.0841233997526931 34.646199618362523  5.1293454668300349 30.554891933847575  5.1745675339073838 26.376987467137923  5.2197896009847344 22.130578947368434 
 1.0666884486107406 6 1.292798783997493 6
3 48.074017006186523 3.2922238681115228e-16 -1 4.3618443965022853e-17 -4.3618443965022853e-17 -1 102.91666666666664 32.5
7 0 0  7 32 6  5.2015247578557675 23.841105263157889  5.2088889332670947 23.153319656809973  5.218177545509195 22.478118114467208  5.229413967836182 21.818573542704357  5.242642881690295 21.178733399770124  5.2579237342983802 20.563986288385607  5.2753223128828637 19.981607698292983  5.3107652114892101 19.003946010394198  5.3281708616508592 18.591090822859289  5.3470921942295222 18.211588365489593  5.3674708696757163 17.874034694599256  5.3892225214097618 17.587039587472137  5.4122372511980625 17.359333513029416  5.4583406107167178 17.054906463217797  5.4810692766833196 16.967553742696762  5.5041773558161919 16.944819915684192  5.5272649571301313 16.989102935703201  5.5499330041174231 17.098483096984893  5.571793764991936 17.266700013573384  5.6139201459039683 17.706872468297263  5.6341567653421523 17.982882294938406  5.6531423164615218 18.303136535446281  5.6708422191459382 18.660656234492926  5.6872384108495657 19.04913473621091  5.702326741620384 19.462824552554626  5.7320549539685333 20.397686625465944  5.7463243311598458 20.927611863070496  5.7589690516374104 21.48028073084588  5.7700315751109628 22.051131580825523  5.7795490320587293 22.636642017532743  5.7875496183235446 23.234038586522445  5.7940495297085093 23.841105263157903 
 0 8 0.23844549599322759 6 0.43165109835948123 6 0.60748325119919966 6 0.78956671662333067 6 1 8
7 0 0  7 32 6  8.8817841970012523e-16 -31.084116509384252  0.072487814052395627 -31.153989962139654  0.14568957445914565 -31.240156298363484  0.21997619039228702 -31.340981339234887  0.29570706947878006 -31.454254119497914  0.37325984884601698 -31.577008241251431  0.45303391011019728 -31.705181990643954  0.60232592974556531 -31.937285248139823  0.67138233494248234 -32.041922418042326  0.74256789249889577 -32.143824523189785  0.81584318973911429 -32.238884739931898  0.89122529393615402 -32.322631019857631  0.96879127451322322 -32.390586381559693  1.1214116947937354 -32.482547271844716  1.1955113989517259 -32.509621960130744  1.2702251152073016 -32.516877775149801  1.3448996652393985 -32.502997590246075  1.4188990727968258 -32.468988442210147  1.491521130029885 -32.417972598924933  1.6347498296133298 -32.288509212406652  1.7053814002587189 -32.208980410994641  1.7739771150889154 -32.119490364404847  1.8406829872827459 -32.023643811025693  1.9056101701320789 -31.924719653507118  1.9688446927747978 -31.825544684967571  2.1016472165472062 -31.616273223625733  2.1709595017732632 -31.50642110640408  2.2386931769685448 -31.402194894405717  2.3051178236126941 -31.306130800482119  2.3704838272197266 -31.220169725000453  2.4350348741763903 -31.145789571974923  2.4990154750601725 -31.084116509384241 
 0 8 0.23844549599322759 6 0.43165109835948123 6 0.60748325119919966 6 0.78956671662333067 6 1 8
7 0 0  5 6 2  5.7757846865795415 22.130578947368406  5.8210067536568921 26.376987467137894  5.8662288207342641 30.554891933847493  5.911450887811589 34.646199618362353  5.9566729548889432 38.633405639714859  6.0018950219662939 42.500037289346054 
 4.9903865231820932 6 5.2164968585688456 6
3 -30.04626062886658 -1.8671557610617824e-16 1 -4.3618443965022853e-17 4.3618443965022853e-17 1 102.91666666666664 32.5
7 0 0  4 14 5  5.9838133296141329 40.946368421052632  5.9846657483729224 41.019968006527186  5.985501685397419 41.093688132202075  5.986321102819721 41.167525565219357  5.9879232366929696 41.315098254747518  5.9887061007089155 41.388832494949924  5.989472516697762 41.46267651782631  5.9911608266876151 41.629160554622302  5.9920733943150681 41.721860820447127  5.992960075880597 41.814721419753241  5.9951859100802674 42.055257209750621  5.9964857244678038 42.203165457217587  5.9977199505114438 42.351434448155956  5.9988883138010447 42.500037289346054 
 0 5 0.19168374505550129 3 0.382511503033866 3 0.62129225079015349 3 1 5
7 0 0  4 14 5  0 -28.736372176608775  0.0048480524099483906 -28.723431378533057  0.0096936149228007713 -28.710712953599526  0.014536802500747074 -28.698219924216684  0.024197027111897015 -28.673745213309179  0.029014084348230391 -28.661761497199851  0.033829002448466337 -28.650006890554373  0.044664187968099955 -28.624065787657301  0.050683302364196624 -28.610010443395588  0.056699423387250071 -28.596323414309165  0.07224988347167495 -28.56189402863734  0.081779964702718505 -28.541717372079443  0.091303709840228772 -28.522499616916303  0.1008217675404115 -28.504258279256245 
 0 5 0.19168374505550129 3 0.382511503033866 3 0.62129225079015349 3 1 5
7 0 0  6 12 3  5.9988880206186073 2.1862853408003084e-16  6.0048038631240956 0.023151421479399609  6.0095657297760035 0.046592301288516866  6.0131691566475158 0.07024946385953143  6.015606982330346 0.094052238284743558  6.0168662930255303 0.11793034538956305  6.0169833920526683 0.162711247371264  6.0161212892184528 0.18361372480286151  6.014330216417533 0.20447008463116342  6.0115943465852242 0.2252313252140998  6.0078948316005167 0.24584664843037865  6.0032103933884651 0.26626212387294917 
 0 7 0.53328197645398334 5 1 7
7 0 0  6 12 3  0.10081937914569382 -28.504262856632501  0.14901221418281049 -28.41190046910733  0.19718297886693431 -28.31802415199477  0.24533542385982859 -28.222992871664758  0.29347569660455852 -28.127175451747831  0.34161024961925401 -28.03095159577569  0.4318697567833954 -27.850486051169749  0.47399554735419408 -27.766246617541896  0.51612491730183974 -27.682256016660631  0.55826227266509432 -27.598779339634476  0.60041193501254764 -27.516084777386922  0.64257717852961882 -27.434443373440747 
 0 7 0.53328197645398334 5 1 7
7 0 0  8 16 3  6.003210393388466 0.26626212387294929  5.9941341219490578 0.30581785890316532  5.9860090581423124 0.34560064468061169  5.9788393937866076 0.38557774714486392  5.9726444303686206 0.42571846099542565  5.9674616550802595 0.46599302431217482  5.963350139521304 0.50637166954987434  5.9603979782872392 0.54682326852128393  5.9570769910363852 0.62780278944552548  5.9567081831265529 0.66833070796427385  5.9577633676731274 0.70886200104213481  5.9604197394230747 0.7493580878438989  5.9649139275343295 0.78977452770183409  5.971572182837102 0.83005640227513944  5.9808492183719366 0.87013355808697124  5.9934568075580312 0.90990090223234177 
 3.26202113442841 9 3.6431908517707128 7 4.0243605691130142 9
2 -3.3199536612759242 1.0120652520932364e-14 2.3992288231475678e-17 1 -1 2.3992288231475678e-17 27.634593818682152
7 0 0  8 107 16  5.9934568075580321 0.90990090223234166  6.0042835273591786 0.94405095946712281  6.0141077967328211 0.97822486367462913  6.0230302380642868 1.0124011304027916  6.0311277798875249 1.0465620670749194  6.0384627998344405 1.0806949547573119  6.0450872554405715 1.1147925213872625  6.0510438006465801 1.1488532697440563  6.0590596430903512 1.2001058750177831  6.0615907684985597 1.2173203558573849  6.0639633132390651 1.2345257413668993  6.066181005650753 1.2517221806019672  6.0682469258939351 1.2689099150668954  6.0701631806122913 1.2860892975102174  6.07193057759482 1.3032608107202555  6.0752241034388987 1.3382056008806074  6.07673859509908 1.355978220722696  6.0780947096502551 1.3737436513398613  6.079273089251779 1.3915027167486942  6.0802991989981479 1.4092561058400876  6.0810967732984818 1.4270050540247881  6.0817065130823966 1.444750421041376  6.0818961901705961 1.4670634309297113  6.0819044081127007 1.4716317810170543  6.0818777545599048 1.476200125809134  6.081808992521001 1.4807685246228508  6.0816893975059942 1.4853370460043613  6.0815069633207779 1.4899057751330418  6.0812413187948344 1.4944748309024691  6.0806534582206622 1.501434727973779  6.0804188996927442 1.5038241896288433  6.0801456161715119 1.5062126692245186  6.0798272230033357 1.5085999859072485  6.0794554023230587 1.5109858896208881  6.0790182908094508 1.513370064338571  6.0784988674406231 1.5157521312945825  6.0772477856966898 1.520511284830413  6.0765160643338714 1.5228880138230565  6.0756523810259049 1.5252617172003271  6.0746253964555379 1.5276318356087517  6.0733848961106593 1.5299973734105359  6.0718630349612432 1.5323569104377972  6.0699551001004277 1.5347086185130152  6.0660754539478621 1.5383275331695634  6.064515764148954 1.5396014987700339  6.0627512005392967 1.5408719099800141  6.0607399112666558 1.5421382288255776  6.0584126553147453 1.5433996430032784  6.0556728025032305 1.5446550658801512  6.0523963334877244 1.5459031364937132  6.0419585627556289 1.549165410510924  6.0338442845836848 1.5512249547239674  6.0209924379314028 1.553327177734124  6.0049183446588996 1.5554671834631908  5.9814877462697149 1.5575369417362226  5.9401601293560251 1.5593344886551674  5.8727368460183627 1.5606742398216422  5.6908255576842555 1.5627466303073962  5.5765872786803676 1.5632025730222125  5.4566125882876317 1.5632073228706347  5.3311817712807121 1.5630204534061762  5.2091062677315092 1.5625236994893346  5.1091163259363404 1.5612481304983039  5.0466720417082422 1.5588248306795927  4.9858885965388398 1.5543709345326175  4.9718084471594421 1.5528177674012367  4.9619311342351455 1.5512205657622498  4.9546875674886799 1.5495951543227375  4.9489657680265697 1.5479522019790228  4.944110868339135 1.5462972218166682  4.9399251123004886 1.544630571110476  4.9334161750120513 1.541267213324427  4.9308134129545049 1.5395773126217742  4.9287003330164758 1.5378796970698627  4.9269485916086184 1.5361759682230658  4.9254607375316555 1.5344673813367973  4.9241702119763833 1.5327548453675128  4.9230413485236655 1.5310389229727088  4.9197407496819343 1.5252012909611687  4.9182407606838225 1.5210850532415985  4.917132181686477 1.5169702929431619  4.9163149413536233 1.5128566471626255  4.9156794467119411 1.5087438402042963  4.9151908468156069 1.504631676886532  4.914809148197647 1.5005199787990007  4.9142153362430934 1.4922740813926552  4.9140038715065346 1.4881399403534414  4.9138555773607973 1.4840060363939753  4.9137566980950647 1.479872286960277  4.9136984928267911 1.4757386301927036  4.913674527275445 1.4716050155846412  4.9136795889474492 1.4674713995291748  4.9138433413397227 1.445377185084364  4.9144569313699717 1.4274159481635513  4.9152592741351873 1.4094510472883799  4.9162989469637086 1.3914816193321542  4.9174921500723983 1.3735063637952876  4.9188684263219846 1.3555245804365774  4.9204064557957761 1.3375354109155675  4.9269339603262416 1.2685650057689954  4.9330761062533597 1.2175481074523646  4.9405134617974111 1.1664455864328285  4.9493750644196277 1.1152444754969577  4.9597546157616144 1.0639533620315424  4.9718405929505476 1.0125999477666292  4.9858440486546227 0.96123118714516242  5.0021174800062447 0.90990090223234232 
 0 9 0.23133122675951515 7 0.34841882464548013 7 0.46971015015570039 7 0.50093697241775448 7 0.51727170626633168 7 0.53360720685241947 7 0.54251739742488192 7 0.55706607266405739 7 0.57514161293000898 7 0.58421156399132212 7 0.59326598576141332 7 0.61495824198917737 7 0.63677234384608727 7 0.73155374575662835 7 1 9
7 0 0  8 107 16  0 -17.548391710683287  0.071801012976787357 -16.674928643083327  0.14200908136841256 -15.795011990467103  0.21085419096575361 -14.909565736982824  0.27850935959978185 -14.019443707451115  0.34511902890773938 -13.125388051579151  0.41081142033770263 -12.228006078877632  0.47570408828828731 -11.327753561536767  0.57241049384335263 -9.9679424231034535  0.60473169218759537 -9.51033625852134  0.63688932305208079 -9.0521463476113642  0.66889635460450902 -8.5934227843946562  0.70076510872494346 -8.1342133398320566  0.7325074712895715 -7.6745632635832335  0.76413510245446226 -7.214515085765802  0.82831599872817308 -6.2771720400658246  0.86086152649763048 -5.7998546593597133  0.89330901506262206 -5.3221993091930901  0.92567210077162487 -4.8442535101689987  0.95796193854783973 -4.3660571034137554  0.9901957354403168 -3.8876700304499057  1.0223851629441221 -3.4091334401986071  1.0628495083240965 -2.807352965163215  1.0711335978990564 -2.6841412597411543  1.0794176178265049 -2.5609293119336982  1.08770230735985 -2.4377196176901683  1.095988527459097 -2.3145151193248563  1.1042773559412848 -2.1913195248397219  1.1125703163762928 -2.0681380803692955  1.1252111651209356 -1.8805542405243405  1.1295525157933672 -1.8161630038186209  1.133893902210553 -1.7518099541771088  1.1382353307243942 -1.6875021067676792  1.1425767569301553 -1.6232488084067229  1.1469181380231683 -1.5590619225862707  1.1512594851555344 -1.4949560145011305  1.1599425502129155 -1.3669380531982362  1.1642836211422256 -1.3030356544068491  1.1686248615380681 -1.239250465399901  1.1729664211611182 -1.175604765660113  1.1773081265868137 -1.1121351221586675  1.1816495406446181 -1.0488925468625112  1.1859904101579599 -0.98594422619801358  1.1927002584099586 -0.88925340164192679  1.1950682920726572 -0.85525014905548435  1.1974362577740247 -0.82138038613361053  1.1998042070682775 -0.7876642318697632  1.2021721771355527 -0.75413115098174621  1.2045401907819098 -0.72081995391170739  1.2069082564393301 -0.68777879682613907  1.2131430518417956 -0.60164996454247899  1.2171227621418521 -0.54756333307208127  1.2212634604926098 -0.49255663723891824  1.2255653904063191 -0.43709840693291707  1.2298955633688444 -0.38439714207496184  1.2340064870497913 -0.3398390422259876  1.2376591358346831 -0.30784067562990725  1.2448147550488253 -0.25912618342079519  1.2477110327209073 -0.24901460863477914  1.2505961303770821 -0.24980768725183894  1.2534265953731634 -0.25372274864230832  1.2564285668555855 -0.26351816014528734  1.2604280049565226 -0.29251186246507899  1.266140971067665 -0.3522689079461126  1.2755766392217855 -0.46593730228176428  1.2787370224418166 -0.50604995517497486  1.2818986223654349 -0.54765657118360322  1.2850575975070753 -0.59026751383989584  1.2882127513829109 -0.63354289943073039  1.2913655325108553 -0.67729259699761579  1.2945200344105601 -0.72147622833669256  1.3008405412714095 -0.81085352757045304  1.3039979496596183 -0.85586346087644238  1.3071552610834336 -0.90116210282447951  1.3103125195330882 -0.94669092093537477  1.3134697726736564 -0.99240371534297356  1.3166270718450519 -1.0382666187941527  1.3197844720620304 -1.0842580966488224  1.3305067999558569 -1.2408396542858071  1.3380363301167602 -1.351439410510352  1.3455453587735586 -1.4621127680539523  1.3530392887858187 -1.5728388581673052  1.360522668094118 -1.6836005593344048  1.3679979415196619 -1.7943893708048932  1.3754672777015928 -1.9051985534893241  1.3904391400685239 -2.127472986940055  1.3979415242266655 -2.238936910507686  1.4054409135880781 -2.3504110801022184  1.4129383623522829 -2.4618918728351407  1.4204346526626088 -2.5733766029707148  1.4279304189305446 -2.6848631030929937  1.4354262051162681 -2.7963495319241538  1.4754933613647354 -3.3922317491418532  1.5080730458660838 -3.8765982648887274  1.5406980895617679 -4.3608120035051723  1.5733802358976074 -4.8448314645219437  1.6061375746432744 -5.3285936485205738  1.6389814980624409 -5.8120578245123085  1.6719262107625783 -6.2951745098643492  1.79861616188447 -8.1451044799847701  1.8931233327771375 -9.5085913211279944  1.9888564364861618 -10.868006054935602  2.0861386436398361 -12.222313699308373  2.1853161593315638 -13.569837755047466  2.2868012536355282 -14.908434989144716  2.3910927729753886 -16.235506411180225  2.4990154750601716 -17.548391710683269 
 0 9 0.23133122675951515 7 0.34841882464548013 7 0.46971015015570039 7 0.50093697241775448 7 0.51727170626633168 7 0.53360720685241947 7 0.54251739742488192 7 0.55706607266405739 7 0.57514161293000898 7 0.58421156399132212 7 0.59326598576141332 7 0.61495824198917737 7 0.63677234384608727 7 0.73155374575662835 7 1 9
7 0 0  8 107 16  5.2080586441605838 0.90990090223234166  5.2188853639617463 0.94405095946716822  5.2287096333353213 0.97822486367452433  5.2376320746668821 1.0124011304028655  5.2457296164900944 1.0465620670749498  5.2530646364369522 1.0806949547572344  5.2596890920431418 1.1147925213872971  5.2656456372491318 1.1488532697440559  5.2736614796929029 1.2001058750177822  5.2761926051011079 1.2173203558573853  5.2785651498416133 1.2345257413668997  5.2807828422533056 1.2517221806019669  5.2828487624964904 1.2689099150668948  5.2847650172148475 1.2860892975102176  5.2865324141973735 1.3032608107202563  5.289825940041446 1.3382056008805443  5.2913404317018955 1.3559782207229587  5.2926965462520252 1.3737436513393226  5.2938749258553717 1.3915027167493321  5.2949010355999917 1.4092561058396458  5.2956986099012457 1.4270050540249537  5.2963083496849492 1.4447504210413511  5.2964980267731496 1.467063430929705  5.2965062447152551 1.4716317810170658  5.2964795911624556 1.476200125809134  5.2964108291235519 1.4807685246228404  5.2962912341085477 1.485337046004362  5.2961087999233358 1.4899057751330533  5.2958431553973915 1.4944748309024614  5.2952552948232166 1.5014347279737781  5.2950207362952932 1.5038241896288433  5.2947474527740637 1.5062126692245188  5.2944290596058927 1.5085999859072483  5.2940572389256202 1.5109858896208876  5.2936201274120078 1.5133700643385715  5.2931007040431703 1.5157521312945841  5.2918496222992326 1.5205112848304219  5.2911179009364604 1.5228880138230509  5.2902542176284797 1.5252617172003136  5.2892272330580585 1.5276318356087675  5.2879867327131898 1.5299973734105485  5.2864648715638323 1.5323569104377686  5.2845569367029723 1.5347086185130303  5.2806772905504245 1.5383275331695649  5.2791176007515155 1.5396014987700344  5.2773530371418609 1.5408719099800143  5.2753417478692226 1.5421382288255778  5.273014491917313 1.5433996430032786  5.2702746391057982 1.5446550658801514  5.266998170090293 1.5459031364937137  5.2565603993582082 1.5491654105109225  5.2484461211861975 1.5512249547239787  5.2355942745341526 1.553327177734122  5.2195201812615917 1.5554671834631781  5.1960895828719691 1.5575369417362208  5.1547619659581665 1.5593344886551785  5.087338682621243 1.56067423982164  4.9054273942870079 1.5627466303073965  4.7911891152828758 1.5632025730221981  4.6712144248900787 1.5632073228706338  4.545783607883223 1.5630204534061884  4.4237081043340547 1.5625236994893403  4.3237181625388716 1.5612481304982975  4.2612738783108011 1.5588248306795958  4.2004904331413844 1.5543709345326193  4.1864102837619726 1.5528177674012378  4.1765329708376626 1.5512205657622498  4.1692894040911987 1.5495951543227373  4.163567604629109 1.5479522019790235  4.1587127049417063 1.5462972218166697  4.1545269489030847 1.5446305711104771  4.1480180116146368 1.5412672133244263  4.1454152495570726 1.5395773126217749  4.1433021696190266 1.537879697069864  4.1415504282111577 1.5361759682230673  4.140062574134193 1.5344673813367982  4.1387720485789252 1.5327548453675128  4.1376431851262154 1.5310389229727084  4.13434258628447 1.525201290961143  4.1328425972864782 1.5210850532417086  4.1317340182888911 1.5169702929429039  4.1309167779562586 1.5128566471630061  4.130281283314476 1.5087438402039459  4.1297926834181622 1.5046316768867269  4.1294109848001952 1.5005199787989456  4.1288171728456451 1.4922740813926483  4.1286057081090837 1.4881399403534472  4.1284574139633534 1.4840060363939762  4.1283585346976235 1.4798722869602718  4.1283003294293419 1.4757386301927042  4.1282763638779905 1.4716050155846476  4.1282814255500053 1.4674713995291697  4.1284451779422779 1.4453771850842747  4.1290587679725004 1.4274159481640405  4.1298611107377967 1.4094510472872197  4.1309007835661813 1.3914816193336863  4.1320939866750201 1.3735063637940939  4.133470262924499 1.3555245804371008  4.1350082923983384 1.3375354109154649  4.1415357969287934 1.2685650057689992  4.1476779428558892 1.2175481074524215  4.1551152984000526 1.1664455864325616  4.1639769010220204 1.115244475497462  4.1743564523643233 1.0639533620310402  4.1864424295530158 1.0125999477668897  4.200445885257194 0.96123118714510092  4.2167193166087973 0.90990090223234132 
 0 9 0.23133122675747864 7 0.3484188246424102 7 0.46971015015113965 7 0.50093697241272073 7 0.51727170626101748 7 0.53360720684689977 7 0.54251739741930616 7 0.55706607265837482 7 0.57514161292410704 7 0.58421156398529916 7 0.59326598575525313 7 0.61495824198283622 7 0.6367723438398929 7 0.73155374575165633 7 1 9
7 0 0  8 107 16  0 -17.548391710683294  0.071801012976882753 -16.674928643082175  0.14200908136818671 -15.795011990469877  0.21085419096591915 -14.909565736980841  0.27850935959984513 -14.019443707450307  0.34511902890756674 -13.125388051581213  0.41081142033778278 -12.228006078876716  0.47570408828828659 -11.327753561536783  0.5724104938433523 -9.9679424231034659  0.60473169218759648 -9.5103362585213329  0.63688932305208135 -9.0521463476113588  0.66889635460450791 -8.5934227843946722  0.70076510872494191 -8.1342133398320833  0.7325074712895715 -7.6745632635832397  0.7641351024544647 -7.2145150857657745  0.82831599872805783 -6.2771720400675211  0.86086152649803371 -5.7998546593509452  0.8933090150619063 -5.3221993092126691  0.92567210077238071 -4.8442535101453643  0.95796193854734635 -4.3660571034298137  0.99019573544051787 -3.8876700304442746  1.0223851629440759 -3.409133440199291  1.0628495083240841 -2.8073529651633922  1.0711335978990772 -2.6841412597408398  1.0794176178265047 -2.5609293119337218  1.0877023073598315 -2.4377196176904796  1.0959885274590984 -2.3145151193248363  1.1042773559413057 -2.1913195248393773  1.1125703163762788 -2.068138080369506  1.1252111651209333 -1.88055424052436  1.1295525157933681 -1.8161630038186267  1.1338939022105543 -1.7518099541771111  1.1382353307243935 -1.6875021067676921  1.1425767569301535 -1.6232488084067398  1.1469181380231686 -1.5590619225862725  1.1512594851555382 -1.4949560145011149  1.1599425502129321 -1.3669380531980262  1.1642836211422112 -1.3030356544066626  1.1686248615380477 -1.2392504654007355  1.1729664211611495 -1.1756047656597115  1.1773081265868333 -1.1121351221578641  1.1816495406445666 -1.0488925468635886  1.1859904101579877 -0.98594422619761479  1.19270025840996 -0.88925340164191802  1.1950682920726576 -0.85525014905547669  1.1974362577740245 -0.82138038613360465  1.1998042070682771 -0.78766423186975842  1.2021721771355525 -0.75413115098174044  1.2045401907819098 -0.72081995391169917  1.2069082564393301 -0.68777879682612841  1.2131430518417912 -0.60164996454252673  1.2171227621418665 -0.54756333307177496  1.2212634604926003 -0.49255663723896481  1.2255653904062984 -0.43709840693327373  1.2298955633688504 -0.38439714207507275  1.2340064870498182 -0.33983904222574352  1.2376591358346722 -0.30784067562994633  1.24481475504882 -0.25912618342079696  1.2477110327209004 -0.24901460863521221  1.2505961303770847 -0.24980768725187164  1.253426595373172 -0.25372274864194544  1.2564285668555892 -0.2635181601451323  1.2604280049565182 -0.29251186246528743  1.2661409710676603 -0.35226890794603172  1.2755766392217842 -0.46593730228173597  1.2787370224418175 -0.50604995517495732  1.2818986223654378 -0.54765657118359823  1.2850575975070777 -0.59026751383989262  1.2882127513829111 -0.63354289943071818  1.2913655325108517 -0.67729259699759481  1.2945200344105552 -0.72147622833668557  1.3008405412714092 -0.81085352757050622  1.3039979496596168 -0.85586346087645926  1.3071552610834321 -0.90116210282446263  1.3103125195330876 -0.94669092093534479  1.3134697726736564 -0.99240371534295391  1.3166270718450532 -1.0382666187941583  1.319784472062032 -1.0842580966488471  1.3305067999559046 -1.240839654286507  1.3380363301165255 -1.3514394105063126  1.3455453587741344 -1.4621127680645429  1.3530392887849703 -1.572838858151858  1.3605226680948816 -1.6836005593476724  1.367997941519258 -1.7943893707984255  1.3754672777016934 -1.9051985534908216  1.3904391400685359 -2.1274729869402376  1.3979415242266451 -2.2389369105074084  1.405440913588077 -2.3504110801022198  1.4129383623523013 -2.4618918728354191  1.4204346526626115 -2.5733766029707432  1.4279304189305269 -2.6848631030927312  1.4354262051162758 -2.7963495319243137  1.4754933613648962 -3.3922317491442779  1.5080730458658436 -3.876598264876133  1.5406980895618538 -4.3608120035347238  1.5733802358975921 -4.8448314644828461  1.6061375746435096 -5.3285936485514807  1.6389814980620798 -5.8120578244985257  1.6719262107627666 -6.2951745098671132  1.7986161618844632 -8.1451044799846795  1.8931233327775077 -9.5085913211271507  1.9888564364852712 -10.868006054940185  2.0861386436406577 -12.222313699299013  2.1853161593313746 -13.569837755057689  2.286801253635339 -14.908434989138854  2.391092772975516 -16.235506411181838  2.4990154750601716 -17.54839171068333 
 0 9 0.23133122675747864 7 0.3484188246424102 7 0.46971015015113965 7 0.50093697241272073 7 0.51727170626101748 7 0.53360720684689977 7 0.54251739741930616 7 0.55706607265837482 7 0.57514161292410704 7 0.58421156398529916 7 0.59326598575525313 7 0.61495824198283622 7 0.6367723438398929 7 0.73155374575165633 7 1 9
7 0 0  8 16 3  4.2167193166087973 0.90990090223234132  4.2293269057948919 0.8701335580869709  4.2386039413315535 0.83005640227466626  4.2452621966175004 0.78977452770396828  4.2497563847611062 0.74935808784139379  4.2524127564756773 0.70886200104367836  4.2534679410408067 0.66833070796421412  4.2530991331304433 0.62780278944552548  4.2497781458795902 0.54682326852128393  4.2468259846448548 0.50637166954983215  4.2427144690880469 0.46599302431228951  4.2375316937985232 0.4257184609954231  4.2313367303792173 0.38557774714474807  4.2241670660253465 0.34560064468065838  4.2160420022177707 0.30581785890316548  4.2069657307783634 0.26626212387294951 
 0.68802841127167647 9 1.0691981286139762 7 1.4503678459562792 9
2 21.347710038595881 -0 -1 0 -0 -1 27.634593818682166
7 0 0  8 44 7  4.4334588094226994 0.18377566108048568  4.4374361206443496 0.2223493562393303  4.4382758365447597 0.26125039039154063  4.4358709731219061 0.30016944356781983  4.4301016057380327 0.33880657845875622  4.4208163495606954 0.37685191030250703  4.4078376633625567 0.41397158864902334  4.3909784064603405 0.44978830423648569  4.3501833668744361 0.51649110772775564  4.3265769632854676 0.54754216649364051  4.2992003113931876 0.57666566089267179  4.2679972819788787 0.6034832258889975  4.2329851065854305 0.62759476456841179  4.1943524839558588 0.64859011872551486  4.1525456676006609 0.66608657664010806  4.0659782527990478 0.69287663979589742  4.0214188492950012 0.70251288251798216  3.9751705954100105 0.7084449426432845  3.9279947427809905 0.71049280215208244  3.880804227076518 0.70859103979913474  3.8345136523353807 0.70280168012281385  3.7898885545089085 0.69330206178899789  3.702698078709842 0.66663758119124539  3.6603819383027996 0.64905177188438212  3.6212968054507426 0.6278873122348122  3.5859067486571998 0.60353856554465901  3.5544062595748156 0.57642873075606793  3.5268111270736346 0.54697026657128678  3.5030621760836889 0.51555272242241745  3.4629348732280976 0.44939915457340679  3.4465826437005411 0.4146294772124815  3.4338859412125791 0.3786308226873687  3.4246766590658417 0.34174772519087832  3.4187903955544274 0.30428827265225228  3.4160893938836496 0.26653674668500987  3.4164599051695155 0.22877008053081735  3.4220165654366062 0.16642977187466157  3.4255355511312895 0.14169996576612626  3.430331455159386 0.11716189643120137  3.4363800549275205 0.092892019731548245  3.4436608600612053 0.068965281068459006  3.4521561553475242 0.045456652589624058  3.4618489590252706 0.022442245860460404  3.4727198964225541 2.1862853408003081e-16 
 0 9 0.18349932628340104 7 0.35900673012525425 7 0.52653068240524037 7 0.70381921500287947 7 0.88197669957097391 7 1 9
7 0 0  8 44 7  -8.8817841970012523e-16 -28.565713714171416  0.081294850129896012 -28.565713714171416  0.16261341543794305 -28.565713714171451  0.24391856727489003 -28.565713714171356  0.3252126963386468 -28.565713714171498  0.40650685776231299 -28.565713714171356  0.48781191663976919 -28.565713714171448  0.56912918827769587 -28.565713714171416  0.7281707304909002 -28.565713714171412  0.80594037247399619 -28.565713714171437  0.88369805132671253 -28.565713714171402  0.96144414093108832 -28.565713714171419  1.0391872636517281 -28.565713714171444  1.1169361931929362 -28.565713714171402  1.1946917959875583 -28.565713714171416  1.3466202547011994 -28.565713714171416  1.420829139753371 -28.565713714171412  1.4950277588037597 -28.565713714171427  1.5692177779160135 -28.565713714171423  1.6434077756348273 -28.565713714171416  1.7176063336770824 -28.565713714171423  1.7918151272551981 -28.565713714171416  1.9445322250991772 -28.565713714171416  2.0230776628029421 -28.565713714171434  2.1016159536610886 -28.565713714171416  2.1801480781793181 -28.565713714171423  2.2586832323190684 -28.56571371417143  2.3372304548259635 -28.565713714171419  2.4157902138611114 -28.565713714171434  2.573254426968024 -28.565713714171434  2.6522015829116459 -28.56571371417143  2.7311384001183363 -28.565713714171434  2.8100657895211842 -28.565713714171427  2.8889933390068041 -28.565713714171423  2.9679306962375112 -28.565713714171441  3.0468789846630067 -28.565713714171434  3.1780920689693524 -28.565713714171434  3.2303811329861354 -28.565713714171455  3.2826689659318173 -28.565713714171427  3.3349552654825185 -28.565713714171405  3.3872415688452211 -28.565713714171434  3.4395294121400948 -28.565713714171459  3.4918184892620161 -28.565713714171412  3.5441048102213006 -28.565713714171412 
 0 9 0.18349932628340104 7 0.35900673012525425 7 0.52653068240524037 7 0.70381921500287947 7 0.88197669957097391 7 1 9
1 6.2831853071795862 2.1862853408003079e-16 0 1 
1 0 2.1862853408003079e-16 0 1 
1 0 1.5707963267948961 1 0 
7 0 0  4 5 2  0.041513999571635596 -37.298193533683119  0.030767667822456223 -37.250713831161548  0.020260937404883411 -37.198173467288292  0.010001827685721389 -37.141180399110091  0 -37.080382527241262 
 0 5 1 5
7 0 0  4 5 2  0 -38.079744937684261  0.011329363157146884 -38.04842442946326  0.022443691340252377 -38.011790635227328  0.033331693088131706 -37.970440961818689  0.043980062132007447 -37.925006066657559 
 0 5 1 5
3 21.848704655772309 -16.38788377409649 -0.030556762311764619 0.99953303310947283 -0.99953303310947283 -0.030556762311764619 21.470563116616162 15.5
7 0 0  8 9 2  1.5370040022130544 -20.545473909682592  1.3448785019364227 -23.335090848328534  1.1527530016594654 -26.257518940571703  0.96062750138199438 -29.155843982165305  0.76850200110524469 -31.862726381021961  0.57637650083011316 -34.218797423530035  0.38425100055272726 -36.093624500714654  0.19212550027663103 -37.400075208184418  -8.8817841970012523e-16 -38.098840326401678 
 1.35727575629296 9 2.8942797585060149 9
3 -7.1637265910465375 -17.443497978073605 0.51513082808141675 0.85711156214354833 -0.85711156214354844 0.51513082808141686 26.244230237057362 15.5
7 0 0  6 7 2  5.7914452887359014 -35.185396211550547  5.7037682831271832 -33.546986589402096  5.6160912775185015 -31.81664887000386  5.5284142719094556 -30.01705191759055  5.4407372663010989 -28.172993420772844  5.3530602606923132 -26.310319486198985  5.2653832550835951 -24.454704433461892 
 4.2224686182642959 7 4.7485306519166022 7
7 0 0  6 27 6  0.64257717852961949 -33.364356982896687  0.610428648704048 -33.885637430017383  0.57727821169471349 -34.390178555666431  0.54219585283134497 -34.887091741928479  0.50443838793712326 -35.375457160827992  0.46347643461532495 -35.84301138061366  0.39821143877080933 -36.461831722038106  0.37664533903843361 -36.649289579333747  0.35401222935734861 -36.826707744207177  0.330166588108665 -36.991036643596345  0.30498942303476351 -37.137586365940201  0.26998046560077266 -37.298643313326814  0.26143580410949202 -37.334888928527754  0.25275338269644326 -37.368489638969727  0.24393786918756646 -37.39921287526969  0.23499364362601483 -37.42683128892795  0.21110549824651961 -37.490817164366362  0.19592284669269291 -37.521709747127979  0.18048049517469947 -37.542525402468307  0.16487299700967015 -37.552415231183566  0.14918961622029778 -37.550957107706964  0.11769225748379912 -37.52522928475355  0.1019509008303572 -37.50079410224965  0.08637726938001429 -37.465049420890402  0.071054472381524028 -37.418607110473516  0.056068966955677667 -37.362500642167674  0.041513999571635596 -37.298193533683111 
 0 7 0.47821375155395252 5 0.6999780596974825 5 0.7700066585474219 5 0.88443961844902386 5 1 7
7 0 0  6 27 6  5.6906164362786349 -33.253796807172165  5.7199282577582702 -33.828164092372035  5.7505286061381682 -34.385897620352281  5.7832797854257114 -34.93771573635064  5.8189461095139707 -35.483747305080144  5.8581310537826763 -36.012422834195448  5.9214395347867139 -36.726889319533505  5.9424771644494774 -36.945717567359509  5.9646842892609504 -37.155846368493485  5.9882255926631585 -37.354451234973482  6.0132475729386599 -37.537052893568905  6.0482961363239172 -37.748184006200823  6.0568687859860484 -37.79664725249841  6.0655988095740581 -37.842661432431427  6.0744826567739096 -37.885990648932193  6.0835170515352841 -37.926405182708557  6.1077030996856854 -38.024594297931685  6.1231321683848874 -38.077253030299573  6.1388866879417927 -38.120253772313468  6.1548742073715585 -38.152635291739266  6.1710055050685186 -38.17387077481262  6.2035354739167587 -38.193946756970689  6.2198604548756222 -38.192518404757671  6.2360794295993429 -38.179672583955117  6.2521041729605793 -38.15591644189626  6.2678406746963349 -38.122165829412559  6.2831853071795862 -38.079744937684261 
 0 7 0.47821375155395252 5 0.6999780596974825 5 0.7700066585474219 5 0.88443961844902386 5 1 7
1 0 0 0 -1 
1 6.2831853071795862 0 0 -1 
1 0 -75 1 0 
1 0 0 0 -1 
1 0.64257717852961949 0 0 -1 
1 2.4990154750601716 0 0 -1 
1 0 -70 1 0 
8 -29.389076939935507 -16.335041129539889
1 -5.3438558328135404 -18.8326991626931 -0.79524825695953882 0.60628393497008937 
8 -29.389076939935507 -16.335041129539889
1 23.371612210133485 -18.832699162693103 0.79524825695953882 0.60628393497008937 
1 0 0 0 -1 
1 0 0 0 -1 
1 0.64257717852961949 0 0 -1 
1 2.4990154750601716 0 0 -1 
1 0 -70 1 0 
1 0 0 0 -1 
1 0.64257717852961882 0 0 -1 
1 0 -70 1 0 
1 0 0 0 -1 
7 0 0  8 9 2  1.2391945764735319 -0.24897731929042261  1.0842952544143405 -3.988378887864775  0.92939593235444151 -7.7209532786442194  0.77449661029852346 -11.309979191222926  0.61959728823215199 -14.619092153713169  0.46469796618017867 -17.522751119910765  0.30979864411759916 -19.916774647593439  0.15489932205919149 -21.725838779251411  0 -22.906765234359931 
 1.5811094878514507 9 2.8203040643249828 9
7 0 0  8 9 2  1.2598208985866401 -0.24897731929042305  1.4147202206458316 -3.9883788878647755  1.5696195427049657 -7.7209532786387625  1.7245188647581575 -11.309979191244754  1.8794181868212212 -14.619092153684065  2.0343175088771748 -17.522751119932593  2.1892168309415228 -19.916774647587982  2.34411615300098 -21.725838779251415  2.4990154750601716 -22.906765234359934 
 1.5811094878514507 9 2.8203040643249828 9
1 2.4990154750601716 0 0 -1 
1 0 -70 1 0 
1 2.4990154750601716 0 0 -1 
1 0 -70 1 0 
1 0 0 0 -1 
1 0 0 0 -1 
1 0 -70 1 0 
1 0 -70 1 0 
7 0 0  6 7 2  0.64257717852961971 -36.650824374975905  0.53548098210801642 -37.957197881736029  0.42838478568641503 -38.759127182975298  0.32128858926480108 -39.029642443027583  0.2141923928432069 -38.759127182975483  0.10709619642160328 -37.95719788173605  0 -36.650824374975926 
 2.8203040643249828 7 3.4628812428546025 7
7 0 0  6 7 2  0 -36.650824374975898  0.10709619642160338 -37.957197881736022  0.21419239284319957 -38.75912718297603  0.32128858926481085 -39.029642443027072  0.42838478568640731 -38.759127182975647  0.53548098210801587 -37.957197881736043  0.64257717852961926 -36.650824374975919 
 2.8203040643249828 7 3.4628812428546025 7
1 0.64257717852961882 0 0 -1 
1 0 -70 1 0 
1 0 0 0 -1 
8 6.7197328457463472 29.389076939935503
1 23.371612210133485 -18.832699162693096 -0.79524825695953882 -0.60628393497008937 
8 6.7197328457463472 29.389076939935503
1 -5.3438558328135386 -18.832699162693093 0.79524825695953882 -0.60628393497008937 
Curves 66
2 0 0 0 0 1 0 1 0 0 0 0 -1 32.5
2 0 5 0 0 1 0 1 0 0 0 0 -1 32.5
1 32.5 0 0 0 1 0 
2 0 5 0 0 1 0 1 0 0 0 0 -1 47.5
2 0 12 0 0 1 0 1 0 0 0 0 -1 47.5
1 47.5 5 0 0 1 0 
2 0 12 0 0 1 0 1 0 0 0 0 -1 32.5
1 32.5 12 0 0 1 0 
2 0 54.5 0 0 1 0 1 0 0 0 0 -1 32.5
7 0 0  6 42 9  -30.734491365756192 54.50003921939269 10.566032391028234  -30.571121128831983 53.462637243168956 11.041243988943842  -30.36287274499659 52.453108458980843 11.618319784973103  -30.102115361962117 51.480079544454085 12.29570964712406  -29.778837397419085 50.553853000082768 13.069642269520338  -29.380835377954128 49.687129038893623 13.933518231254782  -28.701324704908956 48.581152730736221 15.253294011086746  -28.493624939821853 48.277893127098288 15.642257942996729  -28.271125391152527 47.987777698900679 16.043250360578721  -28.033053153566566 47.712042308612354 16.455386648444833  -27.778659286461266 47.451993886037457 16.877672073944836  -27.290822815542985 47.015281461894034 17.652934777914201  -27.063568624854028 46.832386486083493 18.002636689225014  -26.825280665186323 46.661185322011896 18.357299259359632  -26.575818744275566 46.502492686006576 18.716064198844702  -26.315106645826109 46.357087724197221 19.078045971084666  -25.600553648190768 46.011930577699381 20.035194335871545  -25.127568282440524 45.835026096769745 20.634977788583218  -24.62590463301304 45.699323101790334 21.235327488270951  -24.09826494596339 45.607723896876138 21.830050091578308  -23.548403095853377 45.561809033867753 22.413537681272217  -22.589292452444461 45.56180903386776 23.372648324681123  -22.18973586352649 45.58368575163594 23.756183488788047  -21.783983061886062 45.627411487687034 24.129913707808633  -21.373915705349521 45.692608859454964 24.492391686458092  -20.961581011381902 45.778554668089271 24.842414182085747  -19.989791748691225 46.027394099394876 25.635511849632962  -19.43074605061809 46.206661385112518 26.066919081035351  -18.875478476799437 46.419633526939968 26.472476759970661  -18.327532418541491 46.663663002774591 26.851911775448222  -17.790384022328801 46.935770716454769 27.205394549416852  -16.843713205758576 47.472967616431824 27.799088104634809  -16.428979759701924 47.729752903314157 28.048288625544739  -16.024115392470819 48.001653158042821 28.281730490130119  -15.630061187781779 48.287427691748462 28.500128668263176  -15.2476551789726 48.585902847329088 28.704219849568684  -13.933894110141093 49.68675097001821 29.380662516714317  -13.069914750612824 50.553528297840842 29.778723123783045  -12.295891479749866 51.479819372680943 30.10204541170204  -11.618422786660318 52.452927462527249 30.362835598096179  -11.041285664558938 53.462546263980641 30.571106801414174  -10.566032391028237 54.50003921939269 30.734491365756192 
 0 7 0.2238566949374933 5 0.31309857079746534 5 0.38425358738647042 5 0.50005046547145771 5 0.5799807931288522 5 0.68837731411537517 5 0.77614896821532864 5 1 7
3 0 7.3323333333333442 0 0.94882928301683933 0.31578947368421062 0 -0.31578947368421062 0.94882928301683933 0 0 -0 1 102.91666666666664 32.5
7 0 0  7 32 6  -9.488292830168394 35.841105263157893 31.084116509384259  -9.2593839436873377 35.153319656810545 31.153989962139601  -8.97005532025333 34.478118114466625 31.240156298363413  -8.6190359317036922 33.818573542704144 31.340981339235185  -8.2042073281141548 33.178733399770529 31.45425411949762  -7.7228394628059522 32.563986288385443 31.577008241251576  -7.1719122677371105 31.981607698293125 31.705181990643911  -6.043644419818027 31.003946010412637 31.937285248135431  -5.487640015727572 30.591090822856547 32.041922418042489  -4.8810013947968658 30.211588365475507 32.143824523193629  -4.2252158400983406 29.874034694593043 32.238884739934022  -3.5228518339234789 29.587039587478248 32.322631019855827  -2.7776382914704043 29.359333513035015 32.390586381558009  -1.2821037916727338 29.054906463217812 32.482547271844702  -0.54369185683295562 28.967553742696673 32.509621960130815  0.20772958961991783 28.94481991568427 32.51687777514968  0.95847962809714815 28.989102935703251 32.50299759024621  1.6948036529181767 29.098483096984733 32.468988442210104  2.4036305408340723 29.266700013573494 32.417972598924926  3.7666031135991056 29.706872466587921 32.288509212909432  4.419699799614305 29.982882300142318 32.20898040960725  5.0304808930470069 30.30313653130948 32.119490365384159  5.5979038632436247 30.660656231441035 32.023643811856694  6.1216459960061167 31.049134742735099 31.924719651941722  6.6019377364764198 31.462824549381534 31.825544685677876  7.5451683247770882 32.397686625467223 31.616273223625445  7.9958273957910269 32.927611863069899 31.506421106404229  8.3934300327692686 33.48028073084447 31.402194894405998  8.7399374409803254 34.051131580825931 31.306130800482062  9.0370902642561681 34.636642017534335 31.220169725000186  9.286248827377074 35.234038586521159 31.145789571975079  9.4882928301683904 35.841105263157893 31.084116509384266 
 0 8 0.23844549708708812 6 0.43165110033147402 6 0.60748325396418346 6 0.78956671881967688 6 1 8
3 0 7.3323333333333425 0 -0.94882928301683933 0.31578947368421062 0 0.31578947368421062 0.94882928301683933 0 0 0 -1 102.91666666666664 32.5
3 0 7.3323333333333398 0 0.67092362020957697 0.31578947368421062 -0.67092362020957697 -0.22329687826943617 0.94882928301683933 0.22329687826943609 0.70710678118654757 1.8594798784846112e-17 0.70710678118654757 102.91666666666664 32.5
7 0 0  7 32 6  15.270553368882549 35.841105263157885 28.689025773074093  15.481824387055562 35.15331965680997 28.576570739437603  15.747339419330682 34.478118114467222 28.432913308469885  16.066841679415859 33.818573542704378 28.255999188613082  16.44026574909196 33.178733399770074 28.042767021030901  16.867444502807224 32.563986288385642 27.789188811137919  17.347641385746151 31.981607698292983 27.490256982929726  18.309569019330233 31.003946010394195 26.856572923967271  18.776713156222019 30.591090822859293 26.537408091880025  19.277727108362082 30.211588365489597 26.180505478873773  19.808655244972108 29.874034694599253 25.784012790022562  20.364519159051842 29.587039587472137 25.346584000812182  20.939516405446778 29.359333513029419 24.867690148572212  22.062045160857235 29.054906463217801 23.875213731410732  22.603325942976362 28.967553742696772 23.372222340662887  23.139791779296985 28.944819915684164 22.846017776347786  23.660837449609033 28.989102935703229 22.305342560297355  24.15744906151302 29.098483096984882 21.760634749995685  24.62259171191015 29.266700013573388 21.223344802128882  25.494814425904014 29.706872468297266 20.168033211090108  25.900388154893733 29.982882294938406 19.649988772544109  26.268996600708707 30.303136535446281 19.154822289144651  26.602451484096612 30.660656234492926 18.685819910061245  26.90284314385379 31.049134736210927 18.245528365094767  27.172333406393701 31.462824552554626 17.835783516998411  27.691320879915327 32.397686625465937 17.020841504629512  27.932307788019095 32.927611863070524 16.624500242495532  28.139756247562257 33.48028073084587 16.269653660389476  28.316846413396878 34.051131580825498 15.956708350070993  28.466181530392987 34.636642017532765 15.685805914292555  28.589768529376993 35.234038586522445 15.457029494128468  28.689025773074093 35.841105263157893 15.270553368882542 
 0 8 0.23844549599322759 6 0.43165109835948123 6 0.60748325119919966 6 0.78956671662333067 6 1 8
3 0 7.3323333333333398 0 -0.67092362020957697 0.31578947368421062 0.67092362020957697 0.22329687826943617 0.94882928301683933 -0.22329687826943609 -0.70710678118654757 1.8594798784846112e-17 -0.70710678118654757 102.91666666666664 32.5
7 0 0  4 14 5  31.054461556133738 52.946368421052632 9.5849057094272627  31.062631909561681 53.019968006527186 9.5584343038527084  31.070614200773957 53.093688132202082 9.5324654436073768  31.078410669044871 53.167525565219357 9.5070011637481411  31.093602172047493 53.315098254747518 9.4571971926449638  31.10099884397669 53.388832494949924 9.432852986866326  31.108215510114057 53.462676517826317 9.4090127965905648  31.124061444932028 53.62916055462231 9.3564806022326348  31.132589979507802 53.72186082044712 9.3280748091781263  31.140843526259125 53.814721419753248 9.3004648802641849  31.161485143333188 54.055257209750629 9.2311327590288563  31.17346177534688 54.203165457217665 9.190622025667647  31.184769372927207 54.351434448155885 9.1521364180972373  31.195419809121201 54.500037289345983 9.1156888347885623 
 0 5 0.19168374505550129 3 0.382511503033866 3 0.62129225079015349 3 1 5
7 0 0  6 12 3  31.195417136559978 54.5 9.1156979807373677  31.249344170141615 55.252421198080484 8.9311508060644762  31.27137734677623 56.014249788461143 8.7763564685836641  31.261334124507549 56.782381670185998 8.6520051653598973  31.219245579573968 57.553703258785653 8.5585874155354187  31.145335723979301 58.325095110702293 8.4964161889904375  30.947877284759453 59.765864792891811 8.4386578074875107  30.83167444215356 60.435968156243497 8.4357281005702642  30.691713605503381 61.101650322926588 8.4569082903422981  30.528395282737165 61.760844523078426 8.502172764316283  30.342233937128778 62.411509694554837 8.5713863384596749  30.133858870791524 63.051631578947372 8.6643030240850702 
 0 7 0.53328197645398334 5 1 7
2 11.476113211915326 59.901562326869808 -11.476113211915338 -0.67092362020957697 -0.31578947368421056 0.67092362020957697 -0.70710678118654757 2.7072488192293734e-20 -0.70710678118654757 0.22329687826943609 -0.94882928301683922 -0.22329687826943609 27.634593818682152
7 0 0  8 107 16  19.117822979637708 80.156894736842105 5.6993505754461715  18.33986190087877 80.838163773468594 5.2420483377732339  17.52136489631587 81.485712290583194 4.8161552784488686  16.666798283001377 82.097817212213556 4.4185117913321514  15.780111094124162 82.673030259910234 4.0463763338793388  14.864875496361794 83.210188011258282 3.6972262975919992  13.924325767561212 83.708384390548886 3.368686269967712  12.961353853113101 84.166921241172048 3.0585088648323264  11.481060906175204 84.796989790942845 2.6157384575318323  10.978543468598412 84.998414352145346 2.4711030509310565  10.47131643445983 85.189450397040517 2.3303516989182338  9.9597183592950245 85.370029776160365 2.1932166896018632  9.4440773380394933 85.540091696779953 2.0594374863871563  8.924711216697677 85.699582313268948 1.9287602359520568  8.4019278040120344 85.848454317443469 1.8009372762232554  7.3312411840970615 86.129840892677308 1.5460206483132166  6.7831137504706014 86.261575202363559 1.419119368585956  6.2319742765705968 86.381823998298032 1.294752168151456  5.6781415990397175 86.490547419551859 1.1726674146035048  5.1219388017711891 86.587711363516107 1.0525983679794439  4.5636540216423169 86.673287234776581 0.93434166144917019  4.0035962476593454 86.747251884969074 0.81764649940917211  3.2973666582735288 86.825635604282922 0.67282997942861245  3.1526675509021103 86.840913190000137 0.64328142194901816  3.0078673525988671 86.855419640990377 0.61383361261657721  2.8629687048535799 86.869154667084061 0.58448743974683959  2.7179736889637875 86.882117995933129 0.55524498310301318  2.5728833806190123 86.894309374190954 0.52611041090226951  2.4276967790228317 86.905728567712202 0.49709214309568345  2.2064092096975885 86.921944692469893 0.45309610203016765  2.1304138468234948 86.927300312451848 0.43802850465705745  2.0544265701401625 86.932442187244845 0.42300682575729354  1.9784531709703768 86.93737017650291 0.40803519495364587  1.9025014465830121 86.942084090263464 0.3931190333717422  1.8265809630260053 86.946583746202634 0.37826555247497434  1.7507028179593276 86.950869026890075 0.36348425289940467  1.5990524299346598 86.959011038282512 0.33408990382216119  1.5232915666268234 86.962867136505579 0.31947912809090684  1.4475989903939581 86.966508885037214 0.30496582495194458  1.3719902728053572 86.969936250034522 0.29056593078163029  1.2964933654894837 86.973148851409093 0.27630320745857506  1.2211483047842111 86.976146314232153 0.26220976046092753  1.1460052735689972 86.978928604470838 0.24833042286367846  1.0302717914319395 86.982896883626552 0.22732242955648141  0.98950996318045059 86.984233385401993 0.21999639683542577  0.94884046895167906 86.985505862553538 0.21276681298572236  0.90827731410379675 86.986714337917775 0.20564812520260897  0.86784121377708734 86.987858822841588 0.19866128774933098  0.82755959289394487 86.988939317182471 0.19183376195714144  0.78746658615887433 86.989955809308313 0.18519951622530084  0.68251331742040389 86.992463476278502 0.16834822223686174  0.61614538106226591 86.993889085812512 0.15822611082646409  0.5479847960360763 86.995206297139802 0.14859548058409458  0.47836072918793859 86.996353415238673 0.13978976598829748  0.41048240409994563 86.997265173923907 0.13313724755992704  0.34990955604500856 86.997919106715145 0.13069542649483715  0.30145688495462536 86.998348972274869 0.13389557357128412  0.21641456470639533 86.998968467553837 0.15004519825326998  0.18878447867023643 86.999077258633605 0.16337535809008377  0.1689445771497799 86.999041517009104 0.18433684214682863  0.15169869611661246 86.998994957333366 0.20711945609593183  0.13739769152834577 86.998924080592701 0.23527326448072622  0.12961889734585194 86.998625847793022 0.2840553457072641  0.13147952869463081 86.997814046300064 0.36670393852512129  0.1451524901779799 86.995651936921888 0.51378236192442395  0.1511768612764578 86.994813354220057 0.56448584857028872  0.15825120272029844 86.99386080295281 0.61625214777029969  0.16605677593004453 86.992795519212592 0.66870754757058393  0.17436204449222542 86.991617772958264 0.72160291622788553  0.18302267415935691 86.99032686801506 0.7748137022095638  0.19198153284994152 86.988921142074659 0.82833993419359397  0.21053994726107894 86.985877399249659 0.93618010852711997  0.22007031077373179 86.984243081889062 0.99030340313730636  0.22980972505889374 86.982495041053312 1.0446259426521411  0.23971682890803395 86.980633292130193 1.0991063108542476  0.2497589560316239 86.978657839455309 1.153711837555857  0.25991213505913757 86.976568676312098 1.2084185985988094  0.27016108953905116 86.974365784931777 1.2632114158545524  0.30526700000065887 86.966498993945194 1.4495452678206724  0.33040843986463808 86.960322464659527 1.5808155032047662  0.35578452966051632 86.9535198101605 1.7119551766398888  0.38134669432286061 86.946091241055967 1.8429833503250157  0.40705505692620825 86.93803698525889 1.9739156877033646  0.43289071417855307 86.929357214711359 2.1047590701918626  0.4588379709863416 86.92005204376882 2.2355196623718632  0.51108360685296228 86.900135127155764 2.4976175448600619  0.53738271721528919 86.889516469544731 2.6289522269222831  0.5637750337531432 86.878265666829606 2.7602081928794306  0.59025503434071225 86.866382895810077 2.8913858413189675  0.61681979159064237 86.853868346285537 3.0224843014241678  0.64346779847329594 86.840722220934239 3.1535020150358157  0.6701984283462149 86.826944734723284 3.2844370048365792  0.81351605574470787 86.749931231242485 3.9838240906043092  0.9315852040097844 86.675411513258808 4.5507526380655996  1.0512463831826355 86.588995601812144 5.1158730951410236  1.1727629285363379 86.490707402743638 5.6788634359923869  1.296343329788826 86.380576542470465 6.2394260763313909  1.4222658616068433 86.258638420537821 6.79722513911282  1.5507910002844234 86.124934486246914 7.3519301690711396  2.054384909742148 85.567636879439277 9.4645323127981698  2.4495439208216596 85.061931423926552 10.997634884581595  2.8741589713401536 84.463407713874091 12.495522587497989  3.3351500234171612 83.773409015453012 13.949811773731691  3.8397040480165585 82.994042375480831 15.350944544367009  4.3957940764828258 82.128408707469205 16.687916878925616  5.0119885019467807 81.180896937245549 17.948484856739633  5.6993505754461689 80.156894736842105 19.117822979637708 
 0 9 0.23133122675951515 7 0.34841882464548013 7 0.46971015015570039 7 0.50093697241775448 7 0.51727170626633168 7 0.53360720685241947 7 0.54251739742488192 7 0.55706607266405739 7 0.57514161293000898 7 0.58421156399132212 7 0.59326598576141332 7 0.61495824198917737 7 0.63677234384608727 7 0.73155374575662835 7 1 9
7 0 0  8 107 16  9.4882928301683922 80.156894736842105 17.54839171068333  9.2615527891887641 80.838163773469489 16.674928643082211  8.9839398771908812 81.485712290581318 15.795011990470345  8.6608464361746957 82.09781721221465 14.909565736979967  8.2970034176131247 82.67303025991086 14.01944370745035  7.8967204783628278 83.210188011257145 13.125388051582092  7.4639642685089802 83.708384390549341 12.228006078876165  7.0023688442525573 84.166921241172048 11.327753561536783  6.2687296208410617 84.796989790942845 9.9679424231034659  6.0156688098730937 84.998414352145346 9.5103362585213223  5.7565313699020031 85.189450397040517 9.05214634761135  5.4917459967366904 85.370029776160365 8.5934227843946758  5.2217289157238103 85.540091696779953 8.1342133398320993  4.9468843793339152 85.699582313268948 7.6745632635832521  4.6676051647475969 85.848454317443483 7.2145150857657736  4.0907686715134695 86.129840892676796 6.2771720400675202  3.7929168016738579 86.261575202367084 5.7998546593520004  3.4911432330925614 86.381823998289008 5.3221993092091235  3.1858513482707593 86.49054741956364 4.8442535101506135  2.8774582156939701 86.587711363507864 4.3660571034258897  2.5663113809352236 86.673287234779238 3.8876700304455372  2.2528066715077202 86.747251884968989 3.4091334401992919  1.8558276830841776 86.825635604282894 2.8073529651633931  1.7744039483980611 86.840913190000151 2.6841412597408589  1.6928374919308558 86.855419640990405 2.5609293119337204  1.6111295533635832 86.869154667084032 2.4377196176904619  1.5292801337809319 86.882117995933115 2.3145151193248363  1.4472870464359013 86.894309374190968 2.1913195248393982  1.3651436298544124 86.905728567712202 2.068138080369506  1.2397795879749063 86.921944692469893 1.8805542405243607  1.1966971518265912 86.927300312451848 1.8161630038186241  1.1535879642147369 86.932442187244845 1.7518099541771075  1.1104532001386911 86.93737017650291 1.6875021067676892  1.0672945397854261 86.942084090263464 1.6232488084067389  1.0241136480976154 86.946583746202634 1.5590619225862725  0.98091165434170968 86.950869026890075 1.4949560145011138  0.89446358016084959 86.959011038282512 1.3669380531980266  0.85122393856570788 86.962867136505565 1.3030356544070305  0.80796365969277151 86.966508885037257 1.2392504654001051  0.76468248558486618 86.969936250034536 1.1756047656597395  0.72138337884336678 86.973148851409036 1.1121351221585063  0.67807194743257559 86.976146314232167 1.0488925468631747  0.6347519742340817 86.978928604470866 0.98594422619761635  0.56777093873154638 86.982896883626552 0.88925340164191868  0.5441282609776108 86.984233385401993 0.85525014905547692  0.5204826735863024 86.985505862553538 0.82138038613360409  0.49683386413163444 86.986714337917775 0.78766423186975698  0.47318166352813873 86.987858822841588 0.75413115098173833  0.44952604603086488 86.988939317182471 0.72081995391169684  0.42586712923538 86.989955809308313 0.68777879682612653  0.3635696254537506 86.992463476278502 0.60164996454252495  0.3237978212196142 86.993889085812512 0.54756333307183425  0.28241089328963515 86.995206297139802 0.49255663723896215  0.23940582399149948 86.996353415238659 0.43709840693321639  0.19611264091861794 86.997265173923893 0.3843971420750571  0.15500779753658459 86.997919106715145 0.33983904222579098  0.11848373954377767 86.998348972274869 0.30784067562994749  0.046930229082117858 86.998968467553837 0.25912618342079619  0.017966961466172063 86.999077258633577 0.24901460863513789  -0.01088397495724948 86.999041517009076 0.24980768725188285  -0.039188395199863155 86.998994957333437 0.25372274864202632  -0.069208481347150241 86.998924080592701 0.26351816014515284  -0.10920305989875193 86.998625847792979 0.29251186246522254  -0.16632877529169351 86.997814046300064 0.35226890794603072  -0.26066068205982423 86.995651936921888 0.46593730228173502  -0.29225358764081971 86.994813354220057 0.50604995517495699  -0.3238555740347297 86.99386080295281 0.5476565711835979  -0.35542776919570135 86.992795519212592 0.59026751383989262  -0.3869577313467229 86.991617772958264 0.63354289943071829  -0.41845944897962423 86.99032686801506 0.67729259699759525  -0.44997334085507656 86.988921142074659 0.7214762283366859  -0.51310507873251243 86.985877399249659 0.81085352757050622  -0.54463704270455804 86.984243081889062 0.8558634608764607  -0.57616207288094867 86.982495041053312 0.90116210282446552  -0.60768013036455715 86.980633292130193 0.94669092093534768  -0.63919121239890986 86.978657839455309 0.99240371534295591  -0.67069535236818634 86.976568676312098 1.0382666187941589  -0.70219261979721992 86.974365784931777 1.0842580966488464  -0.8091269227404041 86.966498993945152 1.240839654286507  -0.88417131372840174 86.960322464659711 1.3514394105072798  -0.95895746093281176 86.953519810159889 1.4621127680614308  -1.033533191079222 86.946091241057104 1.5728388581562247  -1.1079377772058141 86.938036985257753 1.6836005593445509  -1.1821894517838238 86.929357214711956 1.7943893707993848  -1.2563036719896843 86.920052043768678 1.9051985534908225  -1.4046916186221543 86.900135127155721 2.1274729869402376  -1.4789629836367042 86.889516469544787 2.2389369105073857  -1.5531127812411603 86.87826566682962 2.350411080102222  -1.6271451980117024 86.86638289581002 2.461891872835444  -1.7010616881631087 86.853868346285509 2.5733766029707517  -1.7748622155415141 86.840722220934225 2.6848631030927148  -1.8485458250758915 86.826944734723227 2.7963495319243137  -2.2417463099010044 86.749931231242172 3.3922317491442762  -2.5591378348645124 86.675411513259519 3.8765982648774782  -2.8741251110292643 86.588995601810794 4.3608120035303717  -3.1862942255159652 86.490707402745997 4.8448314644891832  -3.4952873300583169 86.380576542467495 5.3285936485466854  -3.8006701537198389 86.258638420540052 5.8120578245001262  -4.1020248448576702 86.12493448624609 6.2951745098671115  -5.2397654782927328 85.567636879439306 8.1451044799846795  -6.0444130866734858 85.061931423926765 9.5085913211293569  -6.8033314572504722 84.463407713872115 10.86800605493306  -7.5056993036415358 83.773409015458114 12.222313699308874  -8.13967621484543 82.994042375474436 13.569837755050898  -8.69184338878215 82.128408707473255 14.908434989140863  -9.1474842972694788 81.180896937244341 16.235506411181838  -9.4882928301683922 80.156894736842105 17.54839171068333 
 0 9 0.23133122675747864 7 0.3484188246424102 7 0.46971015015113965 7 0.50093697241272073 7 0.51727170626101748 7 0.53360720684689977 7 0.54251739741930616 7 0.55706607265837482 7 0.57514161292410704 7 0.58421156398529916 7 0.59326598575525313 7 0.61495824198283622 7 0.6367723438398929 7 0.73155374575165633 7 1 9
2 -16.229674947619724 59.901562326869794 0 0.94882928301683933 -0.31578947368421062 0 0.31578947368421062 0.94882928301683933 0 -0 0 1 27.634593818682166
7 0 0  8 44 7  -8.7974579397246977 60.439145837729427 30.717768156507674  -8.6122077568511344 61.671680458131306 30.532517973634114  -8.509685302781083 62.904574864348504 30.264431910201317  -8.4919253145894871 64.124851874461228 29.915376174885452  -8.5594980073991138 65.320112261877455 29.488507764598701  -8.7118696508166806 66.478411905745958 28.987950817058305  -8.9473887351138224 67.588289556680678 28.418802097676384  -9.2632962500239771 68.63878095478465 27.787116477419303  -10.030371207049956 70.557744257262229 26.443200437267045  -10.47525712889809 71.432670938379744 25.735311229352636  -10.986481619444948 72.235334928264066 24.982805644627113  -11.559599508344469 72.957976482843165 24.192461435392101  -12.189451286259882 73.593918275549584 23.371445317837185  -12.870224606431686 74.137488537834685 22.527274574459817  -13.595408132926805 74.584107269443763 21.667837290973313  -15.085222128185313 75.261235111546156 19.97447841429419  -15.846890372410478 75.500801902091297 19.140796303643519  -16.636347804214861 75.646324875345584 18.307594611904193  -17.447064998868463 75.696196935685975 17.4818858573447  -18.272346156151649 75.649898354607998 16.670522070769032  -19.105342564213068 75.50791948781918 15.880204562922504  -19.93904264927809 75.271837976446335 15.117470668065149  -21.641686351822905 74.598186190839172 13.617326943064388  -22.510282423809805 74.149502993037899 12.883605207374623  -23.363459827857376 73.601788833603379 12.195070883559005  -24.193083435554311 72.959748905089043 11.558444717395282  -24.991403930642122 72.229224676991066 10.979720077236987  -25.75103624126216 71.417102474857401 10.464212002919549  -26.465000189616955 70.531395081521879 10.016492026737028  -27.791930478338305 68.62690869644031 9.2620510543831713  -28.40474597145554 67.606980137346937 8.9558264658335087  -28.95865053242802 66.531091146973779 8.7253345359050307  -29.448081928567547 65.409254361192964 8.5731276952141755  -29.868363311796379 64.25194865553965 8.5007328379522242  -30.215637908542938 63.070072420906605 8.5087306773316485  -30.486942188258237 61.874967977262195 8.5966752382953722  -30.80860845143453 59.885856536502018 8.8729366147282072  -30.902666732468365 59.092437536246173 9.0173803805494099  -30.962054236342137 58.301592858165876 9.1957210813262495  -30.986443703904744 57.516631622854938 9.4072912533275055  -30.975709544799845 56.740811913021069 9.6512371060346478  -30.929920759958019 55.977341185396753 9.9265254758291857  -30.849348061414148 55.22937299046496 10.231937692226939  -30.734485189450343 54.5 10.566050356659233 
 0 9 0.18349932628340104 7 0.35900673012525425 7 0.52653068240524037 7 0.70381921500287947 7 0.88197669957097391 7 1 9
2 -1.4406649597832799e-14 54.499999999999993 0 0 -0 1 1 2.1862853408003074e-16 0 -2.1862853408003074e-16 1 0 32.500000000000007
7 0 0  4 5 2  -15.377883316900142 62.417224155902943 37.298193533683119  -15.330403614378572 62.582479991626521 37.250713831161548  -15.28161466981908 62.743370936915227 37.198173467288299  -15.231804078681494 62.899791147076954 37.141180399110091  -15.181268528269428 63.051631578947372 37.080382527241262 
 0 5 1 5
3 -16.387883774096487 59.426203963458988 16.38788377409649 0.94882928301683933 -0.31578947368421062 -4.850446804984494e-19 0.0096495038879256707 0.028993150875587594 -0.99953303310947272 0.31564201045562307 0.94838621115690769 0.030556762311764615 21.470563116616162 15.5
3 -17.443497978073601 59.743521986163984 17.443497978073605 0.94882928301683933 0.31578947368421062 -1.8404989860837555e-17 0.16267289307834218 -0.4887712142683614 -0.85711156214354856 -0.2706668090979627 0.81325254897410604 -0.51513082808141675 26.244230237057362 15.5
7 0 0  6 27 6  -15.181268528269431 52.946368421052625 33.364356982896695  -15.343703205282845 53.434423885123707 33.88563743001739  -15.492372449650404 53.943954824749753 34.390178555666438  -15.629467597833278 54.488913152274868 34.887091741928451  -15.752482431875304 55.081316017010089 35.375457160828006  -15.85433661267002 55.72986768969529 35.843011380613667  -15.95609254384035 56.769137995830015 36.461831722038113  -15.981546787912501 57.113354188484919 36.649289579333725  -15.999153407740065 57.47523365804215 36.826707744207177  -16.007233409095964 57.856921778366775 36.991036643596374  -16.003534817330841 58.259967840395184 37.137586365940201  -15.979508581942513 58.819595643287876 37.298643313326814  -15.972290352568757 58.956126279944918 37.334888928527754  -15.963537912927505 59.094780119042845 37.368489638969727  -15.953172268302538 59.235459031119092 37.399212875269704  -15.941117566766813 59.378066776943001 37.426831288927957  -15.904723762108302 59.758540461103259 37.490817164366369  -15.877395511037244 59.999957598555433 37.521709747127964  -15.845097005949894 60.24497946325058 37.5425254024683  -15.807780964567016 60.491964088799044 37.552415231183573  -15.765571893949542 60.739367721242139 37.550957107706964  -15.671498605322506 61.234467327235791 37.52522928475355  -15.61975950953571 61.481004464779289 37.500794102249664  -15.563913196924867 61.723913027306764 37.465049420890402  -15.504490422713744 61.961831115696405 37.418607110473509  -15.442190425384696 62.193399565789861 37.362500642167674  -15.377883316900141 62.417224155902943 37.298193533683111 
 0 7 0.47821375155395252 5 0.6999780596974825 5 0.7700066585474219 5 0.88443961844902386 5 1 7
1 10.960155108391488 54.5 10.960155108391486 -0.69165480148022551 0.20791169081775934 0.69165480148022562 
2 -51.874110111016911 70.09337681133195 -23.125889888983082 -0.69165480148022551 0.20791169081775931 0.69165480148022562 0.70710678118654757 -1.7237512081336482e-17 0.70710678118654746 0.14701576646519846 0.97814760073380569 -0.14701576646519846 15.5
1 -9.4882928301683958 35.8411052631579 0 0 0 1 
1 -15.181268528269429 52.946368421052632 0 0.31578947368421062 -0.94882928301683933 0 
1 -15.181268528269431 52.946368421052632 0 0 0 1 
1 9.4882928301683958 35.8411052631579 0 0 0 1 
2 0 38.999000000000009 0 0 0 1 -0.94882928301683922 -0.3157894736842109 0 0.3157894736842109 -0.94882928301683922 0 10.000000000000005
1 7.8007594092799124 30.770698364764073 18.8326991626931 -0.25113102851353858 -0.75455483347131025 -0.60628393497008937 
1 15.181268528269431 52.946368421052632 0 0 0 1 
1 9.488292830168394 35.8411052631579 0 0.31578947368421062 0.94882928301683933 0 
1 -6.7092362020957719 35.8411052631579 6.709236202095771 0.70710678118654746 0 0.70710678118654757 
1 38.762696759705086 52.946368421052632 -9.76774739358844 0.22329687826943612 -0.94882928301683933 -0.22329687826943609 
1 -10.734777923353233 52.946368421052632 10.734777923353231 0.70710678118654746 0 0.70710678118654757 
1 6.7092362020957719 35.8411052631579 -6.709236202095771 0.70710678118654746 0 0.70710678118654757 
2 49.497474683058321 38.999000000000009 -20.502525316941671 0.70710678118654746 -5.4872095976039867e-18 0.70710678118654757 -0.67092362020957697 -0.3157894736842109 0.67092362020957685 0.22329687826943634 -0.94882928301683922 -0.22329687826943631 10.000000000000005
1 10.734777923353233 52.946368421052632 -10.734777923353231 0.70710678118654746 0 0.70710678118654757 
1 56.206710885154095 35.8411052631579 -27.211761519037442 0.22329687826943612 0.94882928301683933 -0.22329687826943609 
1 10.734777923353231 63.051631578947372 -10.73477792335323 0.70710678118654746 0 0.70710678118654757 
2 49.497474683058279 57.998999999999995 -20.502525316941632 0.70710678118654746 -8.0575010277716294e-18 0.70710678118654757 0.6709236202095773 -0.31578947368420912 -0.67092362020957719 0.22329687826943509 0.94882928301683978 -0.22329687826943503 16.000000000000057
1 6.7092362020957692 80.156894736842105 -6.7092362020957683 0.70710678118654746 0 0.70710678118654757 
1 60.232252606411549 63.051631578947372 -31.237303240294899 -0.22329687826943612 0.94882928301683933 0.22329687826943609 
3 5.3182483655411135e-16 76.998999999999995 -2.2028906010756749e-16 0.92387953251128674 0 -0.38268343236508978 -0.38268343236508978 0 -0.92387953251128674 0 1 0 26.131259297527532 10
1 -6.7092362020957692 80.156894736842105 6.7092362020957683 0.70710678118654746 0 0.70710678118654757 
2 49.497474683058321 76.998999999999995 -20.502525316941671 0.70710678118654746 -1.4620913940194493e-17 0.70710678118654757 0.67092362020957697 0.31578947368421095 -0.67092362020957685 -0.22329687826943637 0.94882928301683922 0.22329687826943634 10
1 -9.4882928301683922 80.156894736842105 0 0 0 1 
2 5.3182483655411135e-16 76.998999999999995 0 0 -0 1 0.94882928301683922 0.31578947368421095 0 -0.31578947368421095 0.94882928301683922 0 10
1 9.4882928301683922 80.156894736842105 0 0 0 1 
1 -15.181268528269428 63.051631578947372 0 0 0 1 
1 -9.4882928301683922 80.156894736842105 0 -0.31578947368421062 -0.94882928301683933 0 
2 4.1394617333363893e-14 57.998999999999995 0 0 0 1 -0.94882928301683944 0.31578947368421029 0 -0.31578947368421029 -0.94882928301683944 0 16.000000000000039
2 -5.7167839871681167e-14 57.998999999999995 0 0 -0 1 0.94882928301683978 -0.31578947368420912 -0 0.31578947368420912 0.94882928301683978 0 16.000000000000057
1 15.181268528269428 63.051631578947372 0 -0.31578947368421062 0.94882928301683933 0 
3 -5.7167839871681167e-14 57.998999999999995 -1.1570866911376881e-13 0.92387953251128674 0 -0.38268343236508978 -0.38268343236508978 0 -0.92387953251128674 0 1 0 41.8100148760442 16.000000000000057
1 15.181268528269428 63.051631578947372 0 0 0 1 
1 42.788238480962555 80.156894736842105 -13.793289114845903 -0.22329687826943612 -0.94882928301683933 0.22329687826943609 
2 49.49747468305835 57.998999999999995 -20.5025253169417 0.70710678118654746 1.0904602517644895e-18 0.70710678118654768 -0.67092362020957708 0.31578947368421029 0.67092362020957697 -0.22329687826943589 -0.94882928301683944 0.22329687826943587 16.000000000000039
1 -10.734777923353231 63.051631578947372 10.73477792335323 0.70710678118654746 0 0.70710678118654757 
1 7.8007594092799071 85.227301635235932 18.832699162693096 0.25113102851353858 -0.75455483347131025 0.60628393497008937 
Polygon3D 0
PolygonOnTriangulations 0
Surfaces 27
1 0 0 0 0 1 0 -1 0 -0 0 0 -1 
2 0 0 0 0 1 0 1 0 0 0 0 -1 32.5
1 0 5 0 0 1 0 -1 -0 -0 0 0 -1 
2 0 5 0 0 1 0 1 0 0 0 0 -1 47.5
1 0 12 0 0 1 0 1 0 0 0 0 -1 
2 0 12 0 0 1 0 1 0 0 0 0 -1 32.5
4 -1.4406649597832799e-14 54.499999999999993 0 0 1 0 1 -0 0 0 0 -1 32.500000000000007
2 0 54.5 0 0.69165480148022551 -0.20791169081775934 -0.69165480148022562 0.70710678118654757 -1.7237512081336482e-17 0.70710678118654746 0.14701576646519846 0.97814760073380569 -0.14701576646519846 15.5
1 -15.181268528269429 52.946368421052632 0 0.94882928301683933 0.31578947368421062 0 0.31578947368421062 -0.94882928301683933 0 0 0 -1 
2 0 38.999000000000009 0 -0 0 -1 -0.94882928301683922 -0.3157894736842109 0 0.3157894736842109 -0.94882928301683922 0 10.000000000000005
1 9.488292830168394 35.8411052631579 0 -0.94882928301683933 0.31578947368421062 0 0.31578947368421062 0.94882928301683933 0 0 0 -1 
1 -10.734777923353233 52.946368421052632 10.734777923353231 0.67092362020957708 0.31578947368421062 -0.67092362020957697 0.22329687826943614 -0.94882928301683933 -0.22329687826943612 -0.70710678118654746 0 -0.70710678118654757 
2 0 38.999000000000009 0 -0.70710678118654746 0 -0.70710678118654757 -0.67092362020957697 -0.3157894736842109 0.67092362020957685 0.22329687826943634 -0.94882928301683922 -0.22329687826943631 10.000000000000005
1 6.709236202095771 35.8411052631579 -6.7092362020957701 -0.67092362020957708 0.31578947368421062 0.67092362020957697 0.22329687826943614 0.94882928301683933 -0.22329687826943612 -0.70710678118654746 0 -0.70710678118654757 
2 -4.0423767239052442e-14 57.998999999999995 4.0423767239052436e-14 -0.70710678118654746 0 -0.70710678118654757 0.6709236202095773 -0.31578947368420912 -0.67092362020957719 0.22329687826943509 0.94882928301683978 -0.22329687826943503 16.000000000000057
1 10.734777923353231 63.051631578947372 -10.73477792335323 -0.67092362020957708 -0.31578947368421062 0.67092362020957697 -0.22329687826943614 0.94882928301683933 0.22329687826943612 -0.70710678118654746 0 -0.70710678118654757 
2 3.7605694833083945e-16 76.998999999999995 -3.760569483308394e-16 -0.70710678118654746 0 -0.70710678118654757 0.67092362020957697 0.31578947368421095 -0.67092362020957685 -0.22329687826943637 0.94882928301683922 0.22329687826943634 10
2 5.3182483655411135e-16 76.998999999999995 0 -0 0 -1 0.94882928301683922 0.31578947368421095 0 -0.31578947368421095 0.94882928301683922 0 10
1 -9.4882928301683922 80.156894736842105 0 0.94882928301683933 -0.31578947368421062 0 -0.31578947368421062 -0.94882928301683933 0 0 0 -1 
2 4.1394617333363893e-14 57.998999999999995 0 -0 0 -1 -0.94882928301683944 0.31578947368421029 0 -0.31578947368421029 -0.94882928301683944 0 16.000000000000039
2 -5.7167839871681167e-14 57.998999999999995 0 0 0 -1 0.94882928301683978 -0.31578947368420912 -0 0.31578947368420912 0.94882928301683978 0 16.000000000000057
2 2.927041462104381e-14 57.998999999999995 -2.927041462104381e-14 -0.70710678118654746 0 -0.70710678118654757 -0.67092362020957708 0.31578947368421029 0.67092362020957697 -0.22329687826943589 -0.94882928301683944 0.22329687826943587 16.000000000000039
1 -6.7092362020957692 80.156894736842105 6.7092362020957683 0.67092362020957708 -0.31578947368421062 -0.67092362020957697 -0.22329687826943614 -0.94882928301683933 0.22329687826943612 -0.70710678118654746 0 -0.70710678118654757 
1 15.181268528269428 63.051631578947372 0 -0.94882928301683933 -0.31578947368421062 0 -0.31578947368421062 0.94882928301683933 0 0 0 -1 
1 -51.874110111016911 70.09337681133195 -23.125889888983082 -0.69165480148022551 0.20791169081775934 0.69165480148022562 0.70710678118654757 -1.7237512081336482e-17 0.70710678118654746 0.14701576646519846 0.97814760073380569 -0.14701576646519846 
1 2.0131262594179841e-16 57.998999999999988 0 0 0 1 1 0 0 0 1 0 
1 49.497474683058321 57.998999999999988 -20.502525316941671 0.70710678118654746 0 0.70710678118654757 0.70710678118654757 0 -0.70710678118654746 0 1 0 
Triangulations 0

TShapes 170
Ve
1e-07
32.5 0 0
0 0

0101101
*
Ed
 1e-07 1 1 0
1  1 0 0 6.28318530717959
2  1 1 0 0 6.28318530717959
-32.5 0 -32.5 -7.9602041944578e-15
2  2 2 0 0 6.28318530717959
0 0 6.28318530717959 0
0

0101000
+170 0 -170 0 *
Wi

0101100
-169 0 *
Fa
0  1e-07 1 0

0111000
+168 0 *
Ve
1e-07
32.5 5 0
0 0

0101101
*
Ed
 1e-07 1 1 0
1  2 0 0 6.28318530717959
2  3 2 0 0 6.28318530717959
0 5 6.28318530717959 5
2  4 3 0 0 6.28318530717959
-32.5 0 -32.5 -7.9602041944578e-15
0

0101000
+166 0 -166 0 *
Ed
 1e-07 1 1 0
1  3 0 0 5
3  5 6CN 2 0 0 5
0 0 0 5
0

0101000
+170 0 -166 0 *
Wi

0101100
+169 0 -165 0 -164 0 +164 0 *
Fa
0  1e-07 2 0

0111000
+163 0 *
Wi

0101100
+165 0 *
Ve
1e-07
47.5 5 0
0 0

0101101
*
Ed
 1e-07 1 1 0
1  4 0 0 6.28318530717959
2  7 3 0 0 6.28318530717959
-47.5 0 -47.5 -1.16341445918999e-14
2  8 4 0 0 6.28318530717959
0 0 6.28318530717959 0
0

0101000
+160 0 -160 0 *
Wi

0101100
-159 0 *
Fa
0  1e-07 3 0

0111000
+161 0 +158 0 *
Ve
1e-07
47.5 12 0
0 0

0101101
*
Ed
 1e-07 1 1 0
1  5 0 0 6.28318530717959
2  9 4 0 0 6.28318530717959
0 7 6.28318530717959 7
2  10 5 0 0 6.28318530717959
47.5 0 47.5 -1.16341445918999e-14
0

0101000
+156 0 -156 0 *
Ed
 1e-07 1 1 0
1  6 0 0 7
3  11 12CN 4 0 0 7
0 0 0 7
0

0101000
+160 0 -156 0 *
Wi

0101100
+159 0 -155 0 -154 0 +154 0 *
Fa
0  1e-07 4 0

0111000
+153 0 *
Wi

0101100
+155 0 *
Ve
1e-07
32.5 12 0
0 0

0101101
*
Ed
 1e-07 1 1 0
1  7 0 0 6.28318530717959
2  13 5 0 0 6.28318530717959
32.5 0 32.5 -7.9602041944578e-15
2  14 6 0 0 6.28318530717959
0 0 6.28318530717959 0
0

0101000
+150 0 -150 0 *
Wi

0101100
-149 0 *
Fa
0  1e-07 5 0

0111000
+151 0 +148 0 *
Ve
1.00000003552714e-07
32.5 54.5 0
0 0

0101101
*
Ed
 1e-07 1 1 0
1  8 0 0 42.5
3  15 16CN 6 0 0 42.5
0 0 0 42.5
0

0101000
+150 0 -146 0 *
Ve
5.88105573725125e-07
-30.7344851894503 54.5 10.5660503566592
0 0

0101101
*
Ed
 1.00000003552714e-07 1 1 0
1  9 0 0 3.47271989642255
2  17 6 0 0 3.47271989642255
0 42.5 3.47271989642255 42.5
2  18 7 0 0 3.47271989642255
0 2.18628534080031e-16 3.47271989642255 2.18628534080031e-16
4 G1 6 0 7 0
0

0101000
+146 0 -144 0 *
Ve
1.57012312484916e-07
-14.0728479578942 49.6159790866636 29.2951352677197
0 0

0101101
*
Ed
 1.30826945252483e-07 1 1 0
1  10 0 1.41049910284701e-06 0.809007690853483
2  19 6 0 1.41049910284701e-06 0.809007690853483
3.47271989642255 42.5 4.26455879619309 37.6159790835028
2  20 8 0 1.41049910284701e-06 0.809007690853483
3.5441048102213 -28.5657137141714 5.48002697816434 -28.9802287570311
0

0101000
+144 0 -142 0 *
Ve
1.44488229221326e-07
-9.4882928301684 35.8411052631579 31.0841165093843
0 0

0101101
*
Ed
 1e-07 1 1 0
1  11 0 1.12296614366825 1.27453394086853
2  21 6 0 1.12296614366825 1.27453394086853
4.26455879725804 37.6159790943075 4.41612659445832 23.8411052685417
2  22 9 0 1.12296614366825 1.27453394086853
3.50999847285478 -29.2951352677197 18.0277563773199 -31.0841165093843
0

0101000
+142 0 -140 0 *
Ve
1.44488233271453e-07
9.4882928301684 35.8411052631579 31.0841165093843
0 0

0101101
*
Ed
 1.44488221897219e-07 1 1 0
1  12 0 0 1
2  23 6 0 0 1
4.41612659445832 23.8411052631579 5.00865136631106 23.8411052631579
2  24 10 0 0 1
8.88178419700125e-16 -31.0841165093843 2.49901547506017 -31.0841165093843
0

0101000
+140 0 -138 0 *
Ve
9.32233653622751e-06
12.4372115518654 44.7015033117031 30.0260848066168
0 0

0101101
*
Ed
 1e-07 1 1 0
1  13 0 5.00865136631106 5.10508806208341
2  25 6 0 5.00865136631106 5.10508806208341
5.00865136631106 23.8411052685417 5.10508806208342 32.701503298296
2  26 11 0 5.00865136631106 5.10508806208341
-3.90798504668055e-14 -31.0841165093843 9.33824261870718 -30.0260848066168
0

0101000
+138 0 -136 0 *
Ve
1.44488224654662e-07
15.2705533688826 35.8411052631579 28.6890257730741
0 0

0101101
*
Ed
 1e-07 1 1 0
1  14 0 1.17809724509617 1.27453394086853
2  27 6 0 1.17809724509617 1.27453394086853
5.10508806208342 32.701503298296 5.20152475785577 23.8411052685417
2  28 12 0 1.17809724509617 1.27453394086853
8.68951375861275 -30.0260848066168 18.02775637732 -31.0841165093843
0

0101000
+136 0 -134 0 *
Ve
1.44488226179714e-07
28.6890257730741 35.8411052631579 15.2705533688826
0 0

0101101
*
Ed
 1.44488209899134e-07 1 1 0
1  15 0 0 1
2  29 6 0 0 1
5.20152475785577 23.8411052631579 5.79404952970851 23.8411052631579
2  30 13 0 0 1
8.88178419700125e-16 -31.0841165093843 2.49901547506017 -31.0841165093842
0

0101000
+134 0 -132 0 *
Ve
1.00000037640327e-07
31.0544615561337 52.9463684210526 9.58490570942728
0 0

0101101
*
Ed
 1e-07 1 1 0
1  16 0 5.00865136631106 5.19841516621668
2  31 6 0 5.00865136631106 5.19841516621668
5.79404952970851 23.8411052685417 5.98381332961413 40.9463684266054
2  32 14 0 5.00865136631106 5.19841516621668
-4.2632564145606e-14 -31.0841165093843 18.0277563773199 -28.7363721766088
0

0101000
+132 0 -130 0 *
Ve
1.00000020791724e-07
31.19541713656 54.5 9.11569798073739
0 0

0101101
*
Ed
 1e-07 1 1 0
1  17 0 0 0.999976242433929
2  33 6 0 0 0.999976242433929
5.98381332961413 40.9463684210526 5.99888802061861 42.5000000000001
2  34 15 0 0 0.999976242433929
0 -28.7363721766088 0.100819379145689 -28.5042628566325
0

0101000
+130 0 -128 0 *
Ed
 1.00000003552714e-07 1 1 0
1  9 0 5.99888802061861 6.28318530717959
2  17 6 0 5.99888802061861 6.28318530717959
5.99888802061861 42.5 6.28318530717959 42.5
2  18 7 0 5.99888802061861 6.28318530717959
5.99888802061861 2.18628534080031e-16 6.28318530717959 2.18628534080031e-16
4 G1 6 0 7 0
0

0101000
+128 0 -146 0 *
Wi

0101100
-145 0 -143 0 -141 0 -139 0 -137 0 -135 0 -133 0 -131 0 -129 0 -127 0 
-126 0 +145 0 +149 0 *
Fa
0  1e-07 6 0

0111000
+125 0 *
Ve
1.00000019131949e-07
30.1338588707915 63.0516315789474 8.66430302408507
0 0

0101101
*
Ed
 1e-07 1 1 0
1  18 0 0 1
2  35 7 0 0 1
5.99888802061861 2.18628534080031e-16 6.00321039338847 0.266262123872949
2  36 15 0 0 1
0.100819379145694 -28.5042628566325 0.642577178529619 -27.4344433734407
0

0101000
+128 0 -123 0 *
Ve
0.000105276558255709
19.1178229796377 80.1568947368421 5.69935057544617
0 0

0101101
*
Ed
 1e-07 1 1 0
1  19 0 3.26202113442841 4.02436056911301
2  37 7 0 3.26202113442841 4.02436056911301
6.00321039338847 0.266262123872949 5.99345680755803 0.909900902232342
2  38 16 0 3.26202113442841 4.02436056911301
-1.77635683940025e-15 -27.4344433734407 18.02775637732 -17.5483917106833
0

0101000
+123 0 -121 0 *
Ve
0.000105376559251985
0.134791044151351 86.9980917943033 0.325386369890606
0 0

0101101
*
Ed
 0.000105276558255709 1 1 0
1  20 0 0 0.571361192177103
2  39 7 0 0 0.571361192177103
5.99345680755803 0.909900902232342 5.10523708259243 1.55995868161954
2  40 17 0 0 0.571361192177103
0 -17.5483917106833 1.26298317280693 -0.325417000591927
0

0101000
+121 0 -119 0 *
Ve
0.000105276558251985
-9.48829283016839 80.1568947368421 17.5483917106833
0 0

0101101
*
Ed
 0.000105276558251985 1 1 0
1  21 0 0.554533202847173 1
2  41 7 0 0.554533202847173 1
5.10508022482004 1.55995892520373 4.2167193166088 0.909900902232341
2  42 18 0 0.554533202847173 1
1.23602822452189 -0.325386369890596 2.49901547506017 -17.5483917106833
0

0101000
+119 0 -117 0 *
Ve
6.2158277429404e-07
-11.8338997521421 73.1092230457926 23.8726964184651
0 0

0101101
*
Ed
 1e-07 1 1 0
1  22 0 0.688028411271676 1.04290269452699
2  43 7 0 0.688028411271676 1.04290269452699
4.2167193166088 0.909900902232341 4.25218042014109 0.609663331880078
2  44 19 0 0.688028411271676 1.04290269452699
7.105427357601e-15 -17.5483917106833 7.42775525291673 -23.8726964184651
0

0101000
+117 0 -115 0 *
Ed
 5.88105552334956e-07 1 1 0
1  23 0 0.279136740140286 1
2  45 7 0 0.279136740140286 1
4.25218042899574 0.609663334872105 3.47271989642255 2.18628534080031e-16
2  46 8 0 0.279136740140286 1
0.989380822565892 -28.5657137141714 3.5441048102213 -28.5657137141714
0

0101000
+115 0 -144 0 *
Ve
1.00000000068636e-07
2.05868705477275e-15 87 0
0 0

0101101
*
Ed
 1e-07 1 1 0
1  24 0 0 1.5707963267949
3  47 48CN 7 0 0 1.5707963267949
0 2.18628534080031e-16 0 1.5707963267949
0

0101000
+146 0 -112 0 *
Ed
 1.00000000068636e-07 1 1 1
2  49 7 0 0 6.28318530717959
0 1.5707963267949 6.28318530717959 1.5707963267949
0

0101000
+112 0 -112 0 *
Wi

0101100
-122 0 -120 0 -118 0 -116 0 -114 0 -113 0 +143 0 -111 0 -110 0 +111 0 
+126 0 *
Fa
0  1e-07 7 0

0111000
+109 0 *
Ve
2.0507459733543e-07
-15.3778833169001 62.4172241559029 37.2981935336831
0 0

0101101
*
Ve
1.00000028421709e-07
-15.1812685282694 63.0516315789474 37.0803825272412
0 0

0101101
*
Ed
 1e-07 1 1 0
1  25 0 0 1
2  50 20 0 0 1
0.0415139995716356 -37.2981935336831 0 -37.0803825272413
2  51 8 0 0 1
0 -38.0797449376843 0.0439800621320074 -37.9250060666576
0

0101000
+107 0 -106 0 *
Ed
 1e-07 1 1 0
1  26 0 1.90489893604313 2.85029969637401
2  52 19 0 1.90489893604313 2.85029969637401
7.4277552529167 -23.8726964184651 18.0277563773199 -37.0803825272413
2  53 8 0 1.90489893604313 2.85029969637401
0.989380822462237 -28.5657137468537 0.0439800621319969 -37.9250060583402
0

0101000
+115 0 -106 0 *
Ve
2.05074624667839e-07
-15.1812685282694 52.9463684210526 33.3643569828967
0 0

0101101
*
Ed
 1e-07 1 1 0
1  27 0 4.32329747072156 4.53388693688121
2  54 9 0 4.32329747072156 4.53388693688121
1.77635683940025e-14 -33.3643569828967 3.50999847285479 -29.2951352677197
2  55 8 0 4.32329747072156 4.53388693688121
5.69061643627862 -33.2537968135882 5.48002697011893 -28.9802287989364
0

0101000
+103 0 -142 0 *
Ed
 2.05074581447212e-07 1 1 0
1  28 0 0 1
2  56 20 0 0 1
0.642577178529619 -33.3643569828967 0.0415139995716356 -37.2981935336831
2  57 8 0 0 1
5.69061643627863 -33.2537968071722 6.28318530717959 -38.0797449376843
0

0101000
+103 0 -107 0 *
Ve
1e-07
-40.9139550026254 70.093376811332 62.8342652194084
0 0

0101101
*
Ed
 1e-07 1 1 0
1  29 0 38.0797449376842 75
3  58 59CN 8 0 38.0797449376842 75
6.28318530717959 -38.0797449376842 6.28318530717959 -75
0

0101000
+107 0 -100 0 *
Ed
 1e-07 1 1 0
1  30 0 0 6.28318530717959
2  60 8 2 0 6.28318530717959
0 -75 6.28318530717959 -75
0

0101000
+100 2 -100 2 *
Wi

0101100
-105 0 +104 0 -113 0 -141 0 +102 0 -101 0 -99 0 +98 1 +99 0 *
Fa
0  1e-07 8 0

0111000
+97 0 *
Ve
1.00000001776357e-07
-9.4882928301684 35.8411052631579 70
0 0

0101101
*
Ed
 1.00000001776357e-07 1 1 0
1  31 0 31.0841165093843 70
2  61 10 0 31.0841165093843 70
0 -31.0841165093843 0 -70
4 G1 9 0 10 0
0

0101000
+140 0 -95 0 *
Ve
1.00000000888178e-07
-15.1812685282694 52.9463684210526 70
0 0

0101101
*
Ed
 1e-07 1 1 0
1  32 0 0 18.0277563773199
0

0101000
+93 4 -95 4 *
Ed
 1.00000000888178e-07 1 1 0
1  33 0 33.3643569828967 70
2  62 20 0 33.3643569828967 70
0.642577178529619 -33.3643569828967 0.642577178529619 -70
4 G1 20 0 9 0
0

0101000
+103 0 -93 0 *
Wi

0101100
-139 0 -94 0 +92 3 +91 0 -102 0 *
Fa
0  1e-07 9 0

0111000
+90 0 *
Ve
1.00000001776357e-07
9.4882928301684 35.8411052631579 70
0 0

0101101
*
Ed
 1.00000001776357e-07 1 1 0
1  34 0 31.0841165093843 70
2  63 10 0 31.0841165093843 70
2.49901547506017 -31.0841165093843 2.49901547506017 -70
4 G1 10 0 11 0
0

0101000
+138 0 -88 0 *
Ed
 1e-07 1 1 0
1  35 0 0 2.49901547506017
2  64 10 4 0 2.49901547506017
0 -70 2.49901547506017 -70
0

0101000
+95 4 -88 4 *
Wi

0101100
-137 0 -87 0 +86 3 +94 0 *
Fa
0  1e-07 10 0

0111000
+85 0 *
Ve
9.32233652312814e-06
15.1812685282694 52.9463684210526 36.6508243749759
0 0

0101101
*
Ed
 9.32233650847993e-06 1 1 0
1  36 0 -29.3890769399355 -18.462283095916
2  65 11 0 -29.3890769399355 -18.462283095916
18.0277563773199 -36.6508243749759 9.3382426187072 -30.0260848066168
2  66 12 0 -29.3890769399355 -18.462283095916
-3.96823377120709e-15 -36.6508243749759 8.68951375861274 -30.0260848066168
0

0101000
+83 0 -136 0 *
Ve
1.00000001776357e-07
15.1812685282694 52.9463684210526 70
0 0

0101101
*
Ed
 1.00000001776357e-07 1 1 0
1  37 0 36.6508243749759 70
2  67 21 0 36.6508243749759 70
0 -36.6508243749759 0 -70
4 G1 11 0 21 0
0

0101000
+83 0 -81 0 *
Ed
 1e-07 1 1 0
1  38 0 0 18.0277563773199
0

0101000
+88 4 -81 4 *
Wi

0101100
-135 0 +82 0 -80 0 +79 3 +87 0 *
Fa
0  1e-07 11 0

0111000
+78 0 *
Ve
1.00000001776357e-07
42.7882384809625 35.8411052631579 56.2067108851541
0 0

0101101
*
Ed
 1.00000001776357e-07 1 1 0
1  39 0 31.0841165093843 70
2  68 13 0 31.0841165093843 70
0 -31.0841165093843 0 -70
4 G1 12 0 13 0
0

0101000
+134 0 -76 0 *
Ve
1.00000000888178e-07
38.7626967597051 52.9463684210526 60.2322526064116
0 0

0101101
*
Ed
 1e-07 1 1 0
1  40 0 0 18.0277563773199
0

0101000
+74 6 -76 6 *
Ed
 1.00000000888178e-07 1 1 0
1  41 0 36.6508243749759 70
2  69 22 0 36.6508243749759 70
0.642577178529619 -36.6508243749759 0.642577178529619 -70
4 G1 22 0 12 0
0

0101000
+83 0 -74 0 *
Wi

0101100
-82 0 -133 0 -75 0 +73 5 +72 0 *
Fa
0  1e-07 12 0

0111000
+71 0 *
Ve
1.00000001776357e-07
56.2067108851541 35.8411052631579 42.7882384809626
0 0

0101101
*
Ed
 1.00000001776357e-07 1 1 0
1  42 0 31.0841165093843 70
2  70 13 0 31.0841165093843 70
2.49901547506017 -31.0841165093843 2.49901547506017 -70
4 G1 13 0 14 0
0

0101000
+132 0 -69 0 *
Ed
 1e-07 1 1 0
1  43 0 0 2.49901547506017
2  71 13 6 0 2.49901547506017
0 -70 2.49901547506017 -70
0

0101000
+76 6 -69 6 *
Wi

0101100
-131 0 -68 0 +67 5 +75 0 *
Fa
0  1e-07 13 0

0111000
+66 0 *
Ve
1.00000001776357e-07
60.2322526064116 52.9463684210526 38.7626967597051
0 0

0101101
*
Ed
 1.00000001776357e-07 1 1 0
1  44 0 28.7363721766088 70
2  72 15 0 28.7363721766088 70
0 -28.7363721766088 0 -70
4 G1 14 0 15 0
0

0101000
+130 0 -64 0 *
Ed
 1e-07 1 1 0
1  45 0 0 18.0277563773199
0

0101000
+69 6 -64 6 *
Wi

0101100
-129 0 -63 0 +62 5 +68 0 *
Fa
0  1e-07 14 0

0111000
+61 0 *
Ve
1.00000000888178e-07
60.2322526064116 63.0516315789474 38.7626967597051
0 0

0101101
*
Ed
 1.00000000888178e-07 1 1 0
1  46 0 27.4344433734407 70
2  73 15 0 27.4344433734407 70
0.642577178529619 -27.4344433734407 0.642577178529619 -70
4 G1 15 0 16 0
0

0101000
+123 0 -59 0 *
Ed
 1e-07 1 1 0
1  47 0 0 0.642577178529619
2  74 15 6 0 0.642577178529619
0 -70 0.642577178529619 -70
0

0101000
+64 6 -59 6 *
Wi

0101100
-127 0 -122 0 -58 0 +57 5 +63 0 *
Fa
0  1e-07 15 0

0111000
+56 0 *
Ve
1e-07
56.2067108851541 80.1568947368421 42.7882384809626
0 0

0101101
*
Ed
 1e-07 1 1 0
1  48 0 17.5483917106833 70
2  75 17 0 17.5483917106833 70
0 -17.5483917106833 0 -70
4 G1 16 0 17 0
0

0101000
+121 0 -54 0 *
Ed
 1e-07 1 1 0
1  49 0 0 18.0277563773199
0

0101000
+59 6 -54 6 *
Wi

0101100
-120 0 -53 0 +52 5 +58 0 *
Fa
0  1e-07 16 0

0111000
+51 0 *
Ve
9.32233652659528e-06
9.48829283016839 80.1568947368421 22.9067652343599
0 0

0101101
*
Ed
 1e-07 1 1 0
1  50 0 1.58427484944554 2.82030406432498
2  76 18 0 1.58427484944554 2.82030406432498
1.23602921487944 -0.325390469344648 0 -22.9067652343599
2  77 17 0 1.58427484944554 2.82030406432498
1.26298626018073 -0.325390469344648 2.49901547506017 -22.9067652343599
0

0101000
+119 0 -49 0 *
Ve
1e-07
42.7882384809626 80.1568947368421 56.2067108851541
0 0

0101101
*
Ed
 1e-07 1 1 0
1  51 0 22.9067652343599 70
2  78 17 0 22.9067652343599 70
2.49901547506017 -22.9067652343599 2.49901547506017 -70
4 G1 23 0 17 0
0

0101000
+49 0 -47 0 *
Ed
 1e-07 1 1 0
1  52 0 0 2.49901547506017
2  79 17 6 0 2.49901547506017
0 -70 2.49901547506017 -70
0

0101000
+54 6 -47 6 *
Wi

0101100
-118 0 -48 0 -46 0 +45 5 +53 0 *
Fa
0  1e-07 17 0

0111000
+44 0 *
Ve
1e-07
-9.48829283016839 80.1568947368421 70
0 0

0101101
*
Ed
 1e-07 1 1 0
1  53 0 17.5483917106833 70
2  80 18 0 17.5483917106833 70
2.49901547506017 -17.5483917106833 2.49901547506017 -70
4 G1 19 0 18 0
0

0101000
+117 0 -42 0 *
Ve
1e-07
9.48829283016839 80.1568947368421 70
0 0

0101101
*
Ed
 1e-07 1 1 0
1  54 0 0 2.49901547506017
2  81 18 4 0 2.49901547506017
0 -70 2.49901547506017 -70
0

0101000
+40 4 -42 4 *
Ed
 1e-07 1 1 0
1  55 0 22.9067652343599 70
2  82 18 0 22.9067652343599 70
0 -22.9067652343599 0 -70
4 G1 24 0 18 0
0

0101000
+49 0 -40 0 *
Wi

0101100
-116 0 -41 0 +39 3 +38 0 +48 0 *
Fa
0  1e-07 18 0

0111000
+37 0 *
Ve
1e-07
-15.1812685282694 63.0516315789474 70
0 0

0101101
*
Ed
 1e-07 1 1 0
1  56 0 37.0803825272412 70
2  83 20 0 37.0803825272412 70
0 -37.0803825272412 0 -70
4 G1 19 0 20 0
0

0101000
+106 0 -35 0 *
Ed
 1e-07 1 1 0
1  57 0 0 18.0277563773199
0

0101000
+42 4 -35 4 *
Wi

0101100
-114 0 -104 0 -34 0 +33 3 +41 0 *
Fa
0  1e-07 19 0

0111000
+32 0 *
Ed
 1e-07 1 1 0
1  58 0 0 0.642577178529619
2  84 20 4 0 0.642577178529619
0 -70 0.642577178529619 -70
0

0101000
+35 4 -93 4 *
Wi

0101100
+105 0 +101 0 -91 0 +30 3 +34 0 *
Fa
0  1e-07 20 0

0111000
+29 0 *
Wi

0101100
+98 0 *
Fa
0  1e-07 25 0

0111000
+27 0 *
Ve
1.00000000888178e-07
15.1812685282694 63.0516315789474 70
0 0

0101101
*
Ed
 1e-07 1 1 0
1  59 0 0 0.642577178529619
2  85 21 4 0 0.642577178529619
0 -70 0.642577178529619 -70
0

0101000
+81 4 -25 4 *
Ed
 1e-07 1 1 0
1  60 0 0 18.0277563773199
0

0101000
+25 4 -40 4 *
Wi

0101100
+33 0 +30 0 +92 0 +86 0 +79 0 +24 0 +23 0 +39 0 *
Fa
0  1e-07 26 0

0111000
+22 0 *
Ve
9.32233652280137e-06
15.1812685282694 63.0516315789474 36.6508243749759
0 0

0101101
*
Ed
 1e-07 1 1 0
1  61 0 2.82030406432498 3.4628812428546
2  86 21 0 2.82030406432498 3.4628812428546
0.64257717852962 -36.6508243749759 0 -36.6508243749759
2  87 22 0 2.82030406432498 3.4628812428546
0 -36.6508243749759 0.642577178529619 -36.6508243749759
0

0101000
+20 0 -83 0 *
Ed
 1.00000000888178e-07 1 1 0
1  62 0 36.6508243749759 70
2  88 21 0 36.6508243749759 70
0.642577178529619 -36.6508243749759 0.642577178529619 -70
4 G1 21 0 24 0
0

0101000
+20 0 -25 0 *
Wi

0101100
+19 0 -18 0 +24 3 +80 0 *
Fa
0  1e-07 21 0

0111000
+17 0 *
Ve
1e-07
38.7626967597051 63.0516315789474 60.2322526064116
0 0

0101101
*
Ed
 1e-07 1 1 0
1  63 0 0 18.0277563773199
0

0101000
+47 6 -15 6 *
Ed
 1e-07 1 1 0
1  64 0 0 0.642577178529619
2  89 22 6 0 0.642577178529619
0 -70 0.642577178529619 -70
0

0101000
+15 6 -74 6 *
Wi

0101100
+14 0 +13 0 +73 0 +67 0 +62 0 +57 0 +52 0 +45 0 *
Fa
0  1e-07 27 0

0111000
+12 0 *
Ed
 1e-07 1 1 0
1  65 0 36.6508243749759 70
2  90 22 0 36.6508243749759 70
0 -36.6508243749759 0 -70
4 G1 23 0 22 0
0

0101000
+20 0 -15 0 *
Wi

0101100
-19 0 -72 0 +13 5 +10 0 *
Fa
0  1e-07 22 0

0111000
+9 0 *
Ed
 9.32233650847993e-06 1 1 0
1  66 0 6.71973284574635 29.3890769399355
2  91 24 0 6.71973284574635 29.3890769399355
18.0277563773199 -22.9067652343599 -1.14294441066468e-15 -36.6508243749759
2  92 23 0 6.71973284574635 29.3890769399355
5.59662095257301e-15 -22.9067652343599 18.0277563773199 -36.6508243749759
0

0101000
+49 0 -20 0 *
Wi

0101100
-7 0 -10 0 +14 5 +46 0 *
Fa
0  1e-07 23 0

0111000
+6 0 *
Wi

0101100
+7 0 -38 0 +23 3 +18 0 *
Fa
0  1e-07 24 0

0111000
+4 0 *
Sh

0101100
+167 0 +162 0 +157 0 +152 0 +147 0 +124 0 +108 0 -96 0 -89 0 -84 0 
-77 0 -70 0 -65 0 -60 0 -55 0 -50 0 -43 0 -36 0 -31 0 -28 0 
+26 1 +21 3 -16 0 +11 5 -8 0 -5 0 -3 0 *
So

0100000
+2 0 *

+1 0 